<svg width="53" height="59" viewBox="0 0 53 59" fill="none" xmlns="http://www.w3.org/2000/svg">
<path d="M5.34417 36.7651C5.10597 37.0855 5.03528 37.4674 5.08446 37.8569V37.8577C4.68259 37.8439 4.24154 37.9284 3.86965 37.986C3.76592 38.0029 3.40017 38.3779 3.25187 38.5331C2.84386 38.9557 2.41664 38.988 2.00248 38.5739C1.6229 38.1935 1.52916 37.7148 1.99557 37.3598C2.23991 37.1739 3.17657 37.137 3.26339 36.9687C3.27569 36.9457 2.52729 36.1335 2.42586 35.9583C2.0993 35.3874 2.18766 34.6674 2.86461 34.4438C3.37251 34.2755 3.86427 34.6359 4.13474 35.0308C4.35911 35.3574 4.33759 35.7339 4.39906 36.0835C4.42211 36.2149 4.45592 36.3417 4.5197 36.4608H4.52047C4.61421 36.5107 4.71794 36.5484 4.8209 36.5822C4.87699 36.6006 4.93078 36.6183 4.98457 36.6375C5.10367 36.6806 5.22353 36.7236 5.34417 36.7651Z" fill="#F4EBD8"/>
<path d="M6.35097 31.9403C6.18115 32.0325 6.02825 32.16 5.903 32.326C5.87611 32.3614 5.85075 32.3975 5.82693 32.4351C5.62331 32.2415 5.14384 31.8389 4.9333 31.6583C4.67205 31.4355 3.87524 31.5799 3.66932 31.5669C3.19984 31.5354 2.75418 31.3225 2.50676 30.923C2.22092 30.4604 2.51828 29.9018 2.93244 29.6536C3.20675 29.4892 3.45263 29.5383 3.69621 29.6183C3.79379 29.6505 3.89061 29.6866 3.98973 29.7174C4.022 29.5022 4.01125 29.2794 4.01432 29.0566C4.01663 28.9421 4.02277 28.8291 4.04045 28.7154C4.14725 28.0293 4.74889 27.8418 5.30827 28.1952C5.66327 28.4188 5.84921 28.8368 5.94065 29.2264C6.03132 29.6121 5.4412 30.6533 5.61409 30.8845C5.87073 31.2295 6.10969 31.5853 6.35097 31.9403Z" fill="#F4EBD8"/>
<path d="M13.2913 28.0585C13.3528 28.229 13.4142 28.3988 13.4796 28.5679C13.279 28.5748 13.0831 28.6178 12.9117 28.7008C12.7404 28.7854 12.5921 28.9106 12.4845 29.0858C12.2924 28.7339 12.0411 28.3981 11.7492 28.1776C11.6846 28.1284 10.3738 28.0838 9.98727 27.486C9.73678 27.098 9.90582 26.6562 10.34 26.5255C10.801 26.3872 11.2935 26.6216 11.71 26.7952C11.9835 26.9097 12.1595 26.557 12.055 26.3473C11.899 26.0299 12.0757 25.721 12.3931 25.6089C12.8018 25.4652 13.1722 25.8179 13.3128 26.159C13.465 26.524 13.1783 27.2225 13.1668 27.244C13.0331 27.4906 13.2029 27.8149 13.2913 28.0585Z" fill="#F4EBD8"/>
<path d="M12.1 39.406C11.9878 39.4759 11.8757 39.5443 11.7619 39.6119C11.2479 39.917 10.71 40.1859 10.1568 40.408C9.9862 40.4764 9.34921 40.8844 8.3726 40.3926C8.01454 40.2128 7.63726 40.0807 7.29917 39.867C6.60225 39.4291 5.92838 38.7283 5.68404 37.93C5.55265 37.5012 5.67175 37.1892 5.94068 36.9587C6.09359 36.8273 6.29644 36.7213 6.52926 36.636C7.45516 36.2948 8.86898 36.2626 9.64427 36.1296C9.68269 36.5085 9.7772 36.8788 9.9255 37.2146C10.199 37.8377 10.6193 38.3679 11.148 38.7959C11.3969 38.9972 11.7427 39.2569 12.1 39.406Z" fill="#E6692E"/>
<path d="M10.2583 33.8015C9.84409 34.3255 9.64278 34.9978 9.62895 35.6748C9.09416 35.5395 8.45332 35.634 7.94773 35.7063C7.75563 35.7347 7.56277 35.7647 7.37221 35.8031H7.37144C7.03336 35.3705 6.56388 35.0178 6.28034 34.5322C6.02447 34.0919 5.93304 33.5364 6.08825 33.0584C6.12897 33.0108 6.15356 32.9493 6.15587 32.8855C6.21426 32.7618 6.29187 32.645 6.39022 32.539C6.64609 32.2632 6.98111 32.1917 7.32611 32.2309C7.37836 32.2363 7.43138 32.2447 7.4844 32.2555C7.56047 32.2701 7.63654 32.29 7.71184 32.3139C7.81173 32.3454 7.91085 32.3823 8.00613 32.4245C8.23741 32.5236 8.45102 32.6458 8.62698 32.7595C9.17791 33.1138 9.66506 33.5333 10.2583 33.8015Z" fill="#E6692E"/>
<path d="M12.2338 29.9771C12.1877 30.3267 12.1746 30.6832 12.1416 31.0267C12.0917 31.5554 11.9526 32.1877 12.0924 32.7149C11.5715 32.8086 11.0689 33.0522 10.6517 33.3995C9.72505 33.046 9.03812 32.2823 8.11683 31.9142C8.08686 31.9019 8.05613 31.8904 8.02539 31.8812V31.8804C8.04076 31.6314 8.0761 31.3832 8.15755 31.1266C8.35503 30.4996 8.82143 29.9879 9.38466 29.6682C9.90562 29.3739 10.5526 29.3409 11.1273 29.4531C11.4362 29.5145 11.7213 29.6444 11.991 29.8058C12.0871 29.8641 12.1608 29.9256 12.2338 29.9771Z" fill="#E6692E"/>
<path d="M13.7371 33.6969C14.6791 34.3293 15.0448 35.5395 15.3399 36.5906C15.0249 36.9617 14.6898 37.3175 14.3402 37.6579C13.8108 38.1727 13.2368 38.6376 12.6283 39.0571C12.4008 38.8896 12.1227 38.7743 11.8906 38.6222C11.3966 38.2987 10.984 37.8523 10.6766 37.3513C10.0558 36.3378 10.0757 34.9393 10.8764 34.0342C11.6279 33.1844 12.8196 33.0822 13.7371 33.6969Z" fill="#E6692E"/>
<path d="M14.0073 29.2288C14.2992 29.3494 14.5782 29.5638 14.7956 29.7206C15.4334 30.1816 15.9797 30.784 16.4238 31.4287C16.6336 31.7337 16.8095 32.0587 16.9709 32.3899C17.1184 32.6934 17.1884 33.0599 17.3436 33.3635C17.2882 33.5141 17.2375 33.6624 17.1791 33.783C16.9494 34.2586 16.6828 34.715 16.4 35.1599C16.2156 35.4488 16.0204 35.7308 15.8122 36.0044C15.4526 34.8595 14.9616 33.7722 13.9189 33.0738C13.4671 32.7718 12.9638 32.6504 12.4644 32.6734C12.7517 32.0234 12.711 31.109 12.7809 30.4367C12.8316 29.9449 12.7994 29.3371 13.3726 29.1635C13.4932 29.1274 13.6162 29.1251 13.7406 29.1466C13.7737 29.1819 13.819 29.2104 13.8759 29.2257C13.9174 29.2372 13.9612 29.2365 14.005 29.228H14.0057C14.0073 29.2288 14.0073 29.2288 14.0073 29.2288Z" fill="#E6692E"/>
<path d="M20.7896 37.4267C21.8461 38.9028 22.9019 40.3796 23.9592 41.8556C23.6188 43.0251 23.0602 44.1201 22.2972 45.0867C21.757 45.7713 21.1116 46.3952 20.3716 46.8578C20.002 47.0898 19.5948 47.242 19.1683 47.3288C18.8925 47.3857 18.6174 47.3718 18.3416 47.3519C20.4185 45.9396 22.0221 43.4208 21.2207 40.8544C20.8764 39.7541 20.0266 38.8082 18.9693 38.3572C17.7991 37.857 16.5397 38.1597 15.4755 38.769C14.4789 39.3392 13.6798 40.1952 12.8722 40.9951C12.3082 41.5529 11.7412 42.0516 11.1042 42.4596C10.8183 42.2352 10.5248 42.0185 10.239 41.7957C10.0484 41.6489 9.80407 41.3977 9.5459 41.2494C9.6965 41.2102 9.84096 41.1633 9.97235 41.1226C10.5594 40.9405 11.1211 40.6677 11.662 40.3811C12.7109 39.8248 13.6759 39.1118 14.5519 38.3142C14.9937 37.9123 15.4056 37.4789 15.7905 37.0225C15.9165 36.9879 16.0226 36.8873 16.0203 36.7451C16.2815 36.4193 16.5289 36.0828 16.7641 35.7386C17.0914 35.2591 17.3811 34.7543 17.6462 34.2387C17.7368 34.062 17.8882 33.8176 18.0073 33.5625C18.2885 33.9682 18.5974 34.3585 18.8687 34.7397C19.5064 35.6364 20.1488 36.5308 20.7896 37.4267Z" fill="#E63C4B"/>
<path d="M21.9131 55.3344C22.0068 56.0874 21.1478 56.2057 20.6284 56.0482C20.3663 55.9691 20.1397 55.8154 19.903 55.6786C20.0705 55.1961 20.1589 54.6697 19.9422 54.3386C19.8999 54.274 19.8008 54.2494 19.7447 54.3124C19.4942 54.5937 19.4504 55.0647 19.3536 55.4596C19.3321 55.4704 19.316 55.4919 19.3267 55.5165C19.329 55.5219 19.3321 55.5273 19.3336 55.5334C19.3198 55.5833 19.3052 55.6325 19.2875 55.6794C19.0778 56.2595 18.7205 56.8973 18.2057 57.2561C17.4403 57.7886 16.9647 56.7159 16.602 55.7532L16.4998 55.4773C16.4199 55.2629 16.3462 55.0632 16.2739 54.9003C16.2033 54.7366 16.1349 54.6098 16.0673 54.5391C15.985 54.4531 15.8536 54.503 15.8175 54.6044C15.7123 54.8987 15.7584 55.2476 15.8675 55.5964C15.6362 55.6318 15.408 55.6525 15.1759 55.6525C14.9646 55.6525 14.7502 55.6356 14.532 55.5956C14.1263 55.5211 13.756 55.3313 13.7467 54.8657C13.7383 54.4853 14.0641 54.0835 14.2692 53.7861C14.6127 53.2867 15.0253 52.8364 15.461 52.4184C15.7169 52.1733 16.0288 51.972 16.3231 51.7591C16.453 52.3031 16.6174 52.8433 16.9086 53.2759C16.9832 53.3873 17.1345 53.3374 17.1468 53.2114C17.2121 52.5959 17.0492 51.9266 16.874 51.2912C16.8272 51.1214 16.7803 50.9539 16.7365 50.791C16.7119 50.6987 16.6873 50.6065 16.6658 50.5174C16.642 50.4175 16.6166 50.3176 16.5928 50.2185C16.6543 50.2531 16.7165 50.2854 16.778 50.3161C17.8453 50.8478 19.0801 50.9569 20.2764 51.0038C20.2027 51.2097 20.1443 51.4133 20.0828 51.5601C19.9291 51.9305 19.7824 52.3031 19.6479 52.6804C19.5588 52.9309 19.4719 53.1069 19.6325 53.3243C19.6395 53.3335 19.651 53.3443 19.664 53.342C19.9875 53.3005 20.1942 52.9032 20.3471 52.5214C20.5561 52.9155 20.8235 53.2867 21.0587 53.6632C21.3768 54.1726 21.8355 54.7235 21.9131 55.3344Z" fill="#FFB506"/>
<path d="M33.3141 53.787C33.7498 54.3955 34.1901 55.2484 33.2004 55.5604C32.7056 55.7171 32.1823 55.6848 31.6752 55.5965C31.7897 55.2753 31.8788 54.9265 31.7643 54.6053C31.7282 54.5031 31.5968 54.4531 31.5138 54.54C31.2818 54.7812 31.1665 55.1309 31.062 55.4789C31.0267 55.5942 30.9936 55.7102 30.9567 55.8209C30.9252 55.9177 30.8922 56.0099 30.8546 56.0975C30.6371 56.6008 30.2629 57.489 29.576 57.3499C29.0051 57.2331 28.6193 56.3979 28.3988 55.9307C28.3396 55.8047 28.2889 55.6749 28.2436 55.5435C28.2321 55.5135 28.2229 55.482 28.2121 55.452C28.166 55.3083 28.126 55.1631 28.0876 55.0171C28.0169 54.7474 28.0254 54.5238 27.8371 54.3118C27.7803 54.248 27.6811 54.2733 27.6397 54.3379C27.4191 54.6752 27.5198 55.1962 27.6858 55.6633C26.9719 56.0191 26.0476 56.5654 25.6926 55.6095C25.4813 55.0425 26.1375 54.2803 26.4164 53.8331C26.6846 53.4028 26.9965 52.9748 27.2332 52.5214C27.3869 52.9033 27.5943 53.3006 27.9163 53.3421C27.9301 53.3444 27.9409 53.3336 27.9478 53.3244C28.2382 52.9333 27.7365 52.1342 27.5751 51.7454C27.436 51.4111 27.2977 51.0777 27.1556 50.7449C27.1271 50.6796 27.1049 50.6189 27.0818 50.5636C28.0699 50.3323 29.0343 50.005 29.9548 49.547C30.4396 49.3058 30.9083 49.0261 31.3509 48.7087C31.3179 48.8294 31.2948 48.9623 31.2587 49.1083C31.1419 49.5778 31.029 50.0465 30.9145 50.5167C30.893 50.6059 30.8684 50.6981 30.8438 50.7903C30.8 50.9539 30.7531 51.1207 30.7063 51.292C30.5326 51.9275 30.3682 52.5952 30.4335 53.2114C30.4473 53.3375 30.5979 53.3874 30.6717 53.276C30.9652 52.8418 31.1296 52.2994 31.2587 51.7531C31.5107 51.9329 31.7728 52.105 31.9941 52.3009C32.4904 52.742 32.9284 53.2491 33.3141 53.787Z" fill="#FFB506"/>
<path d="M30.8499 26.2367C30.6532 26.4979 30.4611 26.7607 30.2382 27.0035C29.8564 27.4192 29.4261 27.7919 28.9704 28.1246C28.0676 28.7854 27.0379 29.2418 25.9561 29.5146C24.6775 29.8358 23.3351 29.8227 22.0304 29.699C20.9362 29.5953 19.8251 29.2964 18.7202 29.2057C19.1674 28.3213 19.6584 27.463 20.2247 26.6424C21.116 25.3484 22.2694 23.9485 23.6832 23.21C25.3191 22.3541 27.1186 23.3207 28.4641 24.2743C29.3008 24.869 30.0961 25.5313 30.8499 26.2367Z" fill="#FFB506"/>
<path d="M20.1151 40.0444C21.0026 41.2385 20.9511 42.8075 20.3779 44.123C19.7716 45.5145 18.5853 46.5257 17.2959 47.2687C16.7289 47.5945 16.0911 47.9219 15.4249 48.1716C15.2274 48.2461 15.0277 48.313 14.8256 48.3706C14.1141 48.5773 13.3841 48.6726 12.6856 48.5642C11.3602 48.3614 10.3913 47.2534 9.84033 46.1062C9.19412 44.7592 9.2118 43.1756 9.31476 41.7064C9.49225 41.8832 9.71816 42.0376 9.86722 42.1675C10.0985 42.368 10.3259 42.5755 10.558 42.7783C10.3306 42.8982 10.0931 43.0058 9.8434 43.101C9.64132 43.1779 9.649 43.5421 9.89873 43.5098C10.3083 43.4576 10.6863 43.3431 11.0398 43.184C11.2357 43.0964 11.4247 42.995 11.6068 42.8813C13.3365 41.8148 14.5513 39.7524 16.4553 38.9695C17.8261 38.4039 19.2468 38.8765 20.1151 40.0444Z" fill="#F2E8C4"/>
<path d="M51.4651 28.4434C52.0506 29.022 52.1828 29.9256 52.1328 30.7079C52.0414 32.1755 51.1009 33.7921 50.1274 34.8594C49.213 35.8629 47.7953 36.4238 46.5037 35.8291C46.4883 35.8222 46.4737 35.8145 46.4576 35.8076C46.2401 35.7023 46.0595 35.5632 45.9128 35.3965C45.5839 35.0292 45.4226 34.5344 45.3841 34.0196C45.358 33.653 45.4026 33.2789 45.4579 32.9169C45.4694 32.8432 45.4825 32.7709 45.494 32.7026C46.4314 32.5174 47.3135 31.9695 48.022 31.3763C49.1123 30.4627 49.9422 29.1734 50.268 27.7896C50.7098 27.9025 51.1063 28.0884 51.4651 28.4434Z" fill="#F2E8C4"/>
<path d="M49.4884 24.889C49.8387 25.7481 49.8848 26.6279 49.7089 27.4708C49.6951 27.5392 49.6797 27.6083 49.662 27.676C49.3355 28.9791 48.491 30.1786 47.4545 31.0453C46.8759 31.5286 46.1728 31.9105 45.4305 32.0603L45.0886 32.1133L45.0817 32.1141C44.7651 32.1456 44.4439 32.1326 44.1258 32.0672C42.8088 31.796 42.0312 30.6481 42.2933 29.3349C42.6521 27.5323 44.6506 26.226 45.1286 24.4856C45.2569 24.0215 45.2761 23.5267 45.1263 22.9827C45.1032 22.8974 45.0318 22.8582 44.9588 22.8582C45.0064 22.8352 45.0548 22.8144 45.1032 22.7944C45.2385 22.7376 45.3775 22.6876 45.5258 22.6508C46.0376 22.5224 46.5839 22.5601 47.0926 22.6792C48.2198 22.9435 49.0604 23.8433 49.4884 24.889Z" fill="#F2E8C4"/>
<path d="M18.9934 6.81349C19.1502 7.80085 19.2001 8.80436 19.1709 9.80326C19.1678 9.95539 19.1617 10.1083 19.1533 10.2597C19.1463 10.4072 19.1363 10.5547 19.1264 10.703C19.0772 11.37 18.9773 12.03 18.8497 12.6854C18.7975 12.9498 18.723 13.2141 18.6507 13.4784C16.6122 13.775 14.5898 14.4635 12.7688 15.3156C11.8974 15.7236 11.0576 16.2 10.2554 16.7333C9.95036 16.9361 9.65069 17.1459 9.35794 17.3649C9.20119 17.5785 9.06288 17.8052 8.93149 17.9903C8.71634 18.2931 8.51502 18.6058 8.32677 18.9262C8.13775 19.2443 7.96179 19.5694 7.79505 19.899C7.66673 19.8352 7.53841 19.7807 7.40702 19.7284C7.32864 19.6962 7.24873 19.6669 7.16959 19.637C7.08507 19.6055 6.99978 19.5755 6.91602 19.5432C6.85225 19.5202 6.79001 19.4971 6.72777 19.4733C6.44654 19.3665 6.16916 19.2466 5.90637 19.0845C5.22789 18.6642 4.71461 18.0149 4.43646 17.2704C4.17521 16.5696 4.22208 15.8066 4.55479 15.1412C4.65545 14.9383 4.79222 14.7593 4.94667 14.5964C5.95017 14.8984 7.32019 14.8515 7.88803 13.9671C7.9349 13.8933 7.85806 13.8226 7.78583 13.8342C7.24489 13.9195 6.75313 14.1246 6.19528 14.1523C5.98552 14.163 5.77498 14.1492 5.56905 14.1146C5.29858 14.0685 5.03426 13.9879 4.78454 13.8764C4.70616 13.8419 4.63086 13.805 4.5571 13.7643C3.46139 13.1741 3.00958 11.8264 3.23779 10.6531C3.49596 9.32994 4.72768 8.57923 5.86565 8.07363C6.51339 7.78626 7.19264 7.56189 7.87035 7.35366C8.19077 7.25454 8.51349 7.16771 8.83774 7.08549C9.56386 7.79317 10.4406 8.34487 11.2428 8.64146C11.3895 8.69525 11.4933 8.48932 11.3903 8.38866C10.8286 7.84081 10.1755 7.41513 9.57693 6.91646H9.57616C9.38176 6.75433 9.1935 6.58451 9.01678 6.40164C8.95454 6.33786 8.89384 6.27255 8.83544 6.2057C8.04247 5.29902 7.62063 3.919 8.15004 2.78257C8.63873 1.73373 9.91732 1.35645 10.9469 1.11288C12.3077 0.78939 13.7408 0.775562 15.0816 1.19279C16.2203 1.54778 17.2039 2.27851 17.8524 3.27741C18.5339 4.32087 18.8006 5.60175 18.9934 6.81349Z" fill="#F33A40"/>
<path d="M11.2922 28.8553C10.5446 28.6709 9.75624 28.7961 9.07315 29.1327C8.31706 29.5061 7.63474 30.4581 7.47338 31.4048C7.39423 31.1405 7.31432 30.8777 7.24747 30.6141C7.07075 29.9141 6.93474 29.2049 6.84561 28.488C6.66427 27.0304 6.71729 25.5736 6.97009 24.1282C7.20752 22.7736 7.65625 21.4604 8.25866 20.2256C8.53989 19.6493 8.86722 19.0969 9.21991 18.5613C9.3974 18.2916 9.58719 18.0296 9.7839 17.7737C9.94065 17.6638 10.1005 17.5555 10.2603 17.4479C11.0686 16.9078 11.9138 16.4268 12.7852 15.9949C13.9962 15.3941 15.2701 14.9307 16.5748 14.5796C17.2103 14.409 17.8481 14.2853 18.4889 14.1908C18.5119 14.1869 18.535 14.1839 18.5573 14.18C18.7578 14.15 18.9599 14.1232 19.162 14.0978C19.2411 13.8711 19.2995 13.6322 19.3472 13.394C19.3979 13.1465 19.4409 12.8999 19.4862 12.6648C19.6245 11.9555 19.7091 11.2348 19.7621 10.5133C19.7705 10.4011 19.7775 10.2889 19.7828 10.176C20.0748 10.1399 20.3699 10.1107 20.668 10.0999C21.4087 10.0753 22.1494 10.1606 22.8756 10.3005C24.367 10.5878 25.7754 11.2064 27.0709 11.9886C29.6312 13.5346 31.7849 15.822 33.679 18.1095C35.6576 20.4976 37.1905 23.5827 36.1486 26.7131C35.5216 28.5948 34.1646 29.9495 32.6724 31.1658H32.6716C32.4419 31.3541 32.2075 31.5385 31.974 31.7206H31.9732C31.3062 32.2408 30.6301 32.7441 29.9969 33.2666C29.8555 33.3834 30.0353 33.5878 30.1844 33.5102C31.2256 32.9608 32.2552 32.3169 33.1957 31.5662H33.1964C34.8646 31.2019 36.4336 30.2553 37.6707 29.1312C38.5359 28.3436 39.3066 27.3808 39.7085 26.2728C40.1587 25.0326 39.7223 23.7333 39.2252 22.5853C38.6958 21.3621 38.0288 20.1065 38.3968 18.7388C38.7434 17.4541 40.1603 17.149 41.2875 17.4864C42.4939 17.846 43.2538 19.0761 43.6987 20.1734C43.996 20.9064 44.1874 21.6756 44.3818 22.4432C44.434 22.6514 44.487 22.8596 44.5416 23.0663C44.6023 23.2922 44.6645 23.5166 44.7337 23.7394C44.5062 25.0764 43.5458 26.0999 42.7282 27.1833C41.9222 28.2514 41.2906 29.6621 41.8461 30.9876C42.2895 32.0456 43.3929 32.6196 44.4817 32.7479C44.6054 32.7625 44.7291 32.7687 44.8528 32.7687C44.842 32.8486 44.8343 32.9277 44.8244 33.0046C44.7621 33.4771 44.7245 33.9597 44.8074 34.4314C44.8904 34.9025 45.0687 35.3197 45.343 35.6685C44.8851 35.8798 44.4217 36.0781 43.953 36.2663C42.7474 36.752 41.5065 37.1484 40.2486 37.4758C38.9585 37.8116 37.64 38.0559 36.3176 38.2265C35.6153 38.3171 34.8807 38.3348 34.1562 38.3863C33.941 38.4017 33.7259 38.4209 33.513 38.4447C33.1365 38.4877 32.7669 38.55 32.4081 38.6445C32.3405 38.6629 32.3435 38.7597 32.4081 38.7789C32.8284 38.9019 33.2756 38.9587 33.7312 38.9756C33.8304 39.2308 33.9195 39.4905 33.9994 39.7525C34.3905 41.0265 34.485 42.3803 34.2015 43.6858C33.7013 45.9802 31.9117 47.7698 29.9162 48.8701C27.4912 50.2078 24.6136 50.4499 21.8966 50.4276C21.64 50.4253 21.3811 50.4237 21.1206 50.4191C20.9416 50.4161 20.7618 50.4122 20.5819 50.4053C19.6 50.373 18.6149 50.2847 17.6805 50.0073C17.2065 49.8659 16.7685 49.6408 16.3789 49.3426C16.2544 49.2489 16.1353 49.1459 16.0208 49.0368C15.9125 48.9339 15.8188 48.8224 15.735 48.7049C15.8795 48.6511 16.0231 48.5935 16.1645 48.5335C16.7723 48.2738 17.3532 47.9626 17.8811 47.6445C18.4958 48.1155 19.487 47.9296 20.1501 47.6599C21.033 47.3018 21.7783 46.6018 22.4115 45.908C23.2928 44.9429 23.9605 43.7903 24.39 42.5555C24.397 42.5348 24.4046 42.514 24.4116 42.4918C24.4531 42.3711 24.4915 42.2505 24.5284 42.1291C24.5668 42 24.6021 41.8709 24.6352 41.741C24.4753 41.5167 24.314 41.2915 24.1526 41.0672C23.209 39.7502 22.2655 38.4324 21.3211 37.1154C20.7203 36.2763 20.1186 35.4365 19.5177 34.5974C19.079 33.9835 18.6449 33.2589 18.1178 32.6711C18.1039 32.6565 18.0916 32.6419 18.0786 32.6288C17.9134 32.4475 17.7374 32.28 17.5499 32.1348C17.543 32.1286 17.5346 32.1232 17.5261 32.1194C17.3232 31.673 17.0635 31.2557 16.7769 30.8585C16.3067 30.2054 15.7242 29.6314 15.0634 29.1696C15.2425 29.1143 15.4131 29.0405 15.5491 28.9783C16.1307 28.7109 16.6079 28.1346 16.8246 27.5406C17.3179 26.1783 16.9506 24.4971 15.9709 23.4382C15.088 22.4847 13.5651 22.3617 12.4655 22.9757C11.5827 23.469 10.689 24.9688 11.2192 25.9777C10.832 25.8725 10.4363 25.8433 10.0428 25.9985C9.55261 26.1929 9.26447 26.617 9.26063 27.1357C9.25218 28.12 10.6368 28.9675 11.5197 28.5334C11.5819 28.6924 11.6664 28.8422 11.751 28.9921C11.585 28.9321 11.4244 28.8876 11.2922 28.8553ZM33.4869 23.8724C34.1546 22.4163 33.3463 20.483 32.3435 19.3758C31.2709 18.1917 29.4675 18.6966 28.6307 19.8583C27.8362 20.9617 27.9815 22.4893 28.6392 23.6395C28.6353 23.6365 28.6323 23.6342 28.6277 23.6311C27.2169 22.6307 25.4589 21.8776 23.7438 22.5192C22.2324 23.084 21.0691 24.5455 20.1309 25.7941C19.3572 26.8252 18.6994 27.9678 18.2438 29.1811C18.2053 29.2833 18.1692 29.3847 18.1324 29.4877C18.2553 29.5407 18.3798 29.5899 18.5066 29.6344C19.56 30.014 20.751 30.1631 21.8359 30.296C23.2613 30.4697 24.7174 30.432 26.1181 30.1108C27.2553 29.8511 28.3318 29.3294 29.2816 28.6609C30 28.1553 30.8014 27.4738 31.337 26.7031C31.4607 26.5256 31.5698 26.3435 31.6612 26.1583L31.652 26.1491L31.556 26.0584L31.2317 25.7534C31.0073 25.5451 30.7791 25.3415 30.5471 25.1417C31.715 25.3715 32.9367 25.0741 33.4869 23.8724Z" fill="#F2E8C4"/>
<g opacity="0.25">
<path opacity="0.25" d="M51.735 27.9509C51.3723 27.6151 50.8598 27.3685 50.355 27.3516C50.5025 26.4049 50.4088 25.4283 49.9984 24.5109C49.1432 22.5968 46.9019 21.4112 44.9371 22.1696C44.4346 20.2694 43.919 18.3385 42.171 17.2151C41.3157 16.6649 40.1509 16.5735 39.2181 16.9585C38.1416 17.4034 37.6752 18.4914 37.6629 19.5986C37.6475 20.9341 38.3974 22.1458 38.8769 23.3468C39.1858 24.1228 39.3748 24.9465 39.2058 25.7764C39.0559 26.5125 38.598 27.1756 38.1347 27.7496C37.0881 29.0466 35.7819 29.9195 34.3381 30.5496C35.2079 29.6844 35.9463 28.697 36.4673 27.5767C36.7646 26.9382 36.9498 26.2851 37.0397 25.6273C37.3348 23.4574 36.5864 21.2483 35.3808 19.3704C34.5701 18.1064 33.5566 16.9792 32.5393 15.8804C31.5335 14.7947 30.4747 13.7574 29.3229 12.8261C27.093 11.0204 24.4536 9.71494 21.5507 9.57894C20.9867 9.55281 20.3843 9.56664 19.8034 9.66346C19.8272 8.40178 19.7035 7.13856 19.4645 5.89993C19.2064 4.56602 18.7392 3.269 17.8425 2.22784C16.9904 1.23663 15.7195 0.643439 14.457 0.392947C13.0217 0.107109 11.5057 0.296894 10.1141 0.704904C8.96463 1.04222 7.93577 1.67768 7.4855 2.82871C6.96838 4.15109 7.46783 5.48731 8.36453 6.56688C8.0833 6.64141 7.80515 6.72363 7.52699 6.80892C6.70329 7.06249 5.88727 7.36677 5.11044 7.74174C3.76423 8.39409 2.72923 9.46214 2.5694 10.992C2.42572 12.3512 3.16106 13.6967 4.3459 14.3437C4.24678 14.4697 4.16302 14.5934 4.09541 14.6994C3.63591 15.4225 3.57291 16.3076 3.75117 17.126C3.94634 18.0265 4.54798 18.8118 5.26258 19.3689C5.56301 19.6032 5.94105 19.8399 6.34445 20.0166C6.3967 20.0404 6.44819 20.0627 6.5012 20.0835C6.5304 20.095 6.55806 20.1065 6.58726 20.1165C6.67332 20.1488 6.76015 20.1772 6.84621 20.2018C7.09824 20.2748 7.3518 20.3163 7.59538 20.314C7.05213 21.4781 6.66641 22.7144 6.43051 23.9768C6.15697 25.4322 6.127 26.9428 6.29221 28.4119C6.04863 28.0024 5.65445 27.6436 5.23568 27.5114C4.19376 27.1841 3.48839 28.07 3.52988 28.9736C3.33625 28.9667 3.14569 28.9844 2.99201 29.0128C2.375 29.1296 1.85327 29.7774 1.82561 30.3967C1.79718 31.049 2.17522 31.5761 2.73384 31.8896C3.17565 32.1386 4.14612 32.3099 4.68552 32.0387C4.73931 32.1025 4.7954 32.1632 4.85303 32.2239C5.09046 32.4759 5.32866 32.7395 5.58914 32.97C5.45774 33.4456 5.50308 33.9658 5.68288 34.4353C5.87805 34.9478 6.31218 35.5402 6.81394 35.9344C6.50812 36.0204 6.21076 36.1334 5.92876 36.2809C5.90187 36.2955 5.87574 36.3101 5.84962 36.3255C5.60758 36.2648 5.36246 36.2087 5.11812 36.1572C5.0943 36.1518 5.07048 36.1465 5.04512 36.1418C5.12427 35.6071 4.81768 34.8978 4.5257 34.5452C4.06467 33.9865 3.42538 33.7199 2.70925 33.8782C1.97468 34.0403 1.61738 34.7688 1.68116 35.4634C1.7142 35.8245 1.90783 36.2802 2.19597 36.6129C2.0131 36.669 1.8379 36.7427 1.68116 36.8449C1.52441 36.9456 1.38686 37.0747 1.2816 37.2414C0.960414 37.747 1.02342 38.3056 1.39378 38.7712C1.78719 39.2653 2.24976 39.5857 2.89827 39.4267C3.32242 39.3229 3.89793 38.3917 3.92483 38.3917C4.15764 38.407 4.39431 38.4093 4.62866 38.4063C4.82306 38.4032 5.02515 38.4178 5.21955 38.3924C5.33788 38.709 5.52229 39.0156 5.74358 39.2838C6.17311 39.8032 6.67947 40.2266 7.26037 40.5662C7.61843 40.7759 7.98725 40.892 8.36376 40.9988C8.48747 41.0341 8.61118 41.0687 8.73642 41.1048C8.7272 41.1817 8.71875 41.2577 8.7126 41.3346C8.70108 41.4575 8.69263 41.5812 8.68648 41.7049C8.67188 41.9838 8.6665 42.2612 8.65728 42.534C8.62885 43.3393 8.68341 44.1415 8.82863 44.9329C9.0553 46.16 9.66386 47.3156 10.5805 48.1647C11.8768 49.3664 13.5265 49.3826 15.1055 48.9154C15.3015 49.2074 15.555 49.4717 15.8324 49.7007C15.9139 50.0265 15.9968 50.3515 16.0791 50.6773C16.1075 50.7895 16.1344 50.9047 16.1605 51.0238C15.5958 51.3581 15.0671 51.9321 14.6668 52.3524C14.1881 52.8541 13.7148 53.4404 13.4112 54.0805C13.3505 54.2065 13.2968 54.334 13.2514 54.4646C12.6774 56.0936 14.7697 56.3357 16.0368 56.0352C16.0368 56.0352 16.0368 56.0352 16.0376 56.0352C16.1782 56.3549 16.3442 56.6553 16.4694 56.8943C16.7583 57.4467 17.3169 58.0845 18.0169 57.9416C18.7469 57.794 19.1864 57.1417 19.5229 56.5277C19.5875 56.4102 19.662 56.2611 19.7366 56.0975C20.4127 56.736 21.5837 56.9227 22.2154 56.1482C22.6472 55.6195 22.4213 54.9019 22.1354 54.3701C21.9894 54.0989 21.8335 53.8177 21.6683 53.5372C21.3509 52.9932 20.9982 52.4515 20.6179 51.9928C20.6033 51.9751 20.5879 51.9613 20.5718 51.949C20.7063 51.6409 20.8423 51.3335 20.9736 51.0246C21.0274 51.0269 21.082 51.0277 21.135 51.03C22.9107 51.0868 24.7249 51.03 26.4745 50.6942C26.4922 50.7465 26.5175 50.8033 26.5459 50.8709C26.6988 51.2321 26.8571 51.5894 27.0139 51.9482C26.9985 51.9597 26.9824 51.9743 26.967 51.9928C26.758 52.2448 26.569 52.5191 26.39 52.8011C26.0934 53.2683 25.8244 53.76 25.5401 54.2188C25.199 54.7712 24.9001 55.5719 25.3696 56.1482C26.0027 56.925 27.1829 56.7352 27.8576 56.0913C27.9021 56.195 27.9459 56.2903 27.9844 56.3733C28.2902 57.0418 28.8042 57.7871 29.5688 57.9416C30.2273 58.076 30.7321 57.5236 31.0425 57.0241C31.1693 56.8213 31.2753 56.6038 31.3714 56.381C31.4351 56.3226 31.4743 56.2304 31.472 56.1366C31.4866 56.1005 31.502 56.0652 31.5158 56.0283C32.7237 56.3349 34.7507 56.1758 34.3742 54.6268C34.1752 53.8092 33.5812 53.0969 33.0341 52.4776C32.7629 52.171 32.4632 51.8898 32.1513 51.6239C32.1136 51.5917 32.0767 51.5594 32.0391 51.5279C31.8478 51.3681 31.6418 51.186 31.4205 51.04C31.449 50.9163 31.4766 50.7949 31.5066 50.6773C31.6242 50.2094 31.744 49.7399 31.8601 49.2719C31.9507 48.9077 32.086 48.6388 31.91 48.2976C31.9077 48.2938 31.9062 48.2907 31.9039 48.2861C33.2155 47.2042 34.2443 45.7866 34.7246 44.143C35.1095 42.8252 35.0412 41.4152 34.7338 40.0913C34.6454 39.711 34.5279 39.3383 34.3926 38.9718C35.0504 38.948 35.7096 38.8665 36.3205 38.8043C37.6414 38.6691 38.9468 38.4301 40.2362 38.1135C41.5593 37.7893 42.8556 37.3636 44.1211 36.8618C44.6943 36.6351 45.2598 36.3862 45.8185 36.1257C45.9207 36.2041 46.0305 36.2748 46.1473 36.3393C47.6203 37.1515 49.3446 36.4976 50.4579 35.408C51.7273 34.1671 52.73 32.1563 52.74 30.369C52.7439 29.4669 52.3996 28.5702 51.735 27.9509ZM5.58299 30.7324C5.57454 30.7355 5.56762 30.7394 5.55917 30.7447C5.37476 30.86 5.24644 31.059 5.10736 31.2234C5.01132 31.3379 4.9022 31.4624 4.83459 31.6007C4.51187 31.4647 3.85337 31.5792 3.66819 31.5661C3.19871 31.5346 2.75305 31.3218 2.50563 30.9222C2.21979 30.4597 2.51715 29.9011 2.93131 29.6529C3.20562 29.4884 3.4515 29.5376 3.69508 29.6175C3.79266 29.6498 3.88948 29.6859 3.9886 29.7167C4.02087 29.5015 4.01012 29.2787 4.01319 29.0558C4.01549 28.9414 4.02164 28.8284 4.03931 28.7147C4.14612 28.0285 4.74776 27.841 5.30714 28.1945C5.66213 28.4181 5.84808 28.8361 5.93952 29.2257C6.01713 29.5553 5.60066 30.359 5.58299 30.7324ZM4.27444 36.9402C4.25139 37.2691 4.21604 37.601 4.21604 37.9306C4.09541 37.9491 3.97784 37.9691 3.8672 37.986C3.76347 38.0029 3.39772 38.3778 3.24942 38.533C2.84141 38.9557 2.41419 38.9879 2.00003 38.5738C1.62045 38.1934 1.52671 37.7147 1.99312 37.3597C2.23746 37.1738 3.17412 37.1369 3.26095 36.9686C3.27324 36.9456 2.52484 36.1334 2.42341 35.9582C2.09685 35.3873 2.18521 34.6673 2.86216 34.4437C3.37005 34.2755 3.86182 34.6358 4.13229 35.0308C4.35665 35.3573 4.33514 35.7338 4.39661 36.0835C4.40737 36.1395 4.41966 36.1956 4.43503 36.251C4.27136 36.4515 4.29442 36.6736 4.27444 36.9402ZM7.40789 19.7277C7.32952 19.6954 7.24961 19.6662 7.17046 19.6363C7.08594 19.6048 7.00065 19.5748 6.9169 19.5425C6.85312 19.5195 6.79088 19.4964 6.72864 19.4726C6.44742 19.3658 6.17003 19.2459 5.90725 19.0838C5.29177 18.7019 4.81384 18.131 4.52263 17.4725C5.20725 17.1021 5.82426 16.6342 6.36828 16.0764C6.78243 15.653 7.35718 15.0444 7.43171 14.4174C7.61305 14.3006 7.7698 14.1531 7.89044 13.9656C7.93731 13.8919 7.86047 13.8212 7.78824 13.8327C7.2473 13.918 6.75554 14.1231 6.19769 14.1508C5.98793 14.1616 5.77739 14.1477 5.57146 14.1131C5.30099 14.067 5.03667 13.9864 4.78695 13.8749C4.70857 13.8404 4.63327 13.8035 4.55951 13.7628C3.4638 13.1727 3.01199 11.8249 3.2402 10.6516C3.31934 10.2451 3.49069 9.8932 3.72351 9.58431C3.72889 9.59507 3.7358 9.60429 3.74349 9.61274C4.07466 10.0038 4.88837 9.84249 5.35401 9.83327C6.00176 9.81867 6.64566 9.75028 7.28649 9.65654C7.96266 9.55742 8.62501 9.39836 9.27967 9.20473C9.79371 9.05182 10.5022 8.88816 10.924 8.50858C11.0308 8.55622 11.1384 8.60001 11.2444 8.63997C11.3912 8.69376 11.4949 8.48784 11.3919 8.38718C10.8303 7.83932 10.1771 7.41364 9.57857 6.91496H9.5778C9.3834 6.75283 9.19515 6.58301 9.01842 6.40014C8.95618 6.33636 8.89548 6.27106 8.83708 6.20421C8.04411 5.29752 7.62227 3.9175 8.15169 2.78107C8.64038 1.73223 9.91896 1.35496 10.9486 1.11138C12.3094 0.787893 13.7424 0.774065 15.0832 1.1913C16.222 1.54629 17.2055 2.27702 17.854 3.27591C18.5333 4.32014 18.8007 5.60103 18.9928 6.81277C19.1495 7.80014 19.1995 8.80364 19.1703 9.80253C19.1672 9.95467 19.161 10.1076 19.1526 10.259C19.1457 10.4065 19.1357 10.554 19.1257 10.7023C19.0765 11.3693 18.9766 12.0293 18.8491 12.6847C18.7968 12.949 18.7223 13.2134 18.6501 13.4777C16.6116 13.7743 14.5892 14.4628 12.7681 15.3149C11.8968 15.7229 11.0569 16.1993 10.2547 16.7326C9.9497 16.9354 9.65003 17.1452 9.35727 17.3642C9.20052 17.5778 9.06222 17.8044 8.93082 17.9896C8.71568 18.2924 8.51436 18.6051 8.32611 18.9255C8.13709 19.2436 7.96113 19.5686 7.79439 19.8983C7.66761 19.8345 7.53852 19.7792 7.40789 19.7277ZM12.0543 26.3473C11.8983 26.03 12.075 25.7211 12.3924 25.6089C12.8012 25.4652 13.1715 25.8179 13.3121 26.159C13.4643 26.524 13.1777 27.2225 13.1661 27.244C13.0778 27.4077 13.1223 27.6051 13.1876 27.7903C13.1646 27.7895 13.14 27.7911 13.1147 27.7995C12.8227 27.8933 12.5391 28.0201 12.2541 28.1338C12.1304 28.183 12.0005 28.2283 11.8868 28.2975C11.8422 28.2544 11.7953 28.2152 11.7477 28.1791C11.6832 28.1299 10.3723 28.0854 9.98581 27.4876C9.73532 27.0995 9.90436 26.6577 10.3385 26.5271C10.7995 26.3888 11.2921 26.6232 11.7085 26.7968C11.9828 26.9098 12.158 26.5571 12.0543 26.3473ZM10.8771 34.0342C11.6278 33.1843 12.8204 33.0822 13.7378 33.6969C14.374 34.1241 14.7475 34.8149 15.0141 35.5433C14.487 36.1657 13.9092 36.7435 13.2991 37.2837C12.7989 37.7247 12.2671 38.1266 11.7147 38.4985C11.2982 38.1896 10.9471 37.7908 10.6774 37.3513C10.0557 36.3386 10.0757 34.9393 10.8771 34.0342ZM8.11941 31.2672C8.13094 31.2204 8.14323 31.1735 8.15783 31.1259C8.35531 30.4989 8.82171 29.9871 9.38494 29.6675C9.9059 29.3732 10.5529 29.3401 11.1276 29.4523C11.4365 29.5138 11.7216 29.6437 11.9913 29.805C12.0881 29.8642 12.1619 29.9257 12.2349 29.9779C12.1888 30.3275 12.1757 30.684 12.1427 31.0275C12.1181 31.2872 12.072 31.5715 12.0481 31.8566C12.0136 31.8328 11.9721 31.8182 11.9252 31.8182C11.4957 31.8159 11.0577 31.988 10.6558 32.2362C9.94662 31.6914 9.00459 31.2181 8.11941 31.2672ZM14.8481 32.6173C14.301 32.2354 13.369 31.8697 12.6459 32.0287C12.7366 31.4954 12.7312 30.9076 12.7804 30.4374C12.8311 29.9456 12.7988 29.3378 13.3721 29.1642C13.4927 29.1281 13.6156 29.1258 13.7401 29.1473C13.7732 29.1826 13.8185 29.2111 13.8754 29.2264C13.9168 29.238 13.9606 29.2372 14.0044 29.2287H14.0052C14.006 29.2287 14.006 29.2287 14.006 29.2287C14.298 29.3494 14.5769 29.5637 14.7943 29.7205C15.4321 30.1815 15.9784 30.7839 16.4225 31.4286C16.6323 31.7337 16.8083 32.0587 16.9696 32.3899C16.9934 32.4398 17.0157 32.492 17.0365 32.5435C17.0226 32.5604 17.0103 32.5781 17.0011 32.5988C16.6869 33.0545 16.411 33.5309 16.1229 34.0004C15.8094 33.4548 15.386 32.9923 14.8481 32.6173ZM6.54039 30.0348C6.66333 30.6218 6.83161 31.2081 7.07288 31.7406C7.03446 31.7413 6.99604 31.7459 6.95839 31.7513C6.94302 31.7214 6.91997 31.6945 6.8877 31.6722C6.65565 31.3364 6.40208 31.0129 6.14083 30.6994C6.36443 30.5673 6.48507 30.3175 6.54039 30.0348ZM6.27991 34.5313C6.02404 34.091 5.9326 33.5355 6.08782 33.0576C6.12854 33.0099 6.15313 32.9485 6.15543 32.8847C6.21383 32.761 6.29144 32.6442 6.38979 32.5381C6.64566 32.2623 6.98067 32.1908 7.32568 32.23C7.37793 32.2354 7.43094 32.2439 7.48396 32.2546C7.56003 32.2692 7.6361 32.2892 7.7114 32.313C7.81129 32.3445 7.91041 32.3814 8.00569 32.4229C8.23698 32.522 8.45059 32.6442 8.62654 32.7579C8.90393 32.9369 9.16672 33.1321 9.43488 33.3173C9.02072 33.829 8.39449 34.9024 8.55585 35.6278C8.34224 35.6485 8.13555 35.6777 7.9473 35.7046C7.7552 35.7331 7.56234 35.763 7.37178 35.8015H7.37101C7.03292 35.3696 6.56421 35.0169 6.27991 34.5313ZM8.38451 40.3971C8.38066 40.3964 8.37605 40.3941 8.37221 40.3918C8.01415 40.212 7.63687 40.0798 7.29878 39.8662C6.60186 39.4282 5.92799 38.7275 5.68365 37.9291C5.55226 37.5003 5.67135 37.1884 5.94029 36.9579C6.09319 36.8265 6.29605 36.7204 6.52887 36.6352C7.16355 36.4008 8.02567 36.3124 8.75563 36.2371C8.52435 36.9102 8.65498 37.7339 8.83554 38.3917C8.97155 38.888 9.20206 39.3568 9.50019 39.7786C9.11984 39.9715 8.74257 40.1712 8.38451 40.3971ZM21.0313 53.6194C21.0405 53.634 21.0497 53.6494 21.0597 53.664C21.377 54.1727 21.8358 54.7236 21.9126 55.3345C22.0064 56.0875 21.1473 56.2058 20.6279 56.0483C20.3659 55.9691 20.1392 55.8155 19.9025 55.6787C20.07 55.1961 20.1584 54.6698 19.9417 54.3386C19.8987 54.2741 19.8003 54.2495 19.7442 54.3125C19.4937 54.5937 19.45 55.0648 19.3531 55.4597C19.3316 55.4705 19.3155 55.492 19.3262 55.5166C19.3285 55.5219 19.3316 55.5273 19.3332 55.5335C19.3193 55.5834 19.3047 55.6326 19.2871 55.6795C19.2694 55.7271 19.2509 55.7763 19.2317 55.8239C19.075 55.545 18.8621 55.2884 18.6992 55.0156C18.4142 54.54 18.1906 54.0313 18.0054 53.5111C17.665 52.5529 17.6404 51.5786 17.4668 50.5951C18.3596 50.8886 19.3301 50.9654 20.2767 51.0031C20.203 51.209 20.1446 51.4126 20.0831 51.5594C19.9294 51.9298 19.7827 52.3024 19.6482 52.6797C19.5591 52.9302 19.4722 53.1062 19.6328 53.3236C19.6397 53.3328 19.6513 53.3436 19.6643 53.3413C19.9878 53.2998 20.1945 52.9025 20.3474 52.5206C20.5487 52.9002 20.8031 53.2583 21.0313 53.6194ZM19.9517 42.428C19.5014 42.8575 19.0158 43.2478 18.5087 43.6097C17.5505 44.2951 16.4886 44.8591 15.3821 45.2618C13.2729 46.0301 10.9924 45.8442 9.3373 44.3174C9.22588 43.4538 9.25508 42.5617 9.31578 41.7065C9.49328 41.8832 9.71918 42.0369 9.86825 42.1675C10.0995 42.368 10.327 42.5755 10.559 42.7784C10.3316 42.8982 10.0942 43.0058 9.84443 43.1011C9.64234 43.1779 9.65003 43.5421 9.89975 43.5098C10.3093 43.4576 10.6873 43.3431 11.0408 43.1841C11.2367 43.0965 11.4258 42.995 11.6079 42.8813C13.3375 41.8148 14.5523 39.7525 16.4563 38.9695C17.8264 38.4055 19.2471 38.878 20.1161 40.046C20.4773 40.5316 20.6809 41.0802 20.7593 41.6481C20.4442 41.8125 20.1937 42.1974 19.9517 42.428ZM22.9607 44.123C22.754 43.8456 22.5519 43.5621 22.356 43.2763C22.0609 42.8421 21.8035 42.2466 21.4132 41.854C21.3863 41.5236 21.324 41.1893 21.2188 40.8543C20.8745 39.754 20.0247 38.8081 18.9674 38.3571C17.7972 37.8569 16.5378 38.1596 15.4736 38.7689C15.2922 38.8719 15.1186 38.9856 14.9495 39.1063C14.8666 39.0586 14.7767 39.021 14.7144 38.9925C14.5154 38.9042 14.2841 38.7697 14.0552 38.7451C14.2227 38.6045 14.3879 38.4608 14.5492 38.3148C14.9495 37.9506 15.3253 37.5618 15.678 37.1523C15.7156 37.1092 15.7517 37.0662 15.7886 37.0232C15.9146 36.9886 16.0207 36.8879 16.0184 36.7458C16.2796 36.42 16.527 36.0835 16.7622 35.7392C17.0895 35.2598 17.3792 34.7549 17.6443 34.2393C17.7349 34.0626 17.8863 33.8183 18.0054 33.5632C18.2866 33.9689 18.5955 34.3592 18.8667 34.7403C19.1219 35.0984 19.3777 35.4549 19.6321 35.8114C20.0178 36.3501 20.4035 36.8879 20.7885 37.4266C21.845 38.9026 22.9007 40.3795 23.958 41.8555C23.7268 42.6523 23.3917 43.413 22.9607 44.123ZM31.9953 52.3009C32.4901 52.7419 32.9281 53.2483 33.3146 53.7862C33.7503 54.3947 34.1906 55.2476 33.2009 55.5596C32.706 55.7163 32.1828 55.6841 31.6756 55.5957C31.7901 55.2745 31.8793 54.9257 31.7648 54.6045C31.7287 54.5023 31.5973 54.4524 31.5143 54.5392C31.2822 54.7804 31.167 55.1301 31.0625 55.4781C31.0471 55.5304 31.031 55.5811 31.0156 55.6334C30.2134 54.9541 29.5534 54.1465 29.0286 53.2283C28.7466 52.7343 28.5261 52.2048 28.3432 51.667C28.1941 51.2298 28.1227 50.7611 27.9674 50.3261C28.6467 50.1225 29.3113 49.8674 29.9552 49.547C30.3218 49.3649 30.6791 49.1597 31.0225 48.9346C31.1086 48.9431 31.1962 48.95 31.2822 48.9554H31.293C31.2822 49.0053 31.2723 49.0553 31.2584 49.1083C31.1416 49.5778 31.0287 50.0465 30.9142 50.5167C30.8927 50.6058 30.8681 50.698 30.8435 50.7903C30.7997 50.9539 30.7528 51.1207 30.706 51.292C30.6445 51.5187 30.583 51.7484 30.5346 51.9797C30.4439 52.3969 30.3909 52.8149 30.4339 53.2114C30.4478 53.3374 30.5984 53.3874 30.6721 53.276C30.9518 52.8618 31.1155 52.3478 31.2415 51.8268C31.2477 51.8022 31.253 51.7776 31.2592 51.753C31.2838 51.7707 31.3091 51.7884 31.3337 51.8061C31.5619 51.9674 31.7955 52.1242 31.9953 52.3009ZM41.9504 33.1075C41.3595 33.9112 40.6649 34.6397 39.9219 35.3035C39.1712 35.9736 38.3406 36.5153 37.4984 37.0601C36.7308 37.5549 35.8556 37.8991 35.0458 38.3325C34.7492 38.3502 34.4526 38.3655 34.1575 38.3863C33.9424 38.4017 33.7272 38.4209 33.5144 38.4447C33.1379 38.4877 32.7683 38.5499 32.4095 38.6445C32.3418 38.6629 32.3449 38.7597 32.4095 38.7789C32.8298 38.9019 33.277 38.9587 33.7326 38.9756C33.8317 39.2307 33.9209 39.4905 34.0008 39.7525C34.3919 41.0264 34.4864 42.3803 34.2029 43.6858C33.7826 45.6152 32.4502 47.1873 30.8489 48.293C29.3928 48.0894 28.0589 47.5108 26.8679 46.6264C26.2271 46.1508 25.6554 45.556 25.1736 44.9214C24.7764 44.3958 24.5243 43.7427 24.1294 43.2186C24.2239 43.0004 24.3123 42.7799 24.3906 42.5547C24.3976 42.534 24.4052 42.5133 24.4122 42.491C24.4536 42.3703 24.4921 42.2497 24.5289 42.1283C24.5674 41.9992 24.6027 41.8701 24.6357 41.7403C24.4759 41.5159 24.3146 41.2908 24.1532 41.0664C23.2096 39.7494 22.2661 38.4316 21.3217 37.1146C20.8983 36.5237 20.475 35.9321 20.0516 35.3412C19.8741 35.0922 19.6958 34.8448 19.5183 34.5966C19.0796 33.9827 18.6455 33.2581 18.1183 32.6703C18.1045 32.6557 18.0922 32.6411 18.0792 32.628C17.914 32.4467 17.738 32.2792 17.5505 32.134C17.5436 32.1278 17.5351 32.1225 17.5267 32.1186C17.3238 31.6722 17.0641 31.2549 16.7775 30.8577C16.3073 30.2046 15.7248 29.6306 15.064 29.1688C15.2431 29.1135 15.4136 29.0397 15.5497 28.9775C16.1313 28.7101 16.6085 28.1338 16.8252 27.5398C17.3185 26.1775 16.9512 24.4963 15.9715 23.4374C15.0886 22.4839 13.5657 22.3609 12.4661 22.9749C12.0935 23.1831 11.7193 23.5711 11.4496 24.0253C11.3873 23.9085 11.3266 23.7924 11.2675 23.6749C10.9225 22.9902 10.6727 22.2595 10.4799 21.5173C10.2855 20.7735 10.194 20.0082 10.1541 19.2413C10.1249 18.6789 10.1802 18.1034 10.128 17.5409C10.1725 17.5109 10.2156 17.4794 10.2601 17.4502C11.0685 16.9101 11.9137 16.429 12.785 15.9972C13.996 15.3963 15.27 14.933 16.5747 14.5819C17.2101 14.4113 17.8479 14.2876 18.4887 14.1931C18.5118 14.1892 18.5348 14.1861 18.5571 14.1823C18.7576 14.1523 18.9597 14.1254 19.1618 14.1001C19.2409 13.8734 19.2993 13.6344 19.347 13.3962C19.3977 13.1488 19.4407 12.9022 19.4861 12.6671C19.6244 11.9578 19.7089 11.2371 19.7619 10.5156C19.7704 10.4034 19.7773 10.2912 19.7827 10.1783C20.0746 10.1422 20.3697 10.113 20.6678 10.1022C21.4086 10.0776 22.1493 10.1629 22.8754 10.3027C24.3668 10.5901 25.7753 11.2087 27.0707 11.9909C29.631 13.5369 31.7848 15.8243 33.6788 18.1118C35.6574 20.4999 37.1903 23.585 36.1484 26.7154C35.5214 28.5971 34.1644 29.9518 32.6722 31.1681H32.6715C32.4417 31.3564 32.2074 31.5408 31.9738 31.7229H31.973C31.7679 31.8827 31.5619 32.041 31.3575 32.1993C31.0487 32.4367 30.7421 32.6726 30.4409 32.9108C30.291 33.0291 30.142 33.1482 29.9967 33.2689C29.8554 33.3857 30.0352 33.5901 30.1842 33.5125C30.2257 33.4909 30.2664 33.4686 30.3079 33.4471C31.3068 32.9123 32.2927 32.2892 33.1955 31.5684H33.1963C34.8644 31.2042 36.4335 30.2576 37.6706 29.1335C38.5358 28.3459 39.3064 27.3831 39.7083 26.2751C40.1586 25.0349 39.7221 23.7356 39.225 22.5876C38.6956 21.3644 38.0286 20.1088 38.3967 18.7411C38.7432 17.4564 40.1601 17.1513 41.2873 17.4886C42.4937 17.8482 43.2536 19.0784 43.6985 20.1757C43.9959 20.9087 44.1872 21.6779 44.3816 22.4455C44.4338 22.6537 44.4869 22.8619 44.5414 23.0686C44.6021 23.2945 44.6643 23.5189 44.7335 23.7417C44.5061 25.0787 43.5456 26.1022 42.728 27.1856C41.922 28.2537 41.2904 29.6644 41.8459 30.9899C42.0288 31.4271 42.3262 31.7805 42.6873 32.0548C42.3769 32.3314 42.0611 32.9577 41.9504 33.1075ZM45.0877 32.1132L45.0808 32.114C44.7642 32.1455 44.4431 32.1324 44.125 32.0671C42.8079 31.7959 42.0303 30.6479 42.2924 29.3348C42.2931 29.3279 42.2954 29.3209 42.2977 29.314C43.5533 28.7838 44.5729 27.7957 45.2322 26.6116C45.5902 25.97 45.8146 25.2378 45.9007 24.5093C45.9737 23.8985 46.0244 23.1754 45.7416 22.6068C46.1888 22.5354 46.6537 22.5769 47.0917 22.6783C48.2204 22.9434 49.061 23.8432 49.4882 24.8889C49.8386 25.748 49.8847 26.6278 49.7088 27.4707C49.6949 27.5391 49.6796 27.6082 49.6619 27.6758C49.3353 28.979 48.4909 30.1785 47.4543 31.0452C46.8757 31.5285 46.1727 31.9104 45.4304 32.0602L45.0877 32.1132ZM50.1275 34.8594C49.2132 35.8629 47.7955 36.4238 46.5039 35.8291C46.4885 35.8222 46.4739 35.8145 46.4578 35.8076C46.2403 35.7023 46.0597 35.5633 45.913 35.3965C45.7239 35.1852 45.5926 34.9317 45.505 34.6566C46.8804 34.0396 48.1098 33.0752 49.0802 31.9281C49.592 31.3226 50.0323 30.6518 50.3865 29.9433C50.607 29.5023 51.1187 28.624 50.9835 28.0754C51.151 28.173 51.3124 28.2921 51.4653 28.4434C52.0508 29.022 52.1829 29.9257 52.133 30.7079C52.0416 32.1755 51.1011 33.7921 50.1275 34.8594Z" fill="#8B0101"/>
<path opacity="0.25" d="M32.3435 19.3757C31.2709 18.1917 29.4675 18.6965 28.6307 19.8583C27.8362 20.9617 27.9814 22.4892 28.6392 23.6395C28.6353 23.6364 28.6322 23.6341 28.6276 23.631C27.2169 22.6306 25.4588 21.8776 23.7438 22.5192C22.2324 23.0839 21.0691 24.5454 20.1309 25.794C19.3571 26.8252 18.6994 27.9678 18.2437 29.181C18.2053 29.2832 18.1692 29.3847 18.1323 29.4876C18.2553 29.5406 18.3797 29.5898 18.5065 29.6344C19.56 30.014 20.751 30.163 21.8359 30.296C23.2613 30.4696 24.7173 30.432 26.1181 30.1108C27.2553 29.8511 28.3318 29.3293 29.2815 28.6608C30 28.1552 30.8014 27.4737 31.3369 26.703C31.4606 26.5255 31.5698 26.3434 31.6612 26.1582L31.652 26.149L31.5559 26.0583L31.2317 25.7533C31.0073 25.5451 30.7791 25.3414 30.547 25.1417C31.7134 25.3714 32.9344 25.074 33.4846 23.8723C34.1546 22.4162 33.3463 20.4837 32.3435 19.3757ZM30.8498 26.2366C30.6531 26.4978 30.461 26.7606 30.2382 27.0034C29.8563 27.4191 29.426 27.7918 28.9703 28.1245C28.0675 28.7853 27.0379 29.2417 25.956 29.5145C25.3766 29.6605 24.7834 29.7358 24.1864 29.765C23.3612 29.0796 22.7388 28.3566 22.4153 27.2924C22.2332 26.693 22.2101 26.0483 22.2946 25.4306C22.3715 24.8627 22.6112 24.3533 22.7703 23.8101C22.771 23.8062 22.771 23.8031 22.7726 23.7993C23.0638 23.5757 23.3665 23.3751 23.6839 23.2092C25.3198 22.3532 27.1193 23.3198 28.4647 24.2734C29.3007 24.8689 30.096 25.5312 30.8498 26.2366Z" fill="#8B0101"/>
</g>
<path d="M19.414 52.9956C19.4263 52.9964 19.4386 52.9964 19.4509 52.9964C19.507 52.9979 19.5754 52.9634 19.6 52.9111C19.8635 52.3471 20.0679 51.6594 20.1317 51.0393C20.1609 50.752 19.7606 50.7535 19.6699 50.9771C19.444 51.5311 19.3087 52.2257 19.278 52.8243C19.2749 52.8811 19.3126 52.948 19.3633 52.9734C19.3671 52.9757 19.3986 52.9956 19.414 52.9956Z" fill="white"/>
<path d="M21.714 55.7662C21.6717 55.2184 21.3114 54.7174 21.0271 54.264C20.772 53.8568 20.5499 53.2075 20.0643 53.0569C19.9582 53.0239 19.8783 53.1115 19.8668 53.2075C19.8099 53.6839 20.3056 54.158 20.5568 54.5391C20.8534 54.9879 21.1638 55.5373 21.6487 55.8031C21.6756 55.8177 21.7163 55.8 21.714 55.7662Z" fill="white"/>
<path d="M20.0543 53.177C20.2095 53.6226 20.5107 54.0176 20.7704 54.4079C20.9702 54.7084 21.1907 55.3161 21.6072 55.3085C21.6764 55.3069 21.7209 55.2647 21.7447 55.204C21.8892 54.8367 21.4189 54.4271 21.2176 54.1467C20.9449 53.7663 20.6782 53.3268 20.3171 53.0241C20.2072 52.9319 19.9982 53.0156 20.0543 53.177Z" fill="white"/>
<path d="M30.4101 53.1723C30.6368 52.6652 30.6106 52.0451 30.6352 51.4996C30.6652 50.8249 30.6998 50.1503 30.7274 49.4756C30.543 49.5256 30.3586 49.5755 30.1742 49.6255C30.2426 49.7676 30.2749 49.8122 30.4047 49.8929C30.4508 49.9213 30.5131 49.9113 30.5507 49.8737C30.6614 49.7645 30.6806 49.71 30.7174 49.554C30.8166 49.1283 30.1427 49.043 30.1342 49.4749C30.1219 50.0819 30.1158 50.6889 30.105 51.2959C30.0951 51.8899 30.0028 52.5807 30.2157 53.1462C30.2426 53.223 30.3678 53.2661 30.4101 53.1723Z" fill="white"/>
<path d="M30.4596 50.4968C30.6086 50.3723 30.6686 50.1749 30.7308 49.9958C30.8238 49.7292 30.9152 49.4618 30.9928 49.1905C30.8184 49.1429 30.6447 49.0945 30.4703 49.0469C30.395 49.4019 30.1891 50.3539 30.7054 50.4737C30.8545 50.5083 30.9337 50.2686 30.9521 50.1679C30.9798 50.0204 30.9429 49.8529 30.9429 49.7023C30.9429 49.5302 30.9621 49.3596 30.9928 49.1905C31.0558 48.8486 30.531 48.7034 30.4703 49.0469C30.4234 49.3096 30.3873 49.5755 30.3558 49.8406C30.3297 50.0573 30.2836 50.2824 30.375 50.4868C30.3912 50.5206 30.4357 50.5168 30.4596 50.4968Z" fill="white"/>
<path d="M33.44 55.4773C33.7404 55.0186 33.2156 54.1119 32.9743 53.7032C32.5955 53.0608 32.0546 52.5398 31.4414 52.1234C31.1079 51.8967 30.7691 52.4876 31.1287 52.6582C31.2731 52.7265 31.3408 52.7557 31.496 52.7619C31.5421 52.7634 31.5997 52.7258 31.6066 52.6781C31.6281 52.5291 31.6212 52.4599 31.5836 52.3085C31.4322 52.4253 31.2801 52.5414 31.1287 52.6582C31.7119 53.0423 32.1937 53.5364 32.5756 54.1204C32.7484 54.3847 32.8929 54.6698 33.0335 54.9518C33.1442 55.1738 33.1588 55.3682 33.3716 55.495C33.3962 55.5104 33.4254 55.5004 33.44 55.4773Z" fill="white"/>
<path d="M9.14916 43.9815C9.56255 44.2136 10.1457 44.0638 10.5899 43.9769C11.1615 43.8655 11.7186 43.6342 12.2419 43.3845C13.3699 42.8466 14.222 41.9607 15.0373 41.0394C15.8986 40.0659 17.0181 38.9287 18.4473 39.1546C19.6837 39.3505 20.0909 40.679 20.6126 41.6149C20.7717 41.9008 21.2435 41.7071 21.1428 41.3913C20.8239 40.3932 20.1885 39.3282 19.2587 38.8004C18.1661 38.1795 16.8376 38.6513 15.9086 39.3413C14.7898 40.1727 14.0637 41.4175 12.9496 42.2611C12.3879 42.6861 11.7486 43.0157 11.0909 43.2616C10.7758 43.3799 10.4477 43.4644 10.1212 43.5466C9.7969 43.6289 9.42117 43.6496 9.14762 43.8509C9.10536 43.8832 9.09537 43.9516 9.14916 43.9815Z" fill="white"/>
<path d="M15.5006 39.8395C16.0146 39.8341 16.5102 39.5728 17.0304 39.5329C17.6843 39.4822 18.3436 39.6404 18.9222 39.9401C19.9587 40.4772 20.555 41.6167 20.5965 42.7516C20.6111 43.1481 21.2189 43.1504 21.2135 42.7516C21.1935 41.3685 20.4274 40.0961 19.2341 39.4061C18.6179 39.0496 17.8941 38.9389 17.1933 38.9827C16.6147 39.0196 15.7557 39.2017 15.4522 39.7549C15.4314 39.7918 15.4568 39.8402 15.5006 39.8395Z" fill="white"/>
<path d="M32.8027 38.8974C32.8718 39.499 33.1553 40.0623 33.233 40.6731C33.3267 41.4092 33.3313 42.1538 33.3067 42.8937C33.2814 43.6575 33.1945 44.4182 33.0662 45.1712C32.9994 45.5616 32.9125 45.9473 32.818 46.3315C32.7435 46.6381 32.6544 46.7963 32.8196 47.0714C32.868 47.1521 32.9671 47.1744 33.0478 47.1314C33.3298 46.9831 33.339 46.801 33.4158 46.4967C33.5288 46.0487 33.6164 45.5954 33.6924 45.1397C33.8277 44.3322 33.8968 43.5146 33.9168 42.6963C33.9345 41.9402 33.9084 41.1726 33.7716 40.4265C33.6671 39.8571 33.4865 39.1433 32.9971 38.786C32.9225 38.7307 32.7919 38.8037 32.8027 38.8974Z" fill="white"/>
<path d="M33.2393 39.1723C33.2816 39.1362 33.3231 39.0993 33.3653 39.0632C33.2762 39.0394 33.1878 39.0163 33.0987 38.9925C33.1894 39.5265 33.4107 40.0398 33.5559 40.5616C33.7119 41.1232 33.8095 41.6988 33.8648 42.2789C33.917 42.8252 33.8986 43.3715 33.8886 43.9194C33.884 44.1929 34.1391 44.2628 34.3366 44.176C34.4357 44.1322 34.4741 44.0162 34.4841 43.9194C34.5694 43.0457 34.4733 42.1583 34.3112 41.2992C34.1552 40.4709 33.9124 39.4997 33.3653 38.8373C33.247 38.6944 33.0272 38.8773 33.1148 39.0309C33.1402 39.0763 33.1663 39.1208 33.1917 39.1662C33.2017 39.1839 33.2247 39.1846 33.2393 39.1723Z" fill="white"/>
<path d="M33.5231 39.5858C33.457 39.9716 33.5492 40.3596 33.5953 40.7446C33.6575 41.2601 33.7029 41.7773 33.749 42.2952C33.7951 42.8146 33.8189 43.3363 33.8312 43.8581C33.8404 44.2661 33.7129 44.7709 33.9649 45.1136C34.021 45.1897 34.1455 45.2334 34.2177 45.1458C34.4789 44.8293 34.3975 44.4505 34.3913 44.0532C34.3829 43.5307 34.3483 43.009 34.2945 42.4896C34.2446 42.0124 34.1654 41.5421 34.0709 41.0719C33.971 40.5763 33.8865 39.9939 33.5838 39.5774C33.5684 39.5574 33.5285 39.5543 33.5231 39.5858Z" fill="white"/>
<path d="M33.8394 42.581C33.7026 42.9652 33.7264 43.3832 33.7272 43.7873C33.728 44.2576 33.6934 44.7709 33.877 45.2111C33.9101 45.2903 34.0192 45.3003 34.0484 45.2111C34.199 44.7547 34.1152 44.2591 34.0883 43.7873C34.0653 43.3832 34.0461 42.949 33.8794 42.5764C33.8709 42.5564 33.8448 42.5648 33.8394 42.581Z" fill="white"/>
<path d="M48.6926 23.797C48.8255 24.5401 49.0322 25.2331 49.0844 25.9946C49.139 26.7929 49.0184 27.5905 48.7779 28.3512C48.5604 29.0382 48.2116 29.6698 47.7874 30.2491C47.3502 30.8454 46.7678 31.2319 46.2453 31.7352C46.3913 31.7536 46.5373 31.7728 46.6832 31.7913C46.6579 31.7429 46.6318 31.7167 46.5834 31.6914C46.0755 31.4263 46.0424 32.4282 46.5834 32.1731C47.2242 31.8704 47.7897 31.2349 48.2139 30.6817C48.6864 30.0655 49.046 29.3931 49.308 28.6624C49.5908 27.8733 49.6761 27.0058 49.6469 26.1721C49.6177 25.3507 49.4179 24.3718 48.9338 23.6956C48.8455 23.5727 48.6664 23.648 48.6926 23.797Z" fill="white"/>
<path d="M48.5578 23.625C48.4856 24.3826 48.7023 25.1863 48.6808 25.957C48.6677 26.4165 48.597 26.8714 48.5025 27.3201C48.4318 27.6551 48.3596 28.1584 48.1805 28.4527C47.7633 29.1388 47.4844 29.8465 46.9696 30.482C46.5108 31.0483 45.9515 31.4448 45.4267 31.9327C45.3591 31.9957 45.3176 32.1209 45.3537 32.2101C45.3744 32.2608 45.389 32.2969 45.4267 32.3361C45.5189 32.4314 45.6587 32.4398 45.7724 32.3807C47.0987 31.6899 48.2512 30.0709 48.71 28.6755C48.9873 27.8311 49.1902 27.0358 49.2225 26.1383C49.2509 25.3438 49.2117 24.242 48.7169 23.5819C48.6654 23.5128 48.5663 23.5366 48.5578 23.625Z" fill="white"/>
<path d="M51.6581 28.8538C51.6189 29.6391 51.6627 30.3929 51.4959 31.1705C51.3323 31.9327 50.9957 32.6473 50.5577 33.2889C49.7164 34.5221 48.3548 35.299 46.9218 35.6186C46.546 35.7024 46.7082 36.2602 47.0793 36.1895C48.6483 35.8914 50.0137 34.9793 50.9727 33.7161C51.9301 32.4544 52.5648 30.3468 51.9308 28.8161C51.8724 28.6755 51.6665 28.6878 51.6581 28.8538Z" fill="white"/>
<path d="M39.0322 17.8045C39.6968 17.9113 40.2969 18.0174 40.8978 18.3409C41.5579 18.6966 42.1096 19.2644 42.5314 19.8761C43.4212 21.1654 43.7393 22.7836 44.0582 24.2881C44.2303 24.1875 44.4032 24.0876 44.5753 23.9869C44.4539 23.8379 44.4424 23.8248 44.2772 23.7395C44.2042 23.7019 44.1296 23.7364 44.102 23.811C44.0359 23.9885 44.0374 24.0115 44.0466 24.2059C44.0682 24.6554 44.7489 24.567 44.6552 24.1237C44.2994 22.4432 43.9168 20.7121 42.8572 19.3159C42.0304 18.2271 40.476 17.1191 39.0322 17.501C38.8908 17.5387 38.8731 17.7784 39.0322 17.8045Z" fill="white"/>
<path d="M41.0515 17.5102C41.043 17.481 41.0353 17.4518 41.0269 17.4233C40.9723 17.2313 40.678 17.3665 40.7833 17.5263C41.0392 17.9136 41.5647 18.1233 41.9228 18.4138C42.3608 18.768 42.755 19.1691 43.0923 19.6209C43.206 19.4726 43.3197 19.3251 43.4334 19.1768C43.3036 19.1552 43.2183 19.143 43.0877 19.1437C43.0078 19.1437 42.9494 19.2213 42.9701 19.2982C43.0039 19.4242 43.037 19.501 43.0915 19.6209C43.2567 19.9805 43.8507 19.624 43.6132 19.3158C43.2567 18.8525 42.8641 18.4153 42.3961 18.0603C41.9989 17.7583 41.4257 17.2804 40.897 17.3258C40.9193 17.4087 40.9416 17.4917 40.9646 17.5739C40.9892 17.5632 41.0138 17.5517 41.0384 17.5409C41.0499 17.5355 41.0545 17.5209 41.0515 17.5102Z" fill="white"/>
<path d="M40.4778 17.2635C40.9811 17.8198 41.6973 18.1802 42.2244 18.7304C42.806 19.3374 43.0727 20.0543 43.5014 20.7504C43.6643 21.0147 44.0347 20.835 43.9824 20.5476C43.8318 19.7231 43.1787 18.9301 42.6101 18.3446C42.096 17.8144 41.3038 17.1583 40.5262 17.1467C40.464 17.1467 40.4394 17.2213 40.4778 17.2635Z" fill="white"/>
<path d="M13.004 29.1788C13.0517 29.5139 13.4996 29.7198 13.7524 29.9027C14.2119 30.2361 14.6337 30.6219 15.0272 31.0299C15.7986 31.8274 16.3903 32.7649 16.8513 33.7699C17.0365 34.1741 17.6842 33.7092 17.3377 33.3949C17.1471 33.222 16.9719 33.2028 16.8513 33.4579C17.0296 33.4579 17.2078 33.4579 17.3861 33.4579C16.9404 32.4483 16.3096 31.5339 15.5512 30.734C15.1655 30.3268 14.7352 29.9618 14.2826 29.6314C13.9837 29.4132 13.442 28.936 13.0486 29.0997C13.0132 29.1143 12.9986 29.1397 13.004 29.1788Z" fill="white"/>
<path d="M9.87458 29.5984C10.069 29.8243 10.4509 29.855 10.719 29.9588C11.1017 30.1063 11.4259 30.3606 11.6987 30.6626C11.9592 30.9515 12.3926 30.5197 12.1252 30.2361C11.7986 29.8888 11.4221 29.6468 10.9834 29.4647C10.6706 29.3348 10.1474 29.195 9.87458 29.4624C9.83539 29.5008 9.84077 29.5592 9.87458 29.5984Z" fill="white"/>
<path d="M10.4425 34.214C10.8744 34.1918 11.2908 34.0842 11.7265 34.0911C12.2697 34.0995 12.76 34.3585 13.168 34.6981C13.9195 35.3236 14.2729 36.2756 14.6755 37.1331C14.7893 36.9848 14.9038 36.8365 15.0175 36.6882C14.9675 36.6636 14.9176 36.639 14.8684 36.6152C14.8123 36.5814 14.7147 36.6098 14.704 36.6821C14.7009 36.7589 14.6817 36.8319 14.6456 36.8995C14.455 37.3828 15.4193 37.3851 15.2295 36.8995C14.7969 35.7946 14.256 34.7312 13.2779 34.0189C12.5072 33.4579 11.028 33.2574 10.3864 34.1126C10.3542 34.1541 10.3957 34.2171 10.4425 34.214Z" fill="white"/>
<path d="M11.883 33.372C12.3517 33.78 12.971 33.9898 13.4551 34.3901C14.0391 34.8727 14.4501 35.5273 14.6799 36.2435C14.8282 36.129 14.9772 36.0152 15.1255 35.9008C15.0157 35.8293 14.9596 35.8047 14.8313 35.7978C14.7913 35.7955 14.7429 35.8224 14.7252 35.8585C14.6691 35.9722 14.6614 36.0329 14.6691 36.1628C14.6952 36.6184 15.3937 36.4947 15.2654 36.0821C15.0218 35.3022 14.5777 34.6306 13.9699 34.0874C13.4505 33.6225 12.6314 33.0977 11.903 33.2944C11.8714 33.3029 11.8561 33.349 11.883 33.372Z" fill="white"/>
<path d="M6.2033 32.6926C6.73425 32.9462 7.33743 33.0338 7.87683 33.2904C8.46618 33.5717 8.92336 33.992 9.40053 34.4246C9.47199 34.4899 9.59032 34.5406 9.6879 34.5006C9.77627 34.4645 9.81545 34.4468 9.86463 34.3646C9.93839 34.2417 9.90228 34.1103 9.81853 34.0066C9.09548 33.1129 7.42502 32.1425 6.2348 32.4537C6.13107 32.4813 6.0988 32.6427 6.2033 32.6926Z" fill="white"/>
<path d="M8.24891 33.1613C8.34189 33.4048 8.63694 33.5416 8.83903 33.6884C9.15867 33.9204 9.45143 34.1901 9.71421 34.4852C9.85329 34.6411 10.1184 34.5543 10.1706 34.3645C10.2213 34.1794 10.0346 33.9511 9.83485 34.0288C9.8141 34.0311 9.79336 34.0334 9.77338 34.0357C9.7388 34.0349 9.70499 34.0603 9.69731 34.0941C9.68886 34.114 9.6804 34.134 9.67195 34.154C9.81487 34.1356 9.95779 34.1171 10.1007 34.0987C9.84868 33.8259 9.56976 33.5869 9.2601 33.381C9.0196 33.2212 8.59238 32.9607 8.29732 33.0767C8.26428 33.0898 8.23431 33.1244 8.24891 33.1613Z" fill="white"/>
<path d="M7.18515 32.5297C7.63849 32.8247 8.13256 33.0476 8.58821 33.3411C8.91093 33.5486 9.35813 34.1371 9.77382 34.0257C9.80532 34.0173 9.83452 33.9904 9.84221 33.9573C9.9444 33.5117 9.29743 33.1913 8.98085 32.9946C8.4622 32.6726 7.81599 32.4306 7.20052 32.4728C7.16978 32.4744 7.15902 32.5128 7.18515 32.5297Z" fill="white"/>
<path d="M5.51878 37.8608C6.7989 37.0878 8.23885 36.8465 9.72413 37.0632C9.67879 36.8903 9.63269 36.7182 9.58735 36.5453C9.56507 36.5645 9.54202 36.5837 9.51974 36.6029C9.45596 36.6575 9.43598 36.7835 9.48746 36.8527C9.50437 36.8757 9.52204 36.898 9.53895 36.9211C9.93389 37.4451 10.3803 36.5392 9.88856 36.4662C8.94191 36.3256 8.01909 36.3578 7.08935 36.5891C6.45621 36.7466 5.54644 37.0263 5.36818 37.7455C5.34743 37.8308 5.44041 37.9084 5.51878 37.8608Z" fill="white"/>
<path d="M17.7601 33.6993C17.9322 34.4784 18.5661 35.2191 19.0018 35.8738C19.4982 36.6199 19.9945 37.3668 20.4909 38.1128C21.5213 39.6619 22.5425 41.2256 23.619 42.7423C23.7335 42.5933 23.8487 42.4434 23.9632 42.2944C23.8411 42.256 23.7988 42.246 23.6743 42.2621C23.5959 42.2729 23.5329 42.319 23.5314 42.405C23.5291 42.5449 23.5598 42.614 23.619 42.7423C23.7811 43.0958 24.3613 42.7708 24.1453 42.4342C23.1395 40.869 22.0699 39.3384 21.0165 37.8047C20.5086 37.0648 20.0007 36.3256 19.4928 35.5856C19.0402 34.9264 18.5792 34.0443 17.9076 33.5848C17.8308 33.5318 17.7424 33.6194 17.7601 33.6993Z" fill="white"/>
<path d="M17.7829 33.9981C17.9995 34.778 18.5651 35.501 18.9954 36.1772C19.5125 36.9909 20.0626 37.7847 20.6005 38.5845C21.1007 39.3283 21.6009 40.0714 22.1019 40.8136C22.3724 41.2132 22.6421 41.6127 22.9126 42.0131C23.1154 42.3127 23.2238 42.6116 23.5887 42.6985C23.6625 42.7161 23.7655 42.6762 23.7778 42.5909C23.8246 42.2697 23.7224 42.1629 23.5365 41.887C23.2668 41.4867 22.9978 41.0872 22.7281 40.6868C22.1887 39.8862 21.6486 39.0871 21.1076 38.2879C20.6051 37.5457 20.1018 36.8042 19.5924 36.0666C19.1022 35.3566 18.5843 34.4652 17.8943 33.932C17.8451 33.8943 17.7629 33.9274 17.7829 33.9981Z" fill="white"/>
<path d="M24.1171 23.0833C24.2654 23.2746 24.4859 23.2692 24.7157 23.3138C25.0184 23.373 25.3204 23.4337 25.6193 23.5074C26.2985 23.6749 26.9401 23.9585 27.5448 24.3073C28.7112 24.9797 29.6748 25.9655 30.3279 27.1388C30.49 27.0136 30.6522 26.8891 30.8143 26.7638C30.6414 26.5671 30.4693 26.4542 30.228 26.3604C30.1228 26.3197 30.0482 26.4357 30.0628 26.5256C30.1043 26.7685 30.1781 26.9421 30.3279 27.1388C30.563 27.4477 31.0625 27.1849 30.8627 26.8261C30.152 25.5529 29.1108 24.5148 27.8453 23.7933C27.2421 23.449 26.5836 23.1985 25.9143 23.0211C25.4771 22.905 24.4644 22.6038 24.1179 22.9934C24.0925 23.0218 24.0948 23.0549 24.1171 23.0833Z" fill="white"/>
<path d="M23.8486 23.4174C25.1871 23.243 26.2467 23.8923 27.2971 24.6376C28.3474 25.3822 29.3141 26.242 30.2077 27.1679C30.5373 27.509 30.9838 26.8628 30.5842 26.6799C30.4259 26.6069 30.2768 26.5209 30.1201 26.4448C29.9941 26.3841 29.8842 26.5048 29.938 26.6269C29.9964 26.7637 30.0594 26.8989 30.1278 27.0311C30.3007 26.9304 30.4743 26.8298 30.6472 26.7284C29.6698 25.7179 28.6026 24.8089 27.4546 23.9975C26.4034 23.2545 25.1072 22.5268 23.7833 22.9387C23.5328 23.0163 23.5658 23.4543 23.8486 23.4174Z" fill="white"/>
<path d="M24.7953 23.0772C25.2548 23.3669 25.8019 23.519 26.299 23.7334C26.8123 23.9547 27.3133 24.2029 27.7981 24.4818C28.7978 25.0573 29.6914 25.7919 30.4652 26.6455C30.5658 26.4727 30.6665 26.299 30.7679 26.1261C30.6242 26.0931 30.5343 26.0923 30.3899 26.1123C30.1993 26.1384 30.1909 26.3835 30.2877 26.4995C30.3684 26.5964 30.4175 26.6317 30.5282 26.6947C30.8425 26.8722 31.1406 26.4657 30.9047 26.2068C30.0925 25.3147 29.152 24.5571 28.0993 23.9662C27.1758 23.4475 25.9072 22.8436 24.8207 22.9827C24.773 22.988 24.7492 23.048 24.7953 23.0772Z" fill="white"/>
<path d="M8.35917 3.01782C8.93392 2.80728 9.43259 2.37238 9.98275 2.09653C10.5798 1.79686 11.2644 1.67622 11.926 1.65624C13.3713 1.61398 14.7383 2.25174 15.771 3.23373C16.8897 4.29717 17.5482 5.73865 17.8633 7.23085C18.0523 8.12524 18.07 9.05114 18.0239 9.96091C18 10.425 17.9439 10.8876 17.8717 11.3463C17.7941 11.8396 17.6151 12.3498 17.6412 12.85C17.6689 13.3863 18.3958 13.6353 18.6808 13.132C19.1495 12.3045 19.1795 11.0881 19.2525 10.1553C19.3378 9.06651 19.2625 7.97233 19.0573 6.90121C18.7215 5.14776 17.8272 3.48345 16.5324 2.25481C15.2807 1.06689 13.6487 0.429911 11.9245 0.521348C11.1084 0.564378 10.3224 0.789506 9.59088 1.14757C8.97541 1.44878 8.20933 2.02737 8.08793 2.74735C8.06411 2.89641 8.18628 3.08082 8.35917 3.01782Z" fill="white"/>
<path d="M18.0022 29.089C17.963 29.1927 17.9262 29.2965 17.8893 29.401L17.8086 29.6299L18.0314 29.726C18.1582 29.7813 18.2904 29.8328 18.421 29.8789C19.5129 30.2723 20.7315 30.4221 21.8072 30.5535C22.3758 30.6227 22.9444 30.658 23.4969 30.658C24.4259 30.658 25.328 30.5589 26.1793 30.3637C27.2973 30.1079 28.393 29.6061 29.4342 28.8731C30.0712 28.4251 30.9563 27.7097 31.5534 26.8515C31.6871 26.6594 31.8023 26.465 31.8976 26.2729L31.9806 26.1054L31.8484 25.9732L31.412 25.5614C31.3797 25.5314 31.3475 25.5014 31.3152 25.4722C32.4363 25.4561 33.2915 24.9282 33.7248 23.98C34.4179 22.4686 33.6526 20.4317 32.5377 19.1999C32.0866 18.702 31.4919 18.4385 30.8188 18.4385C29.9167 18.4385 28.9755 18.9356 28.4215 19.7055C27.7876 20.5861 27.6615 21.7894 28.045 22.9412C26.4598 22.0099 24.9684 21.7832 23.6544 22.275C22.1115 22.8513 20.9205 24.3127 19.9247 25.6367C19.0933 26.7447 18.4463 27.9065 18.0022 29.089ZM23.8043 23.4406C24.1862 23.2408 24.6034 23.1394 25.0437 23.1394C26.2723 23.1394 27.4986 23.9086 28.3139 24.4864C29.0408 25.0027 29.7761 25.6021 30.5022 26.2683C30.3539 26.465 30.2095 26.6517 30.0481 26.8277C29.6993 27.2072 29.2859 27.573 28.8179 27.9149C27.9735 28.5327 26.9892 28.986 25.8935 29.2619C25.2043 29.4355 24.4559 29.5193 23.6053 29.5193C23.1304 29.5193 22.624 29.4932 22.0562 29.4394C21.5406 29.3902 21.0066 29.2949 20.4902 29.2019C20.0438 29.122 19.5859 29.0398 19.1271 28.9845C19.5528 28.1708 19.9839 27.45 20.4395 26.7892C21.5913 25.1172 22.6924 24.0215 23.8043 23.4406Z" fill="#8B0101"/>
<path d="M51.9119 27.7604C51.5546 27.43 51.0982 27.2018 50.6472 27.1226C50.7494 26.1737 50.6088 25.2393 50.2353 24.4056C49.5069 22.7744 47.8795 21.6787 46.1875 21.6787C45.8218 21.6787 45.4622 21.7309 45.1164 21.8346C44.6254 19.9913 44.0645 18.1249 42.311 16.9977C41.777 16.6542 41.1108 16.4652 40.4354 16.4652C39.9767 16.4652 39.521 16.5528 39.1176 16.7195C38.0588 17.1575 37.4172 18.2332 37.4019 19.5971C37.3896 20.6644 37.8291 21.6349 38.2548 22.5731C38.3908 22.8735 38.5198 23.157 38.6343 23.4444C38.9863 24.3296 39.0869 25.0549 38.9494 25.7265C38.8049 26.438 38.3285 27.095 37.9305 27.5883C37.2582 28.422 36.4406 29.1181 35.4502 29.6975C35.9588 29.0567 36.3776 28.3843 36.7011 27.6889C38.2824 24.2889 36.688 20.931 35.5969 19.2329C34.7748 17.9497 33.7697 16.8333 32.727 15.7068C31.5929 14.482 30.5318 13.4747 29.4837 12.6271C26.9319 10.561 24.2656 9.44911 21.5594 9.32233C21.0184 9.29698 20.519 9.31235 20.0626 9.36614C20.0633 8.22816 19.9466 7.04792 19.716 5.85309C19.4072 4.25486 18.857 3.0147 18.0364 2.06114C17.2219 1.11295 15.9671 0.431401 14.5041 0.140953C13.1764 -0.12337 11.6527 -0.0150275 10.0375 0.458295C8.6091 0.877062 7.66784 1.64391 7.23985 2.73731C6.78343 3.90448 7.0247 5.20151 7.91679 6.424C7.77157 6.4655 7.61713 6.51236 7.44655 6.56461C6.53217 6.84661 5.72998 7.15627 4.99311 7.51203C3.39103 8.2881 2.46206 9.4837 2.30685 10.9697C2.16393 12.3229 2.8232 13.6752 3.96425 14.4252C3.93351 14.4705 3.90278 14.5174 3.87204 14.565C3.41639 15.2819 3.28116 16.2132 3.49323 17.1867C3.68532 18.0734 4.25623 18.9232 5.09914 19.5794C5.34426 19.77 5.73997 20.0428 6.23174 20.2587C6.2886 20.2848 6.34469 20.3086 6.40232 20.3309L6.42153 20.3386C6.44688 20.3486 6.47147 20.3586 6.49299 20.3663C6.58212 20.3993 6.67355 20.4293 6.77114 20.4577C6.9179 20.5 7.06236 20.5322 7.2022 20.5522C6.73964 21.6141 6.3931 22.7506 6.1718 23.9346C5.94974 25.1179 5.87828 26.3589 5.95896 27.6344C5.75688 27.4669 5.53482 27.3401 5.31045 27.2694C5.13833 27.2156 4.96698 27.188 4.80024 27.188C4.39684 27.188 4.03417 27.3447 3.7514 27.6413C3.48247 27.9225 3.31266 28.3136 3.27347 28.7239C3.15975 28.7309 3.0468 28.7447 2.94076 28.7647C2.21464 28.9022 1.5961 29.6322 1.56306 30.3929C1.53232 31.1052 1.9119 31.736 2.60345 32.1233C2.94384 32.3146 3.4963 32.4437 3.97808 32.4437C4.21628 32.4437 4.42835 32.4137 4.61045 32.3553C4.62736 32.3738 4.64426 32.3914 4.66117 32.4091L4.77566 32.5313C4.94316 32.7103 5.11451 32.8939 5.29815 33.0661C5.20441 33.5363 5.25205 34.0519 5.43723 34.5352C5.60474 34.9747 5.92669 35.4519 6.30396 35.8345C6.13031 35.9006 5.96511 35.9736 5.80913 36.0551C5.647 36.0159 5.4818 35.9775 5.31506 35.9406C5.30584 35.382 5.02538 34.7496 4.72417 34.3854C4.18938 33.7369 3.42792 33.4587 2.65108 33.6301C1.74824 33.8298 1.34868 34.7181 1.42091 35.4934C1.45087 35.8146 1.58611 36.1818 1.78358 36.4977C1.69599 36.5384 1.61531 36.5829 1.53924 36.6321C1.34023 36.7597 1.17964 36.9203 1.06054 37.1077C0.690946 37.6886 0.739354 38.3733 1.18886 38.9396C1.46009 39.2807 1.89884 39.7341 2.57117 39.7341C2.69642 39.7341 2.82704 39.7179 2.95844 39.6857C3.33187 39.5942 3.70146 39.1416 4.04493 38.6653C4.22089 38.6737 4.4222 38.6752 4.6312 38.6729L4.69037 38.6722C4.72878 38.6722 4.7672 38.6729 4.80639 38.6729C4.88323 38.6737 4.95623 38.6752 5.04997 38.6722C5.17291 38.9442 5.34118 39.2123 5.5425 39.4559C5.98201 39.9869 6.51527 40.4379 7.12767 40.7967C7.5157 41.0249 7.91526 41.1479 8.29176 41.2555L8.4293 41.2946C8.43776 41.297 8.44544 41.2993 8.45389 41.3016C8.45312 41.3069 8.45312 41.3123 8.45235 41.3177C8.42316 41.6397 8.41317 41.9631 8.40395 42.2766C8.40164 42.3619 8.39857 42.4472 8.39626 42.5317C8.36707 43.3677 8.42623 44.1938 8.57222 44.9867C8.8135 46.2937 9.46354 47.4924 10.4025 48.3622C11.5628 49.438 13.1249 49.7315 14.999 49.2228C15.1649 49.4426 15.3662 49.6531 15.5998 49.8529C15.6475 50.0427 15.6951 50.2325 15.7435 50.4222L15.8257 50.7473C15.8388 50.8003 15.8519 50.8541 15.8649 50.9086C15.3701 51.2398 14.9229 51.7108 14.5564 52.0958L14.4772 52.1788C13.735 52.9564 13.2532 53.6771 13.0042 54.3833C12.7799 55.0202 12.9366 55.4421 13.1072 55.6833C13.5559 56.3173 14.5195 56.4118 15.0535 56.4118C15.3347 56.4118 15.6183 56.3864 15.8857 56.3372C15.9763 56.5278 16.0716 56.7068 16.1577 56.869L16.2376 57.0196C16.3859 57.3031 16.9376 58.2267 17.8174 58.2267C17.9004 58.2267 17.9849 58.2182 18.0679 58.2013C18.8954 58.0338 19.3833 57.3269 19.7506 56.6577C19.7721 56.6185 19.7983 56.5685 19.829 56.5101C20.2078 56.7714 20.665 56.9212 21.1053 56.9212C21.6332 56.9212 22.0988 56.7068 22.4161 56.318C22.8341 55.8071 22.8157 55.0925 22.3639 54.2526C21.9805 53.5396 21.4679 52.6344 20.8771 51.9045L20.9186 51.8099C20.9939 51.6386 21.0684 51.4672 21.1422 51.2951C21.5386 51.3074 21.9251 51.3143 22.2917 51.3143C23.7892 51.3143 25.1078 51.2091 26.3126 50.9932C26.4348 51.2813 26.56 51.5671 26.6853 51.853L26.7075 51.9037C26.3226 52.3839 26.0029 52.9287 25.694 53.4573C25.5711 53.6663 25.4451 53.883 25.3183 54.0874C24.7712 54.9734 24.7174 55.7656 25.1677 56.318C25.485 56.7076 25.9514 56.922 26.4801 56.922C26.9219 56.922 27.3799 56.7721 27.7587 56.5101C28.0729 57.1878 28.63 58.0215 29.5167 58.2013C29.6005 58.2182 29.685 58.2267 29.768 58.2267C30.3143 58.2267 30.8307 57.8602 31.2625 57.1671C31.4315 56.8974 31.5645 56.6054 31.6751 56.3357C31.964 56.3918 32.2752 56.4225 32.5734 56.4225C33.0697 56.4225 33.9703 56.3365 34.4236 55.7587C34.6726 55.4413 34.7409 55.0417 34.6265 54.5707C34.4167 53.7063 33.8204 52.9802 33.2288 52.3109C32.9499 51.9951 32.6148 51.6755 32.2053 51.3343L32.1131 51.2567C31.9902 51.153 31.8557 51.0393 31.7128 50.9332C31.7274 50.8702 31.7427 50.808 31.7589 50.7457L31.8949 50.2063C31.9679 49.9174 32.0409 49.6285 32.1123 49.3404C32.1277 49.2781 32.1446 49.2197 32.1607 49.1629C32.2314 48.9147 32.3036 48.6588 32.2168 48.3684C33.5669 47.212 34.5181 45.7812 34.9745 44.2214C35.338 42.9766 35.3426 41.569 34.9876 40.0376C34.9261 39.7733 34.8493 39.5036 34.754 39.2193C35.1735 39.1924 35.5877 39.1486 35.9903 39.1055C36.111 39.0925 36.2293 39.0802 36.3469 39.0679C37.6109 38.9388 38.9402 38.7037 40.2979 38.371C41.5734 38.0582 42.8919 37.6333 44.2166 37.1093C44.7153 36.9118 45.2316 36.6897 45.7903 36.4308C45.8633 36.48 45.9401 36.5268 46.0215 36.5722C46.4979 36.835 47.0181 36.9679 47.5683 36.9679C48.631 36.9679 49.7505 36.4692 50.6395 35.5994C52.041 34.2286 52.99 32.1294 53 30.3767C53.0046 29.3617 52.6089 28.4089 51.9119 27.7604ZM32.0101 54.5177C31.9494 54.3487 31.7911 54.2357 31.6152 54.2357C31.5061 54.2357 31.4039 54.2795 31.327 54.3594C31.0573 54.6399 30.9306 55.0141 30.8145 55.4029L30.7799 55.5166C30.7569 55.5919 30.7346 55.6672 30.7108 55.7417C30.6785 55.8409 30.6486 55.9239 30.6178 55.9953L30.6101 56.013C30.4334 56.4218 30.1391 57.1048 29.7204 57.1048C29.6912 57.1048 29.6604 57.1018 29.6305 57.0956C29.1956 57.0073 28.8383 56.2496 28.6462 55.8432L28.6362 55.8209C28.5847 55.7118 28.5363 55.5911 28.4894 55.4521C28.4833 55.4367 28.4779 55.4206 28.4733 55.4044L28.4633 55.3737C28.4249 55.2531 28.3872 55.1224 28.3419 54.9519C28.325 54.8873 28.3127 54.8258 28.3012 54.7659C28.2635 54.5707 28.2205 54.3502 28.0322 54.1389C27.9608 54.0598 27.8624 54.016 27.7556 54.016C27.6227 54.016 27.4951 54.0859 27.4237 54.1965C27.2162 54.5131 27.1985 54.9518 27.3706 55.532C27.0318 55.7033 26.6576 55.8847 26.3748 55.8847C26.2258 55.8847 26.0567 55.8409 25.9376 55.5189C25.8116 55.1808 26.1973 54.6207 26.4524 54.2496C26.5208 54.1504 26.5854 54.0559 26.6384 53.9706C26.7252 53.8308 26.8174 53.6909 26.9096 53.5511C27.011 53.3966 27.1148 53.2391 27.2139 53.0785C27.373 53.3429 27.5835 53.5618 27.8785 53.5995L27.9208 53.6026C28.0153 53.6026 28.1037 53.5549 28.1605 53.4758C28.484 53.0332 28.1659 52.3762 27.9331 51.8968C27.8878 51.803 27.8447 51.7139 27.8163 51.6455L27.7218 51.4181C27.6281 51.1937 27.5351 50.9693 27.4398 50.745C28.3857 50.5037 29.2701 50.1802 30.0723 49.7806C30.3735 49.6308 30.6655 49.4679 30.9459 49.2935C30.8729 49.5909 30.8007 49.8882 30.7277 50.1864L30.6624 50.4561C30.6409 50.5437 30.6178 50.6328 30.5932 50.7242C30.5625 50.8395 30.5302 50.957 30.4972 51.0761L30.4565 51.2244C30.2759 51.8837 30.1061 52.5822 30.176 53.2399C30.1983 53.4443 30.3658 53.5987 30.5656 53.5987C30.6962 53.5987 30.8145 53.5342 30.8883 53.4228C31.1426 53.0463 31.3024 52.6052 31.4185 52.1841C31.5629 52.2871 31.6997 52.3878 31.8219 52.4961C32.2729 52.898 32.704 53.3836 33.1028 53.9391C33.5407 54.55 33.5715 54.8619 33.52 55.0149C33.477 55.1432 33.3433 55.2431 33.122 55.313C32.8069 55.4129 32.4589 55.4367 32.0147 55.3844C32.0862 55.1086 32.1146 54.8105 32.0101 54.5177ZM3.06294 38.3525C2.89927 38.5216 2.74406 38.6076 2.60037 38.6076C2.46898 38.6076 2.32913 38.5346 2.18468 38.3902C2.0164 38.2211 1.92958 38.0459 1.93956 37.8961C1.94725 37.7785 2.01871 37.6679 2.15087 37.5672C2.22233 37.5135 2.53199 37.4527 2.71717 37.4174C3.1221 37.339 3.3895 37.2868 3.48939 37.0939C3.58159 36.9249 3.5401 36.878 3.14746 36.4277C2.9884 36.2456 2.69258 35.906 2.64878 35.8307C2.49741 35.5664 2.45822 35.2744 2.54428 35.05C2.61036 34.8787 2.74406 34.758 2.94384 34.692C3.00223 34.6727 3.06294 34.6628 3.12287 34.6628C3.44789 34.6628 3.75371 34.9409 3.91737 35.1791C4.048 35.3689 4.07412 35.5986 4.10102 35.8422C4.11177 35.936 4.12253 36.032 4.13944 36.1288C4.17094 36.3094 4.21781 36.4539 4.2862 36.5837L4.36073 36.722H4.45601C4.54898 36.7658 4.64503 36.8004 4.7357 36.8304L4.76797 36.8411C4.811 36.8557 4.85326 36.8695 4.89322 36.8834C4.91473 36.8911 4.93625 36.8987 4.95699 36.9064C4.86018 37.1193 4.80946 37.3536 4.80562 37.6026C4.52747 37.618 4.24778 37.6625 3.99498 37.7032C3.93735 37.7125 3.88049 37.7217 3.8244 37.7301C3.71606 37.747 3.58928 37.8039 3.06294 38.3525ZM3.90739 31.2957C3.8244 31.3019 3.74679 31.308 3.70223 31.308H3.68686C3.26502 31.2803 2.91541 31.0898 2.72792 30.787C2.65493 30.6687 2.63572 30.5366 2.67029 30.3936C2.71947 30.1923 2.87084 29.9948 3.06601 29.8781C3.14899 29.8289 3.22814 29.8058 3.31573 29.8058C3.41562 29.8058 3.5232 29.8366 3.61463 29.8665C3.65228 29.8788 3.68917 29.8919 3.72682 29.9049C3.78906 29.9265 3.85053 29.948 3.91353 29.9672L4.20168 30.0556L4.24624 29.7574C4.2739 29.5745 4.27314 29.394 4.27314 29.2196C4.27314 29.1673 4.27313 29.1151 4.2739 29.0636C4.27621 28.9391 4.28312 28.8454 4.29695 28.7578C4.34459 28.4512 4.50826 28.2829 4.75798 28.2829C4.88784 28.2829 5.02999 28.3298 5.16983 28.4181C5.47411 28.6095 5.61934 28.9975 5.68772 29.2879C5.71462 29.4024 5.58707 29.7766 5.511 30.0002C5.35655 30.4543 5.23438 30.8132 5.40496 31.0414C5.60627 31.3119 5.79991 31.5946 5.98816 31.8712C5.91747 31.9273 5.85216 31.988 5.79145 32.0549C5.6324 31.915 5.44107 31.7521 5.2874 31.6207C5.21594 31.56 5.15216 31.5055 5.10222 31.4625C4.95238 31.3349 4.7188 31.275 4.36688 31.275C4.20398 31.2734 4.03955 31.2857 3.90739 31.2957ZM45.3892 22.9619C45.4576 22.938 45.5236 22.9188 45.5882 22.9027C46.0077 22.7974 46.5018 22.8082 47.032 22.9319C47.984 23.1555 48.8123 23.9239 49.2472 24.9873C49.5607 25.7557 49.6299 26.5732 49.4531 27.4208C49.4408 27.4845 49.4262 27.5476 49.4093 27.6129C49.1158 28.7854 48.3421 29.9633 47.2878 30.8454C46.6969 31.3395 46.0392 31.6707 45.3846 31.8044L45.048 31.8566C44.7499 31.8851 44.4564 31.8705 44.1774 31.8136C43.0003 31.5708 42.3149 30.5504 42.5469 29.3863C42.7221 28.5073 43.3176 27.7496 43.9477 26.9482C44.5317 26.206 45.1356 25.4383 45.3776 24.5555C45.5259 24.0207 45.529 23.499 45.3892 22.9619ZM45.7157 32.9562C45.718 32.9431 45.7196 32.9308 45.7219 32.9178C46.7238 32.6727 47.6106 32.0595 48.1899 31.5746C49.2687 30.671 50.0824 29.4224 50.4528 28.1154C50.7832 28.2306 51.046 28.3935 51.2834 28.6287C51.8751 29.2126 51.9073 30.1716 51.8743 30.6918C51.7821 32.1717 50.7724 33.7676 49.9364 34.6843C49.2833 35.4012 48.4366 35.8123 47.6136 35.8123C47.2671 35.8123 46.9305 35.7385 46.6155 35.5933L46.5725 35.5725C46.3919 35.4857 46.2367 35.3681 46.1076 35.2221C45.7726 34.8479 45.6712 34.3508 45.645 33.9996C45.6197 33.6562 45.6642 33.2943 45.7157 32.9562ZM20.927 10.3558C21.5079 10.3558 22.1288 10.4211 22.8264 10.5564C24.1596 10.813 25.5427 11.3701 26.9365 12.2122C29.6328 13.8404 31.8495 16.3077 33.4793 18.2763C35.1728 20.3209 36.9685 23.4306 35.902 26.6316C35.2819 28.4934 33.8834 29.8373 32.5795 30.9069L32.5065 30.9661C32.2883 31.1451 32.0655 31.3203 31.8841 31.4617L31.8127 31.517C31.6021 31.6814 31.3908 31.8436 31.181 32.0049C30.7323 32.3499 30.2674 32.7072 29.8318 33.0668C29.6988 33.1759 29.652 33.3427 29.7088 33.501C29.7695 33.67 29.9363 33.7883 30.1145 33.7883C30.1806 33.7883 30.2459 33.7722 30.3051 33.7407C31.4269 33.149 32.4373 32.499 33.3095 31.8075C34.8593 31.4563 36.4675 30.5757 37.8444 29.3233C38.8679 28.392 39.5764 27.3954 39.9513 26.3612C40.4285 25.0472 39.9982 23.7202 39.4619 22.4816C39.4081 22.3564 39.352 22.2304 39.2959 22.1043C38.8257 21.0432 38.3393 19.9452 38.6459 18.8057C38.9432 17.7038 40.0781 17.6185 40.4193 17.6185C40.6828 17.6185 40.9564 17.6585 41.2115 17.7346C42.3548 18.0757 43.0633 19.3013 43.4559 20.2702C43.7379 20.9656 43.9277 21.7148 44.1113 22.4394L44.1283 22.5047C44.1628 22.6414 44.1974 22.779 44.2328 22.9158L44.2858 23.1171C44.2873 23.1224 44.2881 23.1271 44.2896 23.1324C44.3349 23.3038 44.3957 23.5259 44.4663 23.7548C44.2719 24.7822 43.6196 25.6151 42.9296 26.4972C42.792 26.6731 42.6545 26.8483 42.5208 27.0258C41.7532 28.0424 40.9717 29.573 41.6064 31.0867C42.0429 32.1294 43.1071 32.8463 44.4517 33.0046C44.4879 33.0084 44.5247 33.0123 44.5616 33.0153C44.5048 33.4549 44.4633 33.9674 44.5524 34.4753C44.6231 34.8771 44.7576 35.2398 44.9527 35.5587C44.6008 35.7162 44.2335 35.8722 43.857 36.0236C42.7275 36.4784 41.4919 36.8818 40.1849 37.223C38.964 37.5411 37.6523 37.7916 36.2862 37.9676C35.8167 38.0283 35.3188 38.0559 34.837 38.0836C34.6042 38.0967 34.3714 38.1097 34.1393 38.1266C33.9003 38.1435 33.6867 38.1635 33.4862 38.1858C33.0636 38.2334 32.6901 38.301 32.3413 38.3932C32.1984 38.4332 32.1023 38.5592 32.1016 38.7083C32.1008 38.8581 32.1961 38.9864 32.3382 39.0279C32.7032 39.1347 33.1012 39.2 33.5515 39.2269C33.6237 39.4221 33.6913 39.6234 33.7543 39.8286C34.1462 41.1049 34.2138 42.4196 33.9503 43.6298C33.5215 45.5945 32.0071 47.4217 29.7934 48.6419C27.3414 49.995 24.4639 50.1679 22.231 50.1679H22.2302C22.1203 50.1679 22.0104 50.1671 21.9013 50.1664H21.8621C21.6186 50.1641 21.3734 50.1625 21.1276 50.1587C20.9501 50.1556 20.7718 50.1518 20.5928 50.1456C19.7913 50.1195 18.744 50.0511 17.7574 49.7584C17.3156 49.6262 16.9061 49.4172 16.538 49.1352C16.4289 49.053 16.319 48.96 16.2038 48.8494C16.1922 48.8386 16.1807 48.8271 16.1692 48.8156C16.203 48.8017 16.2368 48.7871 16.2699 48.7733C16.7893 48.5505 17.3295 48.2754 17.8758 47.9527C18.1478 48.1133 18.4797 48.1939 18.8654 48.1939C19.444 48.1939 19.9819 48.0103 20.2501 47.9012C21.2298 47.5039 22.0235 46.7217 22.6059 46.084C23.488 45.1173 24.1903 43.9271 24.6398 42.6355L24.6598 42.5771C24.7013 42.4572 24.7405 42.335 24.7797 42.2036C24.8181 42.0761 24.8534 41.9462 24.8895 41.8056L24.9195 41.6888L24.8496 41.5905C24.689 41.3653 24.5276 41.141 24.3663 40.9158L23.5111 39.7218C22.8526 38.8028 22.1941 37.883 21.5348 36.9641L19.7314 34.4461C19.6008 34.264 19.4725 34.0742 19.3372 33.8729C19.0207 33.4049 18.6941 32.9208 18.3107 32.4936L18.2999 32.4813C18.2899 32.4698 18.2799 32.459 18.2692 32.4483C18.094 32.257 17.915 32.0887 17.7359 31.9473C17.5492 31.5493 17.3049 31.142 16.9906 30.7056C16.5941 30.1547 16.1269 29.6637 15.5983 29.2411C15.6198 29.2311 15.6406 29.2219 15.6605 29.2126C16.2783 28.9283 16.8185 28.3213 17.072 27.6275C17.5907 26.1937 17.2173 24.398 16.1646 23.26C15.6213 22.6729 14.813 22.3364 13.9463 22.3364C13.3769 22.3364 12.8221 22.4778 12.3419 22.7467C11.4951 23.2193 10.6292 24.537 10.8343 25.6389C10.5193 25.6089 10.2242 25.6473 9.94993 25.7549C9.36212 25.9885 9.00866 26.5026 9.00328 27.1311C9.00021 27.526 9.17924 27.9264 9.50734 28.2575C9.62798 28.3789 9.76398 28.4865 9.90997 28.5779C9.58572 28.6417 9.2653 28.7501 8.96026 28.9014C8.36169 29.1973 7.81614 29.812 7.49111 30.5089C7.319 29.8189 7.18914 29.1289 7.10615 28.4573C6.93327 27.0681 6.97476 25.6274 7.22909 24.1751C7.45346 22.8942 7.87915 21.6041 8.49539 20.3417C8.74818 19.8223 9.05707 19.2875 9.43972 18.7066C9.59878 18.4653 9.77243 18.2225 9.96837 17.9658C10.1136 17.8644 10.2596 17.7653 10.4071 17.6662C11.1747 17.1537 12.0146 16.6704 12.9028 16.2293C14.04 15.6645 15.2986 15.1943 16.6441 14.8316C17.2265 14.6749 17.8435 14.5496 18.5366 14.4474C18.5558 14.4444 18.575 14.4413 18.598 14.4382C18.7848 14.4106 18.9799 14.3837 19.1958 14.3568L19.3564 14.3368L19.4095 14.1839C19.484 13.971 19.5455 13.7359 19.6039 13.4462C19.6354 13.2941 19.663 13.1427 19.6907 12.9937C19.7084 12.8991 19.7253 12.8054 19.7437 12.714C19.8728 12.0532 19.9642 11.3393 20.0234 10.5325C20.0265 10.491 20.0295 10.4503 20.0318 10.4088C20.2724 10.3827 20.4821 10.3666 20.6788 10.3596C20.7603 10.3573 20.844 10.3558 20.927 10.3558ZM12.7253 48.3069C11.2247 48.0771 10.3725 46.6126 10.0752 45.9933C9.72403 45.2618 9.57726 44.4481 9.53577 43.6113C9.6249 43.7258 9.76552 43.7873 9.93226 43.7665C10.3495 43.7135 10.7467 43.6006 11.1471 43.42C11.3484 43.3301 11.5497 43.2225 11.7441 43.1011C12.5209 42.6224 13.1979 41.9485 13.8525 41.297C14.6755 40.4779 15.5261 39.6311 16.5549 39.2077C16.9061 39.0633 17.2672 38.9895 17.6276 38.9895C18.5043 38.9895 19.3357 39.4306 19.9066 40.1989C20.6558 41.2071 20.7426 42.6347 20.1402 44.0186C19.6338 45.1811 18.6334 46.1985 17.1673 47.0429C16.4988 47.4271 15.8995 47.716 15.3332 47.9281C15.1396 48.0011 14.9452 48.0656 14.7538 48.1202C14.0093 48.3369 13.327 48.3999 12.7253 48.3069ZM10.8989 37.2153C10.3088 36.2518 10.381 34.9862 11.0718 34.2063C11.4375 33.7922 11.9354 33.564 12.4741 33.564C12.8652 33.564 13.2517 33.6846 13.5928 33.9128C14.4434 34.4837 14.8007 35.6355 15.0527 36.5269C14.7769 36.8457 14.4765 37.1631 14.1599 37.4712C13.6965 37.9215 13.181 38.3487 12.6262 38.7413C12.5309 38.6822 12.4326 38.6299 12.3373 38.5777C12.2289 38.5193 12.1268 38.4639 12.0345 38.404C11.5897 38.1143 11.197 37.7032 10.8989 37.2153ZM16.9445 33.6692C16.7432 34.0865 16.4927 34.5283 16.18 35.0201C16.0885 35.1637 15.994 35.3051 15.898 35.4434C15.5576 34.496 15.0466 33.5163 14.0631 32.8578C13.6935 32.6104 13.2701 32.4621 12.8267 32.4222C12.9474 31.9773 12.975 31.4794 12.9996 31.0283C13.0104 30.827 13.0211 30.6364 13.0388 30.4643C13.0457 30.4006 13.0511 30.3345 13.0557 30.2676C13.0964 29.7551 13.1487 29.5038 13.4468 29.4132C13.5045 29.3963 13.5636 29.3901 13.6312 29.3955C13.6835 29.4324 13.7427 29.4601 13.8064 29.4777C13.8571 29.4916 13.9109 29.4977 13.9655 29.4946C14.1791 29.5938 14.3942 29.7505 14.5694 29.8788L14.6424 29.9318C15.2149 30.3452 15.742 30.8992 16.2084 31.5769C16.3836 31.8313 16.5519 32.1263 16.7355 32.5044C16.7993 32.635 16.8477 32.7833 16.8999 32.9408C16.9476 33.0853 16.9967 33.2343 17.0605 33.3773C17.0221 33.4856 16.9837 33.5878 16.9445 33.6692ZM10.1497 27.0012C10.1889 26.8952 10.2826 26.8145 10.414 26.7753C10.4832 26.7546 10.5554 26.7446 10.6353 26.7446C10.9189 26.7446 11.237 26.8791 11.5167 26.9974L11.6081 27.0358C11.8486 27.1365 12.1083 27.0489 12.2474 26.8245C12.3596 26.6439 12.3749 26.4111 12.2866 26.2329C12.2512 26.1614 12.2466 26.093 12.2712 26.0308C12.3027 25.9539 12.378 25.8894 12.4771 25.854C12.5117 25.8417 12.5455 25.8356 12.5801 25.8356C12.7853 25.8356 12.9858 26.0531 13.0703 26.2582C13.1541 26.4595 13.0081 26.9513 12.9312 27.1288C12.7683 27.4415 12.9036 27.785 13.0027 28.0362C13.0181 28.0747 13.0327 28.1115 13.045 28.1461C13.0696 28.2153 13.0949 28.2844 13.1203 28.3536C13.0058 28.3805 12.8974 28.4181 12.7952 28.4673C12.6946 28.5173 12.6024 28.5772 12.5202 28.6471C12.3626 28.4127 12.1567 28.1607 11.9039 27.9709C11.8371 27.9202 11.7756 27.911 11.595 27.8849C11.28 27.8388 10.444 27.7174 10.2035 27.3455C10.1305 27.2294 10.1105 27.1073 10.1497 27.0012ZM8.40625 31.2043C8.57299 30.6764 8.97639 30.1985 9.51349 29.8942C9.79318 29.7367 10.1428 29.6529 10.5247 29.6529C10.706 29.6529 10.892 29.6714 11.0771 29.7075C11.3238 29.7566 11.5789 29.8612 11.8555 30.0264C11.8924 30.0486 11.9262 30.0724 11.9585 30.0963C11.94 30.2668 11.9277 30.4374 11.9154 30.6034C11.9055 30.7371 11.8955 30.87 11.8832 31.0022C11.8724 31.1174 11.857 31.2373 11.8417 31.3603C11.7956 31.726 11.7441 32.1317 11.7917 32.5159C11.3722 32.6281 10.9703 32.8271 10.61 33.1006C10.2242 32.9324 9.8777 32.6903 9.51272 32.4352C9.13468 32.1717 8.74434 31.8989 8.30175 31.7083C8.3225 31.5247 8.35631 31.361 8.40625 31.2043ZM11.7825 40.6116C12.7883 40.0775 13.7788 39.3699 14.7254 38.5077C15.1426 38.1289 15.5514 37.704 15.9433 37.2445C16.1162 37.1692 16.2368 37.0224 16.2706 36.848C16.5096 36.5468 16.747 36.2233 16.9783 35.8853C17.2857 35.435 17.5799 34.9355 17.8773 34.3569C17.9096 34.2932 17.9511 34.2209 17.9949 34.1418C18.0102 34.1149 18.0256 34.0865 18.0417 34.058C18.1232 34.1687 18.2046 34.2786 18.2853 34.3861C18.4159 34.5606 18.5389 34.725 18.6564 34.891C19.0906 35.4995 19.5263 36.1081 19.9612 36.7159L22.1288 39.7448C22.6436 40.4648 23.1584 41.1848 23.674 41.904C23.3366 43.0089 22.8049 44.0247 22.0934 44.926C21.5263 45.6445 20.9009 46.2207 20.2339 46.638C19.9166 46.8377 19.5508 46.9822 19.1467 47.0683C20.9247 45.5738 22.2256 43.2002 21.4695 40.7775C21.0999 39.5958 20.204 38.6015 19.0729 38.1182C18.6503 37.9376 18.1962 37.8454 17.7244 37.8454C16.9668 37.8454 16.1446 38.0867 15.3478 38.5431C14.4403 39.0625 13.6973 39.8048 12.9789 40.5232C12.8828 40.6192 12.7868 40.7153 12.6907 40.8098C12.1037 41.3899 11.6119 41.8064 11.1179 42.1399C11.0103 42.0569 10.902 41.9747 10.7936 41.8924C10.6614 41.7926 10.5301 41.6919 10.3987 41.5905C10.3418 41.5467 10.275 41.4883 10.2043 41.4268C10.1758 41.4022 10.1466 41.3769 10.1174 41.3507C10.7291 41.1525 11.3007 40.8667 11.7825 40.6116ZM8.77661 36.4969C9.00482 36.4731 9.22535 36.4508 9.42205 36.4247C9.47507 36.7382 9.5642 37.0378 9.68714 37.3183C9.97144 37.966 10.4079 38.5308 10.9834 38.9964C11.1371 39.1217 11.3415 39.28 11.5704 39.4213C11.0733 39.7126 10.5646 39.963 10.059 40.1651C10.0383 40.1736 10.0114 40.1859 9.97913 40.2012C9.84543 40.2643 9.62183 40.3703 9.29988 40.3703C9.04017 40.3703 8.76739 40.2988 8.48847 40.159C8.35247 40.0906 8.21416 40.0291 8.08123 39.97C7.85225 39.8678 7.63634 39.7717 7.43656 39.6457C6.69507 39.1801 6.13262 38.51 5.9313 37.8531C5.83986 37.5542 5.89442 37.339 6.1088 37.1546C6.22943 37.0509 6.40078 36.9587 6.61823 36.8788C7.22064 36.6582 8.04742 36.573 8.77661 36.4969ZM10.0952 42.7139C9.98143 42.7653 9.86617 42.813 9.75169 42.856C9.65564 42.8929 9.5765 42.9605 9.52271 43.0458C9.52271 42.7769 9.53116 42.5064 9.54422 42.2375C9.60032 42.2812 9.65257 42.3227 9.6979 42.3619C9.82084 42.4687 9.94301 42.5778 10.066 42.687C10.0752 42.6962 10.0852 42.7054 10.0952 42.7139ZM7.16839 19.3582C7.11537 19.3389 7.06236 19.3197 7.00473 19.2975C6.94326 19.2752 6.88256 19.2529 6.82108 19.2298C6.58519 19.1399 6.30781 19.0254 6.04348 18.8625C5.42724 18.4807 4.94316 17.8829 4.68038 17.179C4.44525 16.5482 4.48367 15.8651 4.78795 15.2565C4.84942 15.1328 4.9301 15.0114 5.03306 14.8893C5.37499 14.9769 5.73306 15.023 6.07883 15.023C7.0078 15.023 7.72777 14.6972 8.10889 14.1055C8.17728 13.9979 8.18189 13.8681 8.12195 13.7582C8.05049 13.6291 7.89374 13.5523 7.74698 13.5761C7.5157 13.613 7.29441 13.6691 7.08157 13.7244C6.77729 13.8028 6.48914 13.8765 6.1841 13.8919C5.99584 13.9011 5.80452 13.8896 5.61396 13.8581C5.36808 13.8166 5.12527 13.7428 4.89091 13.6383C4.82022 13.6068 4.7503 13.573 4.68191 13.5354C3.64844 12.9791 3.30267 11.6889 3.49477 10.7031C3.74218 9.43605 5.02692 8.73145 5.97202 8.31115C6.63437 8.01763 7.34205 7.78788 7.94753 7.60193C8.19572 7.52586 8.45773 7.45209 8.76278 7.37295C9.47046 8.0353 10.3341 8.58239 11.1532 8.88513C11.1978 8.90203 11.2446 8.90971 11.2908 8.90971C11.4513 8.90971 11.5958 8.80906 11.6596 8.65231C11.7241 8.49402 11.6895 8.31729 11.572 8.20204C11.2085 7.84781 10.8082 7.54276 10.4209 7.2477C10.1958 7.07636 9.96299 6.89887 9.744 6.71676L9.69713 6.67834C9.50888 6.51852 9.34675 6.36868 9.20306 6.21961C9.14697 6.16275 9.08934 6.10051 9.03248 6.0352C8.34786 5.25145 7.88222 3.97595 8.38704 2.8933C8.80427 1.99737 9.89384 1.63008 11.0088 1.36653C12.3965 1.03689 13.7841 1.06148 15.0059 1.44183C16.0931 1.78068 17.0275 2.48298 17.636 3.41964C18.2807 4.41162 18.5458 5.65716 18.7364 6.85506C18.8824 7.77328 18.9415 8.76296 18.9108 9.79873C18.9077 9.93935 18.9023 10.0861 18.8931 10.2482C18.8862 10.3942 18.877 10.5402 18.8662 10.6854C18.8224 11.2848 18.7333 11.9225 18.5934 12.6371C18.5535 12.8384 18.5005 13.039 18.4436 13.248C16.5872 13.5369 14.6409 14.1531 12.6577 15.0814C11.7917 15.4863 10.9342 15.9704 10.1105 16.5182C9.79548 16.728 9.48967 16.9431 9.20153 17.1575L9.17079 17.1806L9.14774 17.2121C9.05323 17.3404 8.96794 17.4695 8.88495 17.5947C8.82732 17.6815 8.772 17.7653 8.71898 17.8406C8.50768 18.1372 8.30022 18.4591 8.10274 18.7949C7.95829 19.0377 7.81767 19.2898 7.67706 19.5602C7.62327 19.5372 7.56641 19.5134 7.50571 19.4895C7.44578 19.465 7.38508 19.4419 7.32437 19.4189L7.16839 19.3582ZM6.32317 33.1767C6.36697 33.1106 6.39694 33.0361 6.40923 32.9585C6.45457 32.8709 6.5122 32.7895 6.58058 32.7157C6.72734 32.5574 6.91483 32.4806 7.15533 32.4806C7.20066 32.4806 7.2483 32.4836 7.30055 32.489C7.34281 32.4936 7.38661 32.5005 7.43502 32.5105C7.46883 32.5174 7.50417 32.5251 7.54029 32.5343L7.54336 32.5443L7.5449 32.5359C7.5741 32.5436 7.60406 32.552 7.6348 32.562C7.72163 32.5889 7.81229 32.6227 7.9045 32.6634C8.09199 32.7433 8.28792 32.8494 8.48693 32.9777C8.66136 33.0899 8.83347 33.2128 9.00098 33.3312C9.27836 33.5279 9.56267 33.7292 9.87309 33.899C9.60877 34.3224 9.44126 34.828 9.38748 35.3674C9.26838 35.3535 9.14236 35.3466 9.00636 35.3466C8.63216 35.3466 8.26333 35.3989 7.93754 35.445L7.91065 35.4488C7.77849 35.468 7.62865 35.4911 7.47498 35.5187C7.35818 35.382 7.23294 35.2536 7.11076 35.1284C6.87871 34.8902 6.65972 34.6651 6.50528 34.4015C6.28322 34.0196 6.2156 33.5548 6.32317 33.1767ZM14.007 54.8604C14.0016 54.6145 14.2214 54.3049 14.3973 54.0559C14.4273 54.0137 14.4565 53.9729 14.4834 53.933C14.7777 53.505 15.1565 53.0701 15.6413 52.6052C15.7965 52.4562 15.9756 52.324 16.1661 52.1888C16.2829 52.6068 16.442 53.0447 16.694 53.4197C16.7693 53.5319 16.8876 53.5964 17.0175 53.5964C17.2188 53.5964 17.3863 53.4412 17.4063 53.2376C17.477 52.5745 17.3064 51.8776 17.1258 51.2206L17.0936 51.1046C17.0574 50.9755 17.0221 50.8479 16.9891 50.7219C16.9868 50.7119 16.9837 50.7027 16.9814 50.6927C17.9357 51.09 18.9738 51.1991 19.9212 51.2475C19.8943 51.3274 19.8689 51.4004 19.8444 51.4596C19.673 51.8722 19.5293 52.2433 19.4048 52.5921L19.3833 52.6529C19.2996 52.8818 19.1958 53.1669 19.4294 53.4835C19.4878 53.5588 19.5731 53.6018 19.663 53.6018L19.6991 53.5995C19.9996 53.5611 20.2124 53.3406 20.3715 53.0747C20.4483 53.1976 20.5275 53.3183 20.6051 53.4366C20.685 53.558 20.7641 53.6794 20.8402 53.8008C20.9086 53.9107 20.9839 54.0221 21.0599 54.1358C21.3266 54.5338 21.6032 54.9457 21.6554 55.3652C21.6723 55.4989 21.6485 55.6004 21.5824 55.6749C21.4864 55.7832 21.2897 55.8478 21.0546 55.8478C20.9339 55.8478 20.8094 55.8301 20.7034 55.7978C20.5367 55.7479 20.3792 55.6572 20.214 55.5589C20.3853 54.9703 20.3676 54.5123 20.1594 54.1942C20.0864 54.0836 19.9589 54.0144 19.8275 54.0144C19.7199 54.0144 19.6215 54.059 19.5508 54.1381C19.308 54.4101 19.2281 54.7974 19.1574 55.1393C19.1444 55.2031 19.1313 55.2661 19.1175 55.3276C19.0752 55.3867 19.056 55.459 19.0637 55.5304C19.0568 55.552 19.0506 55.5712 19.0437 55.5896C18.9054 55.9715 18.5934 56.6684 18.0579 57.0418C17.9672 57.1049 17.8842 57.1371 17.812 57.1371C17.4017 57.1371 17.0121 56.1029 16.8461 55.6626L16.7278 55.3437C16.6533 55.1432 16.5826 54.9542 16.5127 54.7966C16.4205 54.5846 16.3413 54.4493 16.2553 54.3594C16.1784 54.2787 16.0762 54.2342 15.9671 54.2342C15.7912 54.2342 15.6329 54.3479 15.5722 54.5162C15.4846 54.7621 15.4738 55.0448 15.5407 55.3745C15.191 55.4075 14.8783 55.3944 14.5787 55.3391C14.0147 55.2361 14.0093 54.9734 14.007 54.8604Z" fill="#8B0101"/>
</svg>
