<svg width="131" height="27" viewBox="0 0 131 27" fill="none" xmlns="http://www.w3.org/2000/svg">
<path d="M8.19356 26.1317C6.9085 26.1317 5.71859 25.806 4.62261 25.1546C3.52543 24.5032 2.66913 23.6229 2.05129 22.5138C1.52979 21.4907 1.14801 20.4494 0.905931 19.3887C0.663853 18.3292 0.488015 17.2686 0.378418 16.2091C0.378418 14.382 0.572321 12.573 0.960128 10.7823C1.1179 9.60051 1.48041 8.45629 2.05008 7.34719C2.3042 6.71393 2.60168 6.1049 2.94011 5.52007C3.14606 5.15441 3.33996 4.78269 3.52182 4.40492C3.73981 4.14943 3.9578 3.8879 4.17579 3.6191C4.65995 2.9132 5.28501 2.29689 6.04738 1.77382C6.65318 1.28708 7.32521 0.893564 8.0647 0.595705C8.80418 0.297845 9.68818 0.147705 10.7179 0.147705C11.6381 0.159813 12.4016 0.312375 13.0074 0.60418C13.6132 0.897197 14.1889 1.38394 14.7345 2.06563C14.9766 2.38286 15.1464 2.73521 15.2439 3.12509C15.3403 3.51497 15.3897 3.91091 15.3897 4.31289C15.3535 5.32392 15.1741 6.21629 14.8537 6.99C14.5322 7.76371 13.9601 8.46113 13.1363 9.08228C12.4089 9.47216 11.6513 9.6671 10.8649 9.6671C10.3313 9.6671 9.8592 9.5327 9.44731 9.26511C9.21728 9.13071 9.04746 8.95151 8.93786 8.7263C8.82827 8.50109 8.77407 8.25408 8.77407 7.98649C8.77407 7.60872 8.86801 7.24669 9.05589 6.89919C9.24377 6.55168 9.48946 6.30589 9.79176 6.15938C10.07 6.06252 10.3253 6.01287 10.5553 6.01287C10.8576 6.01287 11.125 6.07099 11.355 6.18602C11.5851 6.30226 11.7754 6.43545 11.9271 6.58801C12.0789 6.74057 12.233 6.93188 12.3908 7.16314C12.6449 6.95609 12.8509 6.74299 13.0086 6.52383C13.1664 6.30468 13.3085 6.01893 13.4362 5.66537C13.5638 5.31181 13.6265 4.87955 13.6265 4.36859L13.6084 3.9666C13.5229 3.13841 13.2543 2.52937 12.7991 2.13949C12.345 1.74961 11.8753 1.55467 11.39 1.55467H11.3177C10.748 1.55467 10.2024 1.74598 9.68216 2.1298C9.16067 2.51363 8.67892 2.9919 8.23692 3.56461C7.79492 4.13733 7.39507 4.73062 7.03737 5.34572C6.67967 5.96081 6.37376 6.51778 6.11964 7.01785C5.1983 8.80864 4.59852 10.66 4.32031 12.573C4.11437 13.6446 4.01079 14.7234 4.01079 15.8071C4.01079 17.3061 4.21072 18.7978 4.61057 20.2835C5.12002 21.6844 5.78603 22.7136 6.60982 23.3711C7.43361 24.0285 8.26342 24.3579 9.09925 24.3579C9.74118 24.3579 10.3169 24.2416 10.8263 24.0104C11.3358 23.7791 11.7681 23.4982 12.1258 23.1701C12.4835 22.8407 12.7533 22.5308 12.9352 22.2377C13.3109 21.6287 13.5927 21.0439 13.7806 20.4833C13.9685 19.9227 14.0624 19.241 14.0624 18.437C14.0624 18.0592 14.0384 17.6936 13.9902 17.3412C13.942 16.9877 13.8565 16.7019 13.7361 16.4828C13.6506 16.5554 13.5482 16.6414 13.4265 16.7382C13.2206 16.9453 12.9749 17.1499 12.6907 17.3509C12.4064 17.5519 12.0692 17.6524 11.6814 17.6524L11.4815 17.6342C10.1121 17.5374 9.40997 16.892 9.37264 15.6969C9.37264 15.0395 9.66651 14.4885 10.2542 14.043C10.842 13.5986 11.5417 13.3758 12.3535 13.3758C12.9111 13.3758 13.4735 13.5163 14.0432 13.796C14.6128 14.0769 15.0886 14.4994 15.4704 15.0661C15.8521 15.6328 16.0545 16.3362 16.0798 17.1766L16.1159 18.5835C16.1159 19.3391 16.0183 20.0728 15.8256 20.7848C15.6317 21.4979 15.3042 22.1954 14.8441 22.877C14.7345 22.9993 14.6321 23.1265 14.5346 23.2609C14.0865 23.882 13.4446 24.485 12.6076 25.0698C11.9656 25.4839 11.3081 25.7648 10.636 25.9101C9.96519 26.0591 9.14983 26.1317 8.19356 26.1317Z" fill="#FDF5EB"/>
<path d="M35.4927 26.1317L32.3481 26.1135C32.0085 26.1135 31.5605 26.1195 31.0028 26.1317L29.1854 26.1135C28.6278 26.0772 28.3496 25.858 28.3496 25.456C28.3496 25.3713 28.3592 25.2671 28.3773 25.1448C28.3954 25.0238 28.4411 24.9136 28.5134 24.8155C28.5857 24.7186 28.6892 24.669 28.8229 24.669H30.2766C30.2886 24.669 30.2947 24.6569 30.2947 24.6327L30.2766 24.4498C30.2766 24.4135 30.2826 24.3215 30.2947 24.1762C30.3067 24.0297 30.3188 23.8541 30.3308 23.6459C30.3549 23.3286 30.3766 23.0187 30.3946 22.7135C30.4127 22.4096 30.4223 22.1953 30.4223 22.0742V20.6128C30.4344 20.6128 30.4404 20.5341 30.4404 20.3755C30.4404 20.2168 30.4404 20.0159 30.4404 19.7725L30.4223 15.4232L28.8952 15.4051C28.6892 15.4051 28.5375 15.4087 28.4411 15.4148C28.3436 15.4208 28.2713 15.4245 28.2232 15.4245C28.1629 15.4366 28.1015 15.4426 28.0413 15.4426L27.3139 15.4245H23.3515L22.5698 15.4063C22.4976 15.4063 22.4542 15.4124 22.4422 15.4245V20.614C22.4542 20.614 22.4603 20.6418 22.4603 20.6963C22.4603 20.7508 22.4603 20.821 22.4603 20.907L22.4422 22.0767C22.4422 22.1989 22.4518 22.412 22.4699 22.716C22.488 23.0211 22.5096 23.3311 22.5337 23.6483C22.5458 23.8553 22.5578 24.0321 22.5698 24.1786C22.5819 24.3251 22.5879 24.4159 22.5879 24.4523L22.5698 24.6351C22.5698 24.6593 22.5759 24.6714 22.5879 24.6714H24.0416C24.1873 24.6714 24.2933 24.7199 24.3595 24.8179C24.4258 24.916 24.4691 25.025 24.4872 25.1473C24.5053 25.2696 24.5149 25.3725 24.5149 25.4584C24.5149 25.8604 24.2427 26.0796 23.6971 26.1159L21.8617 26.1341C21.3161 26.122 20.8681 26.1159 20.5164 26.1159L17.4814 26.1341C17.3116 26.0239 17.2092 25.9089 17.1719 25.7866C17.1357 25.6655 17.1177 25.4948 17.1177 25.2744C17.1177 25.226 17.1177 25.1775 17.1177 25.1279C17.1177 24.9208 17.1538 24.7925 17.2273 24.7441C17.2754 24.6956 17.4392 24.6714 17.7174 24.6714H19.0073C19.0194 23.819 19.0254 23.1058 19.0254 22.5331C19.0254 21.3151 19.0073 19.9868 18.9712 18.5496C18.9471 17.7093 18.9351 17.1244 18.9351 16.7951C18.9471 16.674 18.9531 16.5638 18.9531 16.4658C18.9531 16.3689 18.9531 16.3011 18.9531 16.2648C18.9772 14.4013 19.0013 13.0488 19.0254 12.2085C19.0374 11.3561 19.0459 10.6091 19.0531 9.96976C19.0591 9.33045 19.0627 8.32185 19.0627 6.94515L19.0989 5.37352C19.0989 5.11804 19.0928 4.83713 19.0808 4.53322C19.0687 4.26563 19.0627 4.02831 19.0627 3.82005L19.0808 3.10688L19.0266 1.97356C19.0266 1.69387 19.0326 1.54736 19.0447 1.53525H18.027C17.7969 1.53525 17.5729 1.49287 17.3549 1.40691C17.1369 1.32215 17.0273 1.09573 17.0273 0.731273C17.0273 0.634408 17.0671 0.527857 17.1454 0.411619C17.2237 0.295381 17.3116 0.238473 17.4091 0.238473C17.4814 0.238473 17.5368 0.236051 17.5729 0.228786C17.6091 0.222732 17.6392 0.2191 17.6633 0.2191C17.6753 0.2191 17.697 0.2191 17.7271 0.2191C17.7572 0.2191 17.7993 0.2191 17.8547 0.2191C17.9089 0.2191 17.9945 0.2191 18.1089 0.2191C18.2245 0.2191 18.3847 0.2191 18.5906 0.2191C18.9905 0.2191 19.4746 0.222732 20.0443 0.228786C20.614 0.23484 21.1463 0.244527 21.6437 0.256635C22.1278 0.256635 22.5891 0.244527 23.0251 0.220311C23.3394 0.208203 23.6008 0.202148 23.8067 0.202148C24.0247 0.202148 24.1705 0.220311 24.2427 0.256635C24.2548 0.268744 24.2728 0.280851 24.2969 0.292959C24.3451 0.317175 24.3933 0.357133 24.4426 0.411619C24.4908 0.466106 24.5149 0.578711 24.5149 0.749435C24.5149 1.04124 24.427 1.24223 24.2511 1.35242C24.0753 1.4626 23.7995 1.51709 23.4237 1.51709H22.5144L22.4603 3.45439C22.4603 3.73529 22.4663 4.04526 22.4783 4.38671C22.4904 4.71605 22.4964 5.01996 22.4964 5.29966V5.57331C22.4964 5.86632 22.4964 6.15207 22.4964 6.43177C22.5084 7.23575 22.4723 8.22861 22.3868 9.41036V9.48301C22.3868 9.5932 22.3928 9.75666 22.4048 9.97581C22.4289 10.402 22.441 10.9021 22.441 11.4748V13.7765H24.6221C24.7064 13.7644 24.9557 13.756 25.3676 13.7487C25.7795 13.7426 26.2516 13.739 26.7851 13.739C27.5848 13.739 28.2027 13.7426 28.6387 13.7487C29.0746 13.7548 29.4203 13.7584 29.6744 13.7584C29.9285 13.7705 30.1766 13.7765 30.4199 13.7765C30.432 12.1928 30.444 11.1031 30.4561 10.5061C30.4681 10.1284 30.4741 9.78814 30.4741 9.48301V9.41036C30.3886 8.22861 30.3525 7.23575 30.3645 6.43177C30.3645 6.15207 30.3645 5.86511 30.3645 5.57331V5.29966C30.3645 4.97032 30.3705 4.61192 30.3826 4.22204C30.3946 3.85638 30.4007 3.52219 30.4007 3.21707C30.3886 2.62014 30.3766 2.1455 30.3645 1.79194C30.3525 1.64544 30.3465 1.55462 30.3465 1.5183H29.4552C29.0795 1.5183 28.8013 1.46381 28.6194 1.35363C28.4375 1.24345 28.3472 1.04245 28.3472 0.750646C28.3472 0.579922 28.3713 0.467317 28.4195 0.41283C28.4676 0.358344 28.5158 0.318387 28.5652 0.29417C28.5893 0.282062 28.6073 0.269954 28.6194 0.257846C28.6917 0.221521 28.8554 0.20336 29.1096 0.20336C29.3155 0.20336 29.5757 0.209414 29.8912 0.221522C30.3031 0.245738 30.7511 0.257846 31.2365 0.257846C31.7327 0.245738 32.2662 0.237262 32.8359 0.229997C33.4056 0.223943 33.8897 0.220311 34.2896 0.220311C34.4835 0.220311 34.6171 0.220311 34.6894 0.220311C34.7617 0.220311 34.8171 0.220311 34.8532 0.220311C34.8893 0.220311 34.9291 0.220311 34.9712 0.220311C35.0134 0.220311 35.0712 0.220311 35.1435 0.220311C35.2157 0.232419 35.3193 0.238473 35.453 0.238473C35.5626 0.238473 35.6529 0.296592 35.7252 0.411619C35.7974 0.527857 35.8348 0.634408 35.8348 0.731273C35.8348 1.09694 35.7288 1.32215 35.5168 1.40691C35.3048 1.49287 35.0772 1.53525 34.8351 1.53525H33.8174L33.8355 1.97356C33.8355 2.08375 33.8295 2.21694 33.8174 2.37555C33.8054 2.5826 33.7994 2.78965 33.7994 2.9967L33.8174 3.78252C33.8174 3.98956 33.8114 4.23899 33.7994 4.53201C33.7753 4.84924 33.7632 5.1471 33.7632 5.4268C33.7632 5.78035 33.7693 6.09638 33.7813 6.37728C33.7934 6.65819 33.8054 6.84587 33.8174 6.94394C33.8174 7.02991 33.8174 7.17521 33.8174 7.38225C33.8174 7.5893 33.8114 7.80846 33.7994 8.03973C33.7994 8.5519 33.8054 9.30381 33.8174 10.2967C33.8295 11.2895 33.8476 12.3284 33.8716 13.4121C33.8957 14.9595 33.9138 16.2321 33.9258 17.231C33.9258 17.9865 33.9138 18.7542 33.8897 19.5327C33.8656 20.2641 33.8476 21.1165 33.8355 22.0912C33.8355 22.7487 33.8476 23.6083 33.8716 24.6678H35.2531C35.5192 24.6678 35.683 24.692 35.7432 24.7404C35.7914 24.7889 35.8215 24.8506 35.8336 24.9233C35.8456 24.9959 35.8516 25.1061 35.8516 25.2526C35.8516 25.4839 35.8275 25.6643 35.7794 25.7914C35.7348 25.921 35.6372 26.0348 35.4927 26.1317Z" fill="#FDF5EB"/>
<path d="M42.6903 26.1318L40.0732 26.1137C39.7336 26.1137 39.2976 26.1197 38.7641 26.1318L37.0189 26.1137C36.4974 26.0773 36.2373 25.8582 36.2373 25.4562C36.2373 25.3714 36.2469 25.2673 36.265 25.145C36.2831 25.0239 36.3228 24.9137 36.383 24.8157C36.4432 24.7188 36.5408 24.6692 36.6733 24.6692H38.0728C38.0848 24.6692 38.0908 24.6571 38.0908 24.6328L38.0728 24.45C38.0728 24.4137 38.0788 24.3217 38.0908 24.1764C38.1029 24.0299 38.1149 23.8543 38.127 23.646C38.151 23.3288 38.1727 23.0188 38.1908 22.7137C38.2089 22.4098 38.2185 22.1955 38.2185 22.0744L38.2004 21.0513C38.2004 20.9302 38.2004 20.826 38.2004 20.7401C38.2004 20.6553 38.2064 20.6117 38.2185 20.6117V16.5386L38.2004 13.761C38.2125 12.2632 38.2305 11.1965 38.2546 10.5632C38.2667 10.1612 38.2727 9.80161 38.2727 9.48559V9.41294C38.1884 8.23119 38.151 7.23833 38.1631 6.43435C38.1631 6.15465 38.1631 5.86769 38.1631 5.57588V5.30224C38.1631 5.02254 38.1691 4.71742 38.1812 4.38929C38.1932 4.04784 38.1992 3.73787 38.1992 3.45697L38.145 1.51967H37.2731C36.9214 1.51967 36.6576 1.46518 36.483 1.355C36.3072 1.24481 36.2192 1.04382 36.2192 0.752015C36.2192 0.58129 36.2433 0.468685 36.2915 0.414198C36.3397 0.359712 36.3878 0.319756 36.4372 0.295539C36.4613 0.283431 36.4794 0.271323 36.4914 0.259215C36.5637 0.22289 36.7154 0.204729 36.9455 0.204729C37.1514 0.204729 37.4055 0.210783 37.709 0.222891C38.1089 0.247107 38.5389 0.259215 38.9989 0.259215C39.4831 0.247107 39.9985 0.238631 40.5441 0.231367C41.0897 0.225312 41.5498 0.22168 41.9255 0.22168C42.0833 0.22168 42.2037 0.22168 42.2893 0.22168C42.3615 0.22168 42.4169 0.22168 42.4531 0.22168C42.4892 0.22168 42.5289 0.22168 42.5711 0.22168C42.6132 0.22168 42.6771 0.22168 42.7614 0.22168C42.8336 0.233788 42.9312 0.239842 43.0516 0.239842C43.148 0.239842 43.2335 0.297961 43.3057 0.412988C43.378 0.529226 43.4153 0.635777 43.4153 0.732642C43.4153 1.09831 43.3118 1.32352 43.1058 1.40827C42.8999 1.49424 42.6819 1.53662 42.4518 1.53662H41.4727L41.4908 1.97493C41.4908 2.07301 41.4908 2.15534 41.4908 2.22194C41.4908 2.28853 41.4908 2.35876 41.4908 2.43262C41.4787 2.55491 41.4667 2.7438 41.4546 2.99928L41.4727 3.82142C41.4727 4.02847 41.4667 4.26579 41.4546 4.53459C41.4426 4.83971 41.4366 5.11941 41.4366 5.37489L41.4727 6.94652V9.96144C41.4847 10.1927 41.4932 10.556 41.5004 11.0488C41.5064 11.5428 41.51 12.0574 41.51 12.5925C41.5221 12.5804 41.5341 12.5683 41.5462 12.5562C41.6558 12.446 41.822 12.2826 42.046 12.0634C42.27 11.8443 42.4916 11.6614 42.7096 11.5149C43.885 10.0535 44.9208 8.49394 45.8181 6.83755C45.9277 6.65472 46.036 6.46583 46.1456 6.27089C46.4239 5.83258 46.6599 5.36399 46.855 4.86393C46.9755 4.5467 47.1152 4.23673 47.2729 3.9316C47.3332 3.71245 47.4548 3.4267 47.6367 3.07314C47.7703 2.81766 47.8908 2.56097 48.0004 2.30549C48.11 2.05 48.1642 1.8369 48.1642 1.66618C48.1521 1.56931 48.1184 1.50151 48.0642 1.46518C48.01 1.42886 47.892 1.4107 47.7101 1.4107L47.0742 1.42886C46.7587 1.42886 46.4889 1.38285 46.2649 1.29204C46.0409 1.20123 45.9289 1.05714 45.9289 0.862199C45.9289 0.59461 45.9746 0.414198 46.065 0.323387C46.1553 0.232577 46.2854 0.168404 46.4552 0.13208C46.9646 0.13208 47.3609 0.135712 47.6451 0.141766C47.9293 0.14782 48.181 0.151453 48.399 0.151453C48.5809 0.151453 48.7808 0.155085 48.9988 0.161139C49.2168 0.167193 49.501 0.170826 49.8527 0.170826L51.3979 0.134501C51.6279 0.134501 51.8182 0.168404 51.97 0.234999C52.1217 0.301593 52.1976 0.445679 52.1976 0.664836C52.1976 0.883993 52.076 1.12131 51.8339 1.378C51.4942 1.46397 51.1679 1.50635 50.8523 1.50635C50.6705 1.50635 50.4645 1.49424 50.2345 1.47003C50.0285 1.98099 49.8527 2.4084 49.707 2.74864C49.4276 3.61316 49.0951 4.46678 48.7073 5.30708C48.4653 5.85558 48.2412 6.39803 48.0353 6.9332C47.5632 7.92001 47.0839 8.84023 46.5997 9.69264C46.1143 10.5451 45.4182 11.6602 44.5101 13.0369C44.692 13.537 44.928 14.1521 45.2195 14.8822C45.4736 15.5275 45.6976 16.1063 45.8915 16.6185C46.2312 17.6295 46.6551 18.6224 47.1633 19.5971C47.4054 20.085 47.6355 20.5718 47.8534 21.0585C47.9498 21.2292 48.0413 21.4 48.1256 21.5707C48.3316 22.009 48.5556 22.411 48.7977 22.7767C49.0397 23.1423 49.3493 23.4656 49.725 23.7453C49.8214 23.7816 49.9189 23.7998 50.0153 23.7998C50.379 23.7998 50.6789 23.6085 50.9149 23.2247C51.151 22.8408 51.2871 22.4849 51.3244 22.1555C50.5488 22.1555 49.8708 21.8903 49.289 21.3612C48.7073 20.8309 48.4171 20.1407 48.4171 19.2871C48.4171 18.9093 48.499 18.5497 48.6628 18.2095C48.8266 17.868 49.0831 17.6126 49.4348 17.4418C49.6528 17.3934 49.8768 17.3692 50.1068 17.3692C50.5428 17.3692 50.9643 17.4515 51.3702 17.6162C51.7761 17.7809 52.1302 18.0218 52.4337 18.3378C52.4457 18.3742 52.4638 18.4044 52.4879 18.4286C52.754 18.9033 52.9973 19.3912 53.2153 19.8901C53.4333 20.3902 53.5429 20.9132 53.5429 21.4617C53.5429 22.0708 53.4574 22.6519 53.2888 23.2065C53.1189 23.7611 52.8227 24.2817 52.3987 24.7684C51.5509 25.6584 50.5994 26.1028 49.5456 26.1028C48.3701 26.127 47.4066 25.7008 46.6551 24.8241C45.8915 23.6908 45.2436 22.4921 44.71 21.2244C44.1645 20.1286 43.6923 18.959 43.2925 17.7155C43.0504 16.9975 42.7951 16.3025 42.5289 15.6329C42.4928 15.536 42.4567 15.4379 42.4193 15.3399C42.3832 15.243 42.3398 15.1328 42.2917 15.0105C42.17 15.0965 42.0677 15.1691 41.9821 15.2297C41.8966 15.2902 41.8159 15.3483 41.7365 15.4028C41.657 15.4573 41.6004 15.5033 41.5642 15.5396C41.5642 15.7588 41.5642 15.9271 41.5642 16.0421C41.5642 16.1584 41.5642 16.2468 41.5642 16.3073C41.5642 16.3678 41.5642 16.4296 41.5642 16.4901C41.5763 16.5386 41.5823 16.6209 41.5823 16.7371C41.5823 16.8534 41.5823 17.0326 41.5823 17.2759C41.5823 17.9092 41.5702 18.695 41.5462 19.6334C41.5221 20.6807 41.51 21.6494 41.51 22.5393C41.51 23.1121 41.5161 23.8252 41.5281 24.6776H42.4555C42.7216 24.6776 42.8854 24.7019 42.9456 24.7503C42.9818 24.7987 43.0095 24.8605 43.0275 24.9331C43.0456 25.0058 43.0552 25.1159 43.0552 25.2625C43.0552 25.4937 43.0311 25.6741 42.983 25.8013C42.9324 25.9211 42.8348 26.035 42.6903 26.1318Z" fill="#FDF5EB"/>
<path d="M69.498 26.1317L68.0985 26.0954C67.5048 26.0954 67.1832 25.7842 67.135 25.1631C67.135 24.7974 67.253 24.5843 67.4891 24.5238C67.7252 24.4632 68.1828 24.433 68.8609 24.433C68.7031 24.2138 68.567 24.0249 68.4514 23.8663C68.3358 23.7077 68.2274 23.5491 68.1238 23.3917C68.0202 23.233 67.9383 23.0999 67.8781 22.9897C67.624 22.6119 67.3747 22.2341 67.1326 21.8564C66.4786 20.8816 65.8475 19.8948 65.2429 18.8959C64.8551 18.2021 64.4613 17.5132 64.0615 16.8315C63.6014 16.0638 63.1522 15.278 62.7162 14.474C62.1826 13.6458 61.7045 12.7874 61.2806 11.8974C60.953 11.2521 60.6085 10.6128 60.2448 9.97829C60.0389 9.66106 59.7787 9.21669 59.4632 8.64398C59.2813 8.32675 59.1151 8.03494 58.9634 7.76735C58.8116 7.49976 58.6936 7.31693 58.6093 7.21886C58.5491 11.0559 58.5189 14.8748 58.5189 18.6755V24.577H60.0088L60.299 24.5589C60.7109 24.5589 60.9108 24.7538 60.8988 25.1437C60.8867 25.582 60.6868 25.8992 60.299 26.0942L59.3355 26.076L55.9729 26.0942C55.6827 26.0942 55.3936 26.0518 55.1094 25.9658C54.8239 25.8811 54.6818 25.7043 54.6818 25.4355C54.6939 25.2769 54.7782 25.0638 54.9359 24.7962C55.0323 24.7114 55.16 24.6533 55.3177 24.6231C55.4755 24.5928 55.6574 24.577 55.8633 24.577H56.5173C56.4812 23.7246 56.4631 22.8589 56.4631 21.9823C56.4631 20.7158 56.4812 19.4359 56.5173 18.1452C56.5655 16.8666 56.5895 15.5989 56.5895 14.3445C56.5775 13.6386 56.5655 13.1022 56.5534 12.7365C56.5534 12.4931 56.5498 12.2401 56.5438 11.9786C56.5378 11.717 56.5341 11.3792 56.5341 10.9639C56.5341 9.97708 56.5462 8.99027 56.5703 8.00346C56.5823 7.7722 56.5883 7.53488 56.5883 7.2915L56.5703 5.68355C56.5703 4.47758 56.6004 3.26556 56.6606 2.04748H55.225C54.995 2.04748 54.8071 1.9712 54.6614 1.81864C54.5156 1.66608 54.4434 1.42512 54.4434 1.09699C54.4434 0.962594 54.4614 0.811243 54.4976 0.640519C54.5337 0.469795 54.5999 0.311179 54.6975 0.165881L58.2058 0.184044L61.059 0.165881C61.3131 0.165881 61.507 0.242162 61.6407 0.394725C61.7744 0.547287 61.8406 0.726486 61.8406 0.933535C61.8406 1.20112 61.737 1.45418 61.5311 1.6915C61.3251 1.92882 61.0156 2.04748 60.6037 2.04748H59.8401C59.9365 2.25453 60.022 2.43373 60.0943 2.58629C60.1665 2.73885 60.24 2.89142 60.3123 3.04277C60.3845 3.19533 60.452 3.32004 60.5122 3.41691C61.2878 4.75728 62.0755 6.09038 62.8752 7.41864C63.3714 8.23473 63.8627 9.05081 64.3469 9.8669C64.7588 10.4517 65.1526 11.0547 65.5284 11.6759C65.8066 12.1384 66.098 12.5961 66.4003 13.0465C66.6304 13.4122 66.9182 13.8323 67.2639 14.3069C67.6095 14.7816 67.954 15.2477 68.2996 15.7042C68.6453 16.1607 69.0596 16.6935 69.545 17.3037C69.545 15.0746 69.5389 13.2172 69.5269 11.7303C69.5149 10.2931 69.5088 8.58707 69.5088 6.61466C69.5209 6.06616 69.5269 5.42686 69.5269 4.69553L69.5088 1.62612C69.2053 1.66244 68.9572 1.68061 68.7633 1.68061C68.5694 1.68061 68.3695 1.66244 68.1635 1.62612L67.9998 1.66244C67.7697 1.66244 67.5879 1.55589 67.4542 1.34279C67.3205 1.12969 67.2542 0.900843 67.2542 0.65747C67.2542 0.536389 67.2723 0.414098 67.3084 0.291806C67.5626 0.170725 67.7685 0.0908114 67.9263 0.054487C68.0841 0.0181627 68.3141 0 68.6164 0C69.0042 0 69.386 0.0181627 69.7617 0.054487C70.064 0.0787033 70.3495 0.0968651 70.6156 0.108973C70.8336 0.108973 71.0878 0.0968647 71.3792 0.0726485C71.7068 0.0484323 72.0091 0.0363247 72.2885 0.0363247C72.3126 0.0363247 72.3367 0.0363247 72.3608 0.0363247C72.6631 0.0363247 72.8787 0.066595 73.0063 0.127136C73.134 0.187676 73.2942 0.346292 73.4881 0.601773C73.5724 0.796714 73.6157 0.95533 73.6157 1.07641C73.6157 1.31978 73.4977 1.46387 73.2616 1.50625C73.0256 1.54863 72.7558 1.56437 72.4523 1.55226C72.2584 1.55226 72.0765 1.55831 71.9067 1.57042C71.7369 1.58253 71.5972 1.61885 71.4888 1.68061C71.4527 2.41194 71.4346 3.14205 71.4346 3.87338L71.4708 7.14379L71.4611 8.42603C71.4611 9.75429 71.4732 11.039 71.4972 12.2813C71.5093 13.4993 71.5153 14.7235 71.5153 15.9536V16.886C71.5153 18.4334 71.5213 19.4323 71.5334 19.8827C71.5334 20.2242 71.5334 20.5281 71.5334 20.7969C71.5334 21.0645 71.5334 21.4544 71.5334 21.9665C71.5334 22.4787 71.5334 23.3008 71.5334 24.433H72.8233C73.0051 24.433 73.1328 24.5153 73.205 24.68C73.2773 24.8446 73.3146 25.0359 73.3146 25.2551C73.3146 25.536 73.2604 25.8096 73.1508 26.0772C72.5571 26.0772 71.9513 26.0893 71.3335 26.1136C70.7156 26.1257 70.1038 26.1317 69.498 26.1317Z" fill="#FDF5EB"/>
<path d="M76.7319 26.8811C76.4657 26.8811 76.1959 26.823 75.9225 26.708C75.6503 26.5917 75.4348 26.4307 75.277 26.2237C75.0229 25.8096 74.9073 25.3349 74.9313 24.7985C74.9313 24.3844 75.0891 23.9606 75.4034 23.5284C75.7178 23.0961 76.1116 22.8794 76.5849 22.8794C76.8631 22.8794 77.1148 22.9496 77.3389 23.0901C77.5629 23.2305 77.7784 23.4037 77.9844 23.6107C78.2506 23.9025 78.3842 24.2258 78.3842 24.5794C78.3481 25.0794 78.2325 25.5299 78.0386 25.9318C77.7965 26.3823 77.4208 26.6934 76.9113 26.8642L76.7319 26.8811Z" fill="#FFB506"/>
<path d="M82.803 26.1318H80.8941C80.5665 26.1318 80.2462 26.104 79.9306 26.0495C79.6151 25.995 79.4585 25.8388 79.4585 25.5833C79.4826 25.2915 79.6127 25.105 79.8487 25.0263C80.0848 24.9476 80.3606 24.9077 80.6761 24.9077H81.076C81.2819 24.9077 81.418 24.8411 81.4854 24.7067C81.5517 24.5723 81.5854 24.4137 81.5854 24.2321C81.5854 24.0492 81.5734 23.8664 81.5493 23.6836C81.5252 23.5128 81.5132 23.3603 81.5132 23.2271L81.5493 22.3505C81.5493 22.0829 81.5433 21.8141 81.5312 21.5465C81.5192 21.3273 81.5132 21.1324 81.5132 20.9617V14.1097C81.5132 13.7803 81.5071 13.4583 81.4951 13.141C81.483 12.8117 81.477 12.4836 81.477 12.1542L81.4951 11.5694V10.4542C81.4951 10.3816 81.4493 10.3332 81.359 10.3077C81.2687 10.2835 81.1615 10.2714 81.041 10.2714C80.811 10.2714 80.599 10.2835 80.4051 10.3077C80.2714 10.3198 80.151 10.3259 80.0414 10.3259C79.7379 10.3259 79.544 10.2436 79.4597 10.0789C79.3742 9.91421 79.332 9.62483 79.332 9.21073C79.332 9.07633 79.438 8.98552 79.65 8.93709C79.862 8.88866 80.0956 8.86444 80.3497 8.86444L80.7496 8.8826C81.0639 8.8826 81.2915 8.76394 81.4313 8.52662C81.571 8.2893 81.6649 8.00234 81.7131 7.66816C81.7612 7.33276 81.7914 7.001 81.8034 6.67166C81.8154 6.36775 81.8395 6.12316 81.8757 5.94033C81.9238 5.69696 81.966 5.45358 82.0033 5.209C82.0876 4.63629 82.2033 4.06963 82.349 3.50902C82.4947 2.94842 82.7368 2.4314 83.0764 1.95555C83.2101 1.67585 83.4522 1.3562 83.8039 0.996589C84.1555 0.636978 84.6758 0.397238 85.3671 0.274946C85.6213 0.238622 85.8694 0.220459 86.1126 0.220459C86.6823 0.220459 87.2086 0.318534 87.694 0.513475C88.2877 0.756848 88.7093 1.15884 88.9574 1.71944C89.2055 2.28005 89.3295 2.77285 89.3295 3.19905C89.3295 3.67369 89.232 4.13743 89.0393 4.58786C88.9417 4.90509 88.7635 5.13635 88.5033 5.28165C88.2432 5.42816 87.9553 5.50081 87.6398 5.50081C87.264 5.50081 86.9063 5.40394 86.5679 5.209C86.3258 5.09882 86.156 4.96563 86.0584 4.80701C85.9609 4.6484 85.9127 4.48494 85.9127 4.31421C85.9127 4.14349 85.9428 3.96671 86.003 3.78388C86.0633 3.60104 86.1307 3.41821 86.203 3.23538C86.2632 3.08887 86.3186 2.94963 86.3668 2.81523C86.4764 2.65661 86.5306 2.52948 86.5306 2.4314C86.5306 2.34664 86.5004 2.27884 86.4402 2.23041C86.38 2.18197 86.3065 2.15776 86.2222 2.15776C86.0283 2.15776 85.8465 2.28005 85.6767 2.52342C85.0227 3.24264 84.5795 3.98487 84.3494 4.75253C84.3133 4.88693 84.2675 5.18236 84.2133 5.63884C84.1592 6.09531 84.1074 6.58569 84.0592 7.10997C84.011 7.63425 83.9869 8.0423 83.9869 8.3341C83.9869 8.58958 84.017 8.75183 84.0773 8.81843C84.1375 8.88502 84.2772 8.91893 84.4952 8.91893C84.6048 8.91893 84.7132 8.91287 84.8228 8.90076H86.2764C86.4944 8.90076 86.6763 8.97704 86.822 9.12961C86.9677 9.28217 87.04 9.43715 87.04 9.59577C87.04 9.7786 86.9123 9.96749 86.6582 10.1624C85.8344 10.2605 84.9866 10.3089 84.1134 10.3089V12.337C84.1254 12.4714 84.1315 12.6845 84.1315 12.9764L84.1134 14.2368V24.9077H85.3491C85.6514 24.9077 85.873 24.9779 86.0127 25.1184C86.1524 25.2588 86.2222 25.4077 86.2222 25.5664C86.2222 25.7613 86.1367 25.932 85.9681 26.0785C84.9227 26.1137 83.8689 26.1318 82.803 26.1318Z" fill="#E14646"/>
<path d="M91.4179 26.1317C90.8001 26.1317 90.1943 26.0252 89.6005 25.8121C89.0068 25.599 88.5154 25.2551 88.1288 24.7792C87.8253 24.4015 87.6386 23.9692 87.5652 23.4825C87.529 23.3481 87.4929 23.2209 87.4556 23.0986V22.5683C87.4556 21.8261 87.5254 21.0584 87.6651 20.2665C87.8048 19.4747 88.0927 18.793 88.5287 18.2203C89.1104 17.5023 89.8161 16.9743 90.6459 16.6402C91.4757 16.3048 92.7632 16.0408 94.5083 15.8459C94.5324 15.6751 94.5445 15.4863 94.5445 15.2792C94.5445 14.962 94.5324 14.646 94.5083 14.3287C94.4963 14.1701 94.4843 14.0357 94.4722 13.9267L94.5083 13.5974C94.5083 13.4025 94.4903 13.2015 94.4541 12.9944C94.4301 12.7874 94.418 12.5864 94.418 12.3914L94.4361 12.0803C94.4361 11.7388 94.2639 11.3526 93.9182 10.9203C93.5726 10.488 93.1522 10.2471 92.6548 10.1987C92.3393 10.1987 92.0731 10.2749 91.8551 10.4275C91.6371 10.5801 91.4252 10.7653 91.2192 10.9845C91.1951 11.0087 91.171 11.0268 91.147 11.039C90.8194 11.3308 90.6556 11.5753 90.6556 11.7703C90.6556 11.9168 90.7278 12.0379 90.8736 12.1359C91.0193 12.234 91.1759 12.3188 91.3457 12.3914C91.4553 12.452 91.5516 12.5077 91.6359 12.5561C92.108 12.9218 92.3453 13.354 92.3453 13.8529C92.3453 14.2912 92.1598 14.6847 91.7913 15.031C91.4215 15.3785 91.0253 15.5819 90.6014 15.6437C89.9715 15.5589 89.4476 15.1957 89.0297 14.5564C88.6118 13.9171 88.4022 13.2681 88.4022 12.6106C88.4022 11.9047 88.572 11.2315 88.9116 10.591C89.2513 9.95165 89.7415 9.431 90.3834 9.02901C90.723 8.83407 91.0554 8.69361 91.383 8.60886C91.7106 8.5241 92.1032 8.46235 92.5645 8.42603C92.8921 8.45024 93.1799 8.48414 93.428 8.52652C93.6761 8.5689 93.9278 8.63065 94.182 8.70935C94.4361 8.78927 94.6601 8.89582 94.854 9.02901C95.52 9.47943 96.0295 10.0134 96.3811 10.6285C96.7328 11.2436 96.9267 12.0149 96.9628 12.9399C97.0351 13.7197 97.0724 14.4934 97.0724 15.2611C97.0724 16.26 97.0423 17.1862 96.9821 18.0387C96.958 18.6598 96.946 19.178 96.946 19.5921C96.946 19.8476 96.952 20.0559 96.964 20.2133C96.964 20.7618 96.946 21.3526 96.9098 21.9859V24.8543H98.2551C98.449 24.8543 98.5972 24.927 98.7007 25.0735C98.8031 25.22 98.8549 25.3786 98.8549 25.5481C98.8549 25.6825 98.8128 25.8036 98.7272 25.9138C98.6417 26.0239 98.5093 26.0784 98.3274 26.0784L95.838 26.0966C95.5345 26.0966 95.2864 25.9961 95.0925 25.7951C94.8986 25.5941 94.7528 25.3628 94.6565 25.1013C94.5589 24.8398 94.5108 24.6291 94.5108 24.4705C94.2073 24.9705 93.7749 25.3725 93.2112 25.6764C92.6452 25.9791 92.0478 26.1317 91.4179 26.1317ZM91.1457 24.2683C91.5336 24.2683 91.9153 24.2077 92.2911 24.0854C92.3031 24.0733 92.3152 24.0673 92.3272 24.0673C92.7391 23.9704 93.1173 23.75 93.463 23.4098C93.8086 23.0684 94.1145 22.716 94.3807 22.3503C94.4289 22.3019 94.471 22.2474 94.5083 22.1857V18.3123C94.5083 18.1174 94.4686 17.983 94.3903 17.9103C94.3108 17.8377 94.2048 17.8001 94.0724 17.8001C93.9025 17.8001 93.7026 17.8304 93.4726 17.8909C93.4003 17.903 93.3269 17.9151 93.2546 17.9273C92.7933 18.0253 92.3453 18.1646 91.9093 18.3474C91.4733 18.5302 91.0976 18.8039 90.782 19.1695C90.5279 19.4868 90.3364 19.7701 90.21 20.0195C90.0823 20.269 89.9582 20.5765 89.8378 20.9422C89.7776 21.1977 89.7475 21.4846 89.7475 21.8006C89.7475 22.446 89.8499 23.049 90.057 23.6096C90.1666 23.853 90.3171 24.0237 90.511 24.1218C90.7025 24.2198 90.9145 24.2683 91.1457 24.2683Z" fill="#E14646"/>
<path d="M99.8151 26.1318C99.6332 26.1318 99.4875 26.0495 99.3791 25.8848C99.2707 25.7201 99.2153 25.547 99.2153 25.3642C99.2153 25.2298 99.2575 25.1087 99.343 24.9985C99.4273 24.8883 99.567 24.8338 99.7609 24.8338C100.439 24.8338 100.803 24.6268 100.851 24.2127L100.815 23.9754C100.875 23.5491 100.905 23.1169 100.905 22.6786C100.893 22.2403 100.881 21.8625 100.869 21.5453C100.869 21.2159 100.865 20.8938 100.859 20.5766C100.853 20.2594 100.85 19.8768 100.85 19.4251C100.85 18.3039 100.85 17.5314 100.85 17.104C100.862 16.7747 100.868 16.4344 100.868 16.0809C100.892 15.6062 100.904 15.1364 100.904 14.6739C100.904 13.8215 100.886 12.9994 100.85 12.2075C100.838 11.9278 100.826 11.6348 100.814 11.3309C100.814 11.1601 100.82 10.9834 100.832 10.8005C100.844 10.6419 100.85 10.4893 100.85 10.344V10.1975H99.7778C99.608 10.1975 99.4839 10.1431 99.4056 10.0329C99.3261 9.92269 99.2876 9.79555 99.2876 9.64904C99.2876 9.50254 99.3213 9.36571 99.3876 9.23737C99.4538 9.10902 99.5538 9.04606 99.6874 9.04606C100.753 9.04606 101.869 9.03395 103.032 9.00974C103.25 9.00974 103.384 9.09207 103.432 9.25674C103.48 9.42141 103.504 9.65631 103.504 9.96022L103.468 11.148L103.486 12.3722C103.74 11.9096 104.046 11.4035 104.404 10.855C104.761 10.3065 105.17 9.83188 105.631 9.42989C106.091 9.0279 106.595 8.8269 107.14 8.8269C107.904 8.86323 108.579 9.24463 109.167 9.9687C109.755 10.694 110.049 11.5428 110.049 12.5175C110.049 13.0538 109.963 13.629 109.795 14.2441C109.625 14.8592 109.361 15.3859 109.003 15.8242C108.646 16.2625 108.176 16.4816 107.594 16.4816C107.352 16.4816 107.109 16.4332 106.867 16.3351C106.527 16.2383 106.279 16.0397 106.121 15.7418C105.963 15.444 105.885 15.1485 105.885 14.8555C105.885 14.5879 105.967 14.307 106.131 14.0152C106.295 13.7222 106.54 13.5164 106.867 13.3941C107.121 13.3456 107.297 13.2149 107.394 13.0006C107.491 12.7875 107.54 12.5586 107.54 12.3152C107.54 12.0598 107.506 11.7546 107.44 11.4023C107.374 11.0487 107.23 10.7569 107.012 10.5257L106.849 10.4893C106.679 10.4893 106.527 10.5802 106.395 10.763C106.261 10.9458 106.14 11.1468 106.031 11.366C105.933 11.5488 105.843 11.7014 105.759 11.8225C105.649 12.0658 105.547 12.2668 105.449 12.4254C105.352 12.584 105.249 12.7427 105.14 12.9001C105.042 13.0345 104.934 13.1991 104.812 13.3941C104.654 13.6375 104.478 13.9123 104.285 14.2162C104.091 14.5213 103.849 14.91 103.557 15.3859C103.545 15.7879 103.533 16.1414 103.521 16.4453C103.509 16.7504 103.503 17.0544 103.503 17.3583C103.503 17.8329 103.521 18.2349 103.557 18.5642L103.575 19.861L103.557 22.273L103.593 23.9354L103.557 24.1727C103.557 24.4657 103.693 24.6607 103.967 24.7575C104.239 24.8556 104.521 24.904 104.812 24.904C105.03 24.904 105.184 24.9682 105.276 25.0954C105.367 25.2225 105.418 25.3787 105.43 25.5615C105.358 25.7928 105.212 25.9429 104.994 26.0095C104.776 26.0761 104.546 26.11 104.304 26.11L103.632 26.0919L101.342 26.0737C100.809 26.0773 100.299 26.0955 99.8151 26.1318Z" fill="#E14646"/>
<path d="M129.459 26.1317C129.169 26.1317 128.865 26.0954 128.551 26.0216C128.247 25.961 127.963 25.9307 127.697 25.9307C126.849 25.6014 126.425 24.9742 126.425 24.0491C126.389 23.5624 126.371 23.0805 126.371 22.6059C126.371 22.1433 126.383 21.6808 126.407 21.2171C126.419 20.7303 126.425 20.2302 126.425 19.7181V17.0507L126.443 15.9173L126.407 15.1134C126.407 14.7598 126.395 14.4377 126.371 14.1447C126.335 13.8154 126.317 13.3892 126.317 12.8661L126.335 12.0258C126.311 11.9047 126.293 11.7461 126.281 11.5512C126.281 11.3078 126.253 11.0644 126.199 10.8198C126.144 10.5765 126.008 10.3936 125.789 10.2713H125.68C125.437 10.2713 125.21 10.3537 124.998 10.5183C124.786 10.683 124.594 10.8779 124.426 11.1032C124.256 11.3284 124.116 11.533 124.008 11.7158C123.692 12.142 123.444 12.544 123.262 12.9218C123.165 13.1288 123.044 13.3541 122.899 13.5974C122.826 13.756 122.759 13.9147 122.699 14.0721C122.469 14.5467 122.275 15.0347 122.117 15.5335C122.045 16.0578 122.007 16.5506 122.007 17.0131V20.9604C122.007 21.0706 122.013 21.2158 122.026 21.3987C122.05 21.6421 122.062 21.8927 122.062 22.1482C122.062 22.3794 122.044 22.5925 122.007 22.7875L122.026 24.8519L122.589 24.8338C122.723 24.8338 122.837 24.858 122.935 24.9064C123.007 24.9427 123.065 25.0372 123.107 25.1897C123.149 25.3423 123.171 25.5094 123.171 25.6922C123.171 25.7782 123.165 25.8533 123.153 25.9211C123.141 25.9877 123.105 26.0337 123.043 26.0579C122.885 26.0821 122.728 26.0942 122.571 26.0942L121.844 26.076H120.48L119.663 26.0942C119.408 26.0942 119.093 26.0821 118.717 26.0579C118.535 26.0458 118.353 26.0397 118.172 26.0397C118.062 26.0397 117.968 25.9671 117.89 25.8206C117.81 25.6741 117.772 25.5227 117.772 25.3641C117.784 25.0105 117.917 24.8338 118.172 24.8338C118.377 24.858 118.553 24.8701 118.699 24.8701C118.869 24.8701 119.009 24.858 119.117 24.8338C119.189 24.5044 119.227 24.1823 119.227 23.8651L119.209 23.2621C119.257 21.9835 119.281 20.6674 119.281 19.3149V14.7102C119.305 14.4062 119.317 14.1011 119.317 13.796C119.317 13.3093 119.299 12.8213 119.263 12.3346C119.263 12.2498 119.257 12.1638 119.245 12.0791V11.9507C119.245 11.6335 119.141 11.2933 118.935 10.9276C118.729 10.5619 118.444 10.3791 118.081 10.3791C117.911 10.3791 117.724 10.4396 117.518 10.5619C117.142 10.9881 116.838 11.464 116.608 11.987C116.56 12.073 116.511 12.1578 116.463 12.2425C116.233 12.6808 116.039 13.1264 115.881 13.5768C115.845 13.6749 115.809 13.7718 115.771 13.8699C115.141 15.0758 114.826 16.1607 114.826 17.1221C114.862 17.7554 114.88 18.3947 114.88 19.0412C114.88 19.3221 114.862 19.5897 114.826 19.8452C114.802 20.0886 114.79 20.3332 114.79 20.5765C114.79 20.8574 114.802 21.1371 114.826 21.4168C114.85 21.6844 114.862 21.9593 114.862 22.239L114.844 24.7793C114.844 24.8156 114.862 24.8398 114.898 24.8519C114.934 24.864 114.976 24.8701 115.026 24.8701L115.335 24.8882C115.445 24.8519 115.535 24.8338 115.607 24.8338C115.886 24.8338 116.019 24.9742 116.007 25.2539C115.983 25.4731 115.91 25.6716 115.789 25.8472C115.668 26.024 115.486 26.1124 115.244 26.1124L115.08 26.0942L112.863 26.1124L111.681 26.076C111.402 26.076 111.199 26.0615 111.072 26.03C110.944 25.9998 110.856 25.9416 110.808 25.8569C110.76 25.7721 110.71 25.6619 110.662 25.5275C110.638 25.4307 110.602 25.3205 110.553 25.1982L110.535 25.1619C110.535 25.1498 110.541 25.134 110.553 25.1159C110.565 25.0977 110.577 25.082 110.589 25.0699C110.601 25.0578 110.609 25.0456 110.617 25.0335C110.623 25.0214 110.626 25.0093 110.626 24.9972H110.608C110.656 24.9125 110.726 24.8568 110.818 24.8325C110.908 24.8083 111.008 24.7962 111.118 24.7962H111.499C111.633 24.7962 111.751 24.7684 111.853 24.7139C111.956 24.6594 112.008 24.5286 112.008 24.3204L111.953 14.508C111.965 14.204 111.971 13.9776 111.971 13.8323C111.984 13.7221 111.99 13.6071 111.99 13.4848C111.99 13.3637 111.99 13.193 111.99 12.9726L111.899 10.195L110.572 10.1769C110.45 10.1285 110.36 10.0364 110.3 9.90324C110.24 9.76884 110.209 9.63565 110.209 9.50125C110.209 9.35474 110.255 9.21187 110.346 9.07142C110.436 8.93096 110.518 8.86073 110.591 8.86073L113.281 8.82441C113.571 8.82441 113.835 8.83047 114.071 8.84257C114.307 8.85468 114.449 8.87284 114.498 8.89706C114.619 8.89706 114.698 9.05204 114.734 9.36322C114.77 9.6744 114.788 10.0062 114.788 10.3585C114.788 10.6757 114.776 11.0838 114.752 11.5826C115.019 11.0705 115.282 10.6503 115.542 10.3222C115.803 9.99284 116.114 9.69135 116.478 9.41771C116.842 9.14407 117.254 8.97576 117.714 8.91522C117.992 8.78082 118.314 8.71423 118.677 8.71423C119.162 8.71423 119.647 8.8123 120.131 9.00724C120.543 9.15375 120.837 9.38865 121.013 9.71072C121.188 10.034 121.319 10.3718 121.403 10.7254C121.439 10.8477 121.475 10.9627 121.512 11.0729V11.2012C121.512 11.372 121.527 11.539 121.558 11.7037C121.588 11.8684 121.634 11.9507 121.694 11.9507C121.912 11.6093 122.094 11.3235 122.24 11.0923C122.398 10.8368 122.554 10.5934 122.712 10.3609C122.87 10.1297 123.076 9.84876 123.33 9.52063C123.826 9.0581 124.481 8.78324 125.293 8.69849C126.505 8.69849 127.456 9.04236 128.146 9.73131C128.836 10.419 129.182 11.47 129.182 12.883V15.1303C129.206 15.7515 129.218 16.4222 129.218 17.1403C129.218 17.8474 129.23 18.517 129.254 19.1502C129.218 19.4674 129.2 19.7774 129.2 20.0825L129.218 21.1783V21.946C129.218 22.3843 129.23 22.8165 129.254 23.2427C129.266 23.6084 129.272 23.9256 129.272 24.1932C129.308 24.3397 129.382 24.4669 129.49 24.5771C129.6 24.6872 129.714 24.7902 129.836 24.8882C129.982 24.9863 130.106 25.0929 130.208 25.2079C130.31 25.3241 130.362 25.4488 130.362 25.582C130.362 25.668 130.338 25.7649 130.29 25.875C130.053 26.047 129.773 26.1317 129.459 26.1317Z" fill="#E14646"/>
</svg>
