<svg width="131" height="28" viewBox="0 0 131 28" fill="none" xmlns="http://www.w3.org/2000/svg">
<path d="M8.19356 26.6415C6.9085 26.6415 5.71859 26.3158 4.62261 25.6643C3.52543 25.0129 2.66913 24.1327 2.05129 23.0236C1.52979 22.0004 1.14801 20.9591 0.905931 19.8985C0.663853 18.839 0.488015 17.7783 0.378418 16.7189C0.378418 14.8918 0.572321 13.0828 0.960128 11.292C1.1179 10.1103 1.48041 8.96605 2.05008 7.85695C2.3042 7.2237 2.60168 6.61466 2.94011 6.02984C3.14606 5.66417 3.33996 5.29245 3.52182 4.91468C3.73981 4.6592 3.9578 4.39767 4.17579 4.12887C4.65995 3.42296 5.28501 2.80666 6.04738 2.28359C6.65318 1.79684 7.32521 1.40333 8.0647 1.10547C8.80418 0.807611 9.68818 0.657471 10.7179 0.657471C11.6381 0.669579 12.4016 0.822141 13.0074 1.11395C13.6132 1.40696 14.1889 1.89371 14.7345 2.57539C14.9766 2.89263 15.1464 3.24497 15.2439 3.63485C15.3403 4.02474 15.3897 4.42067 15.3897 4.82266C15.3535 5.83369 15.1741 6.72606 14.8537 7.49976C14.5322 8.27347 13.9601 8.9709 13.1363 9.59204C12.4089 9.98193 11.6513 10.1769 10.8649 10.1769C10.3313 10.1769 9.8592 10.0425 9.44731 9.77488C9.21728 9.64048 9.04746 9.46128 8.93786 9.23607C8.82827 9.01085 8.77407 8.76385 8.77407 8.49626C8.77407 8.11849 8.86801 7.75646 9.05589 7.40895C9.24377 7.06145 9.48946 6.81566 9.79176 6.66915C10.07 6.57228 10.3253 6.52264 10.5553 6.52264C10.8576 6.52264 11.125 6.58076 11.355 6.69579C11.5851 6.81202 11.7754 6.94521 11.9271 7.09777C12.0789 7.25034 12.233 7.44164 12.3908 7.67291C12.6449 7.46586 12.8509 7.25276 13.0086 7.0336C13.1664 6.81444 13.3085 6.52869 13.4362 6.17514C13.5638 5.82158 13.6265 5.38932 13.6265 4.87836L13.6084 4.47637C13.5229 3.64817 13.2543 3.03914 12.7991 2.64925C12.345 2.25937 11.8753 2.06443 11.39 2.06443H11.3177C10.748 2.06443 10.2024 2.25574 9.68216 2.63957C9.16067 3.0234 8.67892 3.50167 8.23692 4.07438C7.79492 4.64709 7.39507 5.24039 7.03737 5.85548C6.67967 6.47057 6.37376 7.02755 6.11964 7.52761C5.1983 9.3184 4.59852 11.1697 4.32031 13.0828C4.11437 14.1544 4.01079 15.2332 4.01079 16.3169C4.01079 17.8159 4.21072 19.3076 4.61057 20.7933C5.12002 22.1942 5.78603 23.2234 6.60982 23.8808C7.43361 24.5383 8.26342 24.8676 9.09925 24.8676C9.74118 24.8676 10.3169 24.7514 10.8263 24.5201C11.3358 24.2889 11.7681 24.008 12.1258 23.6798C12.4835 23.3505 12.7533 23.0405 12.9352 22.7475C13.3109 22.1385 13.5927 21.5536 13.7806 20.993C13.9685 20.4324 14.0624 19.7507 14.0624 18.9468C14.0624 18.569 14.0384 18.2033 13.9902 17.851C13.942 17.4974 13.8565 17.2117 13.7361 16.9925C13.6506 17.0652 13.5482 17.1511 13.4265 17.248C13.2206 17.455 12.9749 17.6597 12.6907 17.8607C12.4064 18.0617 12.0692 18.1622 11.6814 18.1622L11.4815 18.144C10.1121 18.0471 9.40998 17.4018 9.37264 16.2067C9.37264 15.5492 9.6665 14.9983 10.2542 14.5527C10.842 14.1084 11.5417 13.8856 12.3535 13.8856C12.9111 13.8856 13.4735 14.026 14.0432 14.3057C14.6128 14.5866 15.0886 15.0092 15.4704 15.5759C15.8521 16.1425 16.0545 16.846 16.0798 17.6863L16.1159 19.0933C16.1159 19.8488 16.0183 20.5826 15.8256 21.2945C15.6317 22.0077 15.3042 22.7051 14.8441 23.3868C14.7345 23.5091 14.6321 23.6362 14.5346 23.7706C14.0865 24.3918 13.4446 24.9948 12.6076 25.5796C11.9656 25.9937 11.3081 26.2746 10.636 26.4199C9.96519 26.5688 9.14983 26.6415 8.19356 26.6415Z" fill="#3A3028"/>
<path d="M35.4927 26.6414L32.3481 26.6233C32.0085 26.6233 31.5605 26.6293 31.0028 26.6414L29.1854 26.6233C28.6278 26.5869 28.3496 26.3678 28.3496 25.9658C28.3496 25.881 28.3592 25.7769 28.3773 25.6546C28.3954 25.5335 28.4411 25.4233 28.5134 25.3253C28.5857 25.2284 28.6892 25.1788 28.8229 25.1788H30.2766C30.2886 25.1788 30.2947 25.1667 30.2947 25.1424L30.2766 24.9596C30.2766 24.9233 30.2826 24.8313 30.2947 24.686C30.3067 24.5395 30.3188 24.3639 30.3308 24.1556C30.3549 23.8384 30.3766 23.5284 30.3946 23.2233C30.4127 22.9194 30.4223 22.7051 30.4223 22.584V21.1225C30.4344 21.1225 30.4404 21.0438 30.4404 20.8852C30.4404 20.7266 30.4404 20.5256 30.4404 20.2822L30.4223 15.933L28.8952 15.9149C28.6892 15.9149 28.5375 15.9185 28.4411 15.9245C28.3436 15.9306 28.2713 15.9342 28.2232 15.9342C28.1629 15.9463 28.1015 15.9524 28.0413 15.9524L27.3139 15.9342H23.3515L22.5698 15.9161C22.4976 15.9161 22.4542 15.9221 22.4422 15.9342V21.1238C22.4542 21.1238 22.4603 21.1516 22.4603 21.2061C22.4603 21.2606 22.4603 21.3308 22.4603 21.4168L22.4422 22.5864C22.4422 22.7087 22.4518 22.9218 22.4699 23.2257C22.488 23.5309 22.5096 23.8408 22.5337 24.158C22.5458 24.3651 22.5578 24.5419 22.5698 24.6884C22.5819 24.8349 22.5879 24.9257 22.5879 24.962L22.5698 25.1449C22.5698 25.1691 22.5759 25.1812 22.5879 25.1812H24.0416C24.1873 25.1812 24.2933 25.2296 24.3595 25.3277C24.4258 25.4258 24.4691 25.5347 24.4872 25.657C24.5053 25.7793 24.5149 25.8822 24.5149 25.9682C24.5149 26.3702 24.2427 26.5894 23.6971 26.6257L21.8617 26.6438C21.3161 26.6317 20.8681 26.6257 20.5164 26.6257L17.4814 26.6438C17.3116 26.5337 17.2092 26.4186 17.1719 26.2963C17.1357 26.1753 17.1177 26.0045 17.1177 25.7842C17.1177 25.7357 17.1177 25.6873 17.1177 25.6377C17.1177 25.4306 17.1538 25.3023 17.2273 25.2538C17.2754 25.2054 17.4392 25.1812 17.7174 25.1812H19.0073C19.0194 24.3288 19.0254 23.6156 19.0254 23.0429C19.0254 21.8248 19.0073 20.4966 18.9712 19.0593C18.9471 18.219 18.9351 17.6342 18.9351 17.3049C18.9471 17.1838 18.9531 17.0736 18.9531 16.9755C18.9531 16.8787 18.9531 16.8109 18.9531 16.7745C18.9772 14.9111 19.0013 13.5586 19.0254 12.7183C19.0374 11.8659 19.0459 11.1188 19.0531 10.4795C19.0591 9.84022 19.0627 8.83161 19.0627 7.45492L19.0989 5.88329C19.0989 5.62781 19.0928 5.3469 19.0808 5.04298C19.0687 4.77539 19.0627 4.53808 19.0627 4.32982L19.0808 3.61665L19.0266 2.48333C19.0266 2.20363 19.0326 2.05712 19.0447 2.04502H18.027C17.7969 2.04502 17.5729 2.00264 17.3549 1.91667C17.1369 1.83191 17.0273 1.60549 17.0273 1.24104C17.0273 1.14417 17.0671 1.03762 17.1454 0.921385C17.2237 0.805147 17.3116 0.748239 17.4091 0.748239C17.4814 0.748239 17.5368 0.745817 17.5729 0.738552C17.6091 0.732498 17.6392 0.728865 17.6633 0.728865C17.6753 0.728865 17.697 0.728865 17.7271 0.728865C17.7572 0.728865 17.7993 0.728865 17.8547 0.728865C17.9089 0.728865 17.9945 0.728865 18.1089 0.728865C18.2245 0.728865 18.3847 0.728865 18.5906 0.728865C18.9905 0.728865 19.4746 0.732498 20.0443 0.738552C20.614 0.744606 21.1463 0.754293 21.6437 0.766401C22.1278 0.766401 22.5891 0.754293 23.0251 0.730076C23.3394 0.717968 23.6008 0.711914 23.8067 0.711914C24.0247 0.711914 24.1705 0.730077 24.2427 0.766401C24.2548 0.778509 24.2728 0.790617 24.2969 0.802725C24.3451 0.826941 24.3933 0.866898 24.4426 0.921385C24.4908 0.975871 24.5149 1.08848 24.5149 1.2592C24.5149 1.55101 24.427 1.752 24.2511 1.86218C24.0753 1.97237 23.7995 2.02685 23.4237 2.02685H22.5144L22.4603 3.96415C22.4603 4.24506 22.4663 4.55503 22.4783 4.89648C22.4904 5.22582 22.4964 5.52973 22.4964 5.80943V6.08307C22.4964 6.37609 22.4964 6.66184 22.4964 6.94154C22.5084 7.74551 22.4723 8.73838 22.3868 9.92013V9.99278C22.3868 10.103 22.3928 10.2664 22.4048 10.4856C22.4289 10.9118 22.441 11.4118 22.441 11.9846V14.2863H24.6221C24.7064 14.2742 24.9557 14.2657 25.3676 14.2585C25.7795 14.2524 26.2516 14.2488 26.7851 14.2488C27.5848 14.2488 28.2027 14.2524 28.6387 14.2585C29.0746 14.2645 29.4203 14.2681 29.6744 14.2681C29.9285 14.2803 30.1766 14.2863 30.4199 14.2863C30.432 12.7026 30.444 11.6128 30.4561 11.0159C30.4681 10.6381 30.4741 10.2979 30.4741 9.99278V9.92013C30.3886 8.73838 30.3525 7.74551 30.3645 6.94154C30.3645 6.66184 30.3645 6.37488 30.3645 6.08307V5.80943C30.3645 5.48009 30.3705 5.12169 30.3826 4.73181C30.3946 4.36614 30.4007 4.03196 30.4007 3.72683C30.3886 3.1299 30.3766 2.65527 30.3645 2.30171C30.3525 2.1552 30.3465 2.06439 30.3465 2.02807H29.4552C29.0795 2.02807 28.8013 1.97358 28.6194 1.8634C28.4375 1.75321 28.3472 1.55222 28.3472 1.26041C28.3472 1.08969 28.3713 0.977082 28.4195 0.922596C28.4676 0.868109 28.5158 0.828152 28.5652 0.803936C28.5893 0.791828 28.6073 0.779719 28.6194 0.767611C28.6917 0.731287 28.8554 0.713125 29.1096 0.713125C29.3155 0.713125 29.5757 0.719179 29.8912 0.731287C30.3031 0.755504 30.7511 0.767611 31.2365 0.767611C31.7327 0.755503 32.2662 0.747028 32.8359 0.739763C33.4056 0.733709 33.8897 0.730076 34.2896 0.730076C34.4835 0.730076 34.6171 0.730076 34.6894 0.730076C34.7617 0.730076 34.8171 0.730076 34.8532 0.730076C34.8893 0.730076 34.9291 0.730076 34.9712 0.730076C35.0134 0.730076 35.0712 0.730076 35.1435 0.730076C35.2157 0.742185 35.3193 0.748239 35.453 0.748239C35.5626 0.748239 35.6529 0.806358 35.7252 0.921385C35.7974 1.03762 35.8348 1.14417 35.8348 1.24104C35.8348 1.6067 35.7288 1.83191 35.5168 1.91667C35.3048 2.00264 35.0772 2.04502 34.8351 2.04502H33.8174L33.8355 2.48333C33.8355 2.59351 33.8295 2.7267 33.8174 2.88532C33.8054 3.09237 33.7994 3.29942 33.7994 3.50647L33.8174 4.29228C33.8174 4.49933 33.8114 4.74876 33.7994 5.04177C33.7753 5.35901 33.7632 5.65686 33.7632 5.93656C33.7632 6.29012 33.7693 6.60614 33.7813 6.88705C33.7934 7.16796 33.8054 7.35563 33.8174 7.45371C33.8174 7.53968 33.8174 7.68497 33.8174 7.89202C33.8174 8.09907 33.8114 8.31823 33.7994 8.54949C33.7994 9.06166 33.8054 9.81358 33.8174 10.8064C33.8295 11.7993 33.8476 12.8382 33.8716 13.9219C33.8957 15.4693 33.9138 16.7418 33.9258 17.7408C33.9258 18.4963 33.9138 19.264 33.8897 20.0425C33.8656 20.7738 33.8476 21.6262 33.8355 22.6009C33.8355 23.2584 33.8476 24.1181 33.8716 25.1776H35.2531C35.5192 25.1776 35.683 25.2018 35.7432 25.2502C35.7914 25.2986 35.8215 25.3604 35.8336 25.433C35.8456 25.5057 35.8516 25.6159 35.8516 25.7624C35.8516 25.9936 35.8275 26.174 35.7794 26.3012C35.7348 26.4307 35.6372 26.5446 35.4927 26.6414Z" fill="#3A3028"/>
<path d="M42.6903 26.6416L40.0732 26.6234C39.7336 26.6234 39.2976 26.6295 38.7641 26.6416L37.0189 26.6234C36.4974 26.5871 36.2373 26.3679 36.2373 25.966C36.2373 25.8812 36.2469 25.7771 36.265 25.6548C36.2831 25.5337 36.3228 25.4235 36.383 25.3254C36.4432 25.2286 36.5408 25.1789 36.6733 25.1789H38.0728C38.0848 25.1789 38.0908 25.1668 38.0908 25.1426L38.0728 24.9598C38.0728 24.9234 38.0788 24.8314 38.0908 24.6861C38.1029 24.5396 38.1149 24.364 38.127 24.1558C38.151 23.8386 38.1727 23.5286 38.1908 23.2235C38.2089 22.9196 38.2185 22.7052 38.2185 22.5842L38.2004 21.561C38.2004 21.4399 38.2004 21.3358 38.2004 21.2498C38.2004 21.1651 38.2064 21.1215 38.2185 21.1215V17.0483L38.2004 14.2707C38.2125 12.773 38.2305 11.7062 38.2546 11.073C38.2667 10.671 38.2727 10.3114 38.2727 9.99536V9.92271C38.1884 8.74096 38.151 7.74809 38.1631 6.94412C38.1631 6.66442 38.1631 6.37746 38.1631 6.08565V5.81201C38.1631 5.53231 38.1691 5.22719 38.1812 4.89906C38.1932 4.55761 38.1992 4.24764 38.1992 3.96673L38.145 2.02943H37.2731C36.9214 2.02943 36.6576 1.97495 36.483 1.86476C36.3072 1.75458 36.2192 1.55359 36.2192 1.26178C36.2192 1.09106 36.2433 0.97845 36.2915 0.923964C36.3397 0.869477 36.3878 0.829521 36.4372 0.805305C36.4613 0.793197 36.4794 0.781088 36.4914 0.76898C36.5637 0.732656 36.7154 0.714494 36.9455 0.714494C37.1514 0.714494 37.4055 0.720548 37.709 0.732657C38.1089 0.756873 38.5389 0.76898 38.9989 0.76898C39.4831 0.756872 39.9985 0.748397 40.5441 0.741132C41.0897 0.735078 41.5498 0.731445 41.9255 0.731445C42.0833 0.731445 42.2037 0.731445 42.2893 0.731445C42.3615 0.731445 42.4169 0.731445 42.4531 0.731445C42.4892 0.731445 42.5289 0.731445 42.5711 0.731445C42.6132 0.731445 42.6771 0.731445 42.7614 0.731445C42.8336 0.743554 42.9312 0.749608 43.0516 0.749608C43.148 0.749608 43.2335 0.807727 43.3057 0.922754C43.378 1.03899 43.4153 1.14554 43.4153 1.24241C43.4153 1.60807 43.3118 1.83328 43.1058 1.91804C42.8999 2.00401 42.6819 2.04639 42.4518 2.04639H41.4727L41.4908 2.4847C41.4908 2.58277 41.4908 2.66511 41.4908 2.7317C41.4908 2.7983 41.4908 2.86853 41.4908 2.94239C41.4787 3.06468 41.4667 3.25356 41.4546 3.50905L41.4727 4.33119C41.4727 4.53823 41.4667 4.77555 41.4546 5.04435C41.4426 5.34948 41.4366 5.62918 41.4366 5.88466L41.4727 7.45629V10.4712C41.4847 10.7025 41.4932 11.0657 41.5004 11.5585C41.5064 12.0525 41.51 12.5671 41.51 13.1023C41.5221 13.0902 41.5341 13.0781 41.5462 13.066C41.6558 12.9558 41.822 12.7923 42.046 12.5732C42.27 12.354 42.4916 12.1712 42.7096 12.0247C43.885 10.5632 44.9208 9.0037 45.8181 7.34731C45.9277 7.16448 46.036 6.9756 46.1456 6.78066C46.4239 6.34234 46.6599 5.87376 46.855 5.37369C46.9755 5.05646 47.1152 4.74649 47.2729 4.44137C47.3332 4.22221 47.4548 3.93646 47.6367 3.5829C47.7703 3.32742 47.8908 3.07073 48.0004 2.81525C48.11 2.55977 48.1642 2.34667 48.1642 2.17594C48.1521 2.07908 48.1184 2.01127 48.0642 1.97495C48.01 1.93862 47.892 1.92046 47.7101 1.92046L47.0742 1.93862C46.7587 1.93862 46.4889 1.89261 46.2649 1.8018C46.0409 1.71099 45.9289 1.5669 45.9289 1.37196C45.9289 1.10438 45.9746 0.923964 46.065 0.833153C46.1553 0.742342 46.2854 0.67817 46.4552 0.641846C46.9646 0.641846 47.3609 0.645477 47.6451 0.651531C47.9293 0.657586 48.181 0.661218 48.399 0.661218C48.5809 0.661218 48.7808 0.664851 48.9988 0.670905C49.2168 0.676959 49.501 0.680592 49.8527 0.680592L51.3979 0.644267C51.6279 0.644267 51.8182 0.67817 51.97 0.744764C52.1217 0.811359 52.1976 0.955445 52.1976 1.1746C52.1976 1.39376 52.076 1.63108 51.8339 1.88777C51.4942 1.97374 51.1679 2.01612 50.8523 2.01612C50.6705 2.01612 50.4645 2.00401 50.2345 1.97979C50.0285 2.49075 49.8527 2.91817 49.707 3.25841C49.4276 4.12293 49.0951 4.97655 48.7073 5.81685C48.4653 6.36535 48.2412 6.90779 48.0353 7.44297C47.5632 8.42978 47.0839 9.35 46.5997 10.2024C46.1143 11.0548 45.4182 12.17 44.5101 13.5467C44.692 14.0467 44.928 14.6618 45.2195 15.3919C45.4736 16.0373 45.6976 16.6161 45.8915 17.1282C46.2312 18.1393 46.6551 19.1321 47.1633 20.1068C47.4054 20.5948 47.6355 21.0815 47.8534 21.5683C47.9498 21.739 48.0413 21.9097 48.1256 22.0805C48.3316 22.5188 48.5556 22.9208 48.7977 23.2864C49.0397 23.6521 49.3493 23.9754 49.725 24.2551C49.8214 24.2914 49.9189 24.3096 50.0153 24.3096C50.379 24.3096 50.6789 24.1183 50.9149 23.7344C51.151 23.3506 51.2871 22.9946 51.3244 22.6653C50.5488 22.6653 49.8708 22.4001 49.289 21.871C48.7073 21.3407 48.4171 20.6505 48.4171 19.7969C48.4171 19.4191 48.499 19.0595 48.6628 18.7193C48.8266 18.3778 49.0831 18.1223 49.4348 17.9516C49.6528 17.9032 49.8768 17.8789 50.1068 17.8789C50.5428 17.8789 50.9643 17.9613 51.3702 18.126C51.7761 18.2906 52.1302 18.5316 52.4337 18.8476C52.4457 18.8839 52.4638 18.9142 52.4879 18.9384C52.754 19.413 52.9973 19.901 53.2153 20.3999C53.4333 20.8999 53.5429 21.423 53.5429 21.9715C53.5429 22.5805 53.4574 23.1617 53.2888 23.7163C53.1189 24.2708 52.8227 24.7915 52.3987 25.2782C51.5509 26.1682 50.5994 26.6125 49.5456 26.6125C48.3701 26.6367 47.4066 26.2105 46.6551 25.3339C45.8915 24.2006 45.2436 23.0019 44.71 21.7342C44.1645 20.6384 43.6923 19.4687 43.2925 18.2252C43.0504 17.5072 42.7951 16.8122 42.5289 16.1426C42.4928 16.0458 42.4567 15.9477 42.4193 15.8496C42.3832 15.7528 42.3398 15.6426 42.2917 15.5203C42.17 15.6063 42.0677 15.6789 41.9821 15.7394C41.8966 15.8 41.8159 15.8581 41.7365 15.9126C41.657 15.9671 41.6004 16.0131 41.5642 16.0494C41.5642 16.2686 41.5642 16.4369 41.5642 16.5519C41.5642 16.6681 41.5642 16.7565 41.5642 16.8171C41.5642 16.8776 41.5642 16.9394 41.5642 16.9999C41.5763 17.0483 41.5823 17.1307 41.5823 17.2469C41.5823 17.3631 41.5823 17.5423 41.5823 17.7857C41.5823 18.419 41.5702 19.2048 41.5462 20.1432C41.5221 21.1905 41.51 22.1592 41.51 23.0491C41.51 23.6218 41.5161 24.335 41.5281 25.1874H42.4555C42.7216 25.1874 42.8854 25.2116 42.9456 25.26C42.9818 25.3085 43.0095 25.3702 43.0275 25.4429C43.0456 25.5155 43.0552 25.6257 43.0552 25.7722C43.0552 26.0035 43.0311 26.1839 42.983 26.311C42.9324 26.4309 42.8348 26.5447 42.6903 26.6416Z" fill="#3A3028"/>
<path d="M69.498 26.6415L68.0985 26.6052C67.5048 26.6052 67.1832 26.294 67.135 25.6728C67.135 25.3072 67.253 25.0941 67.4891 25.0335C67.7252 24.973 68.1828 24.9427 68.8609 24.9427C68.7031 24.7236 68.567 24.5347 68.4514 24.3761C68.3358 24.2174 68.2274 24.0588 68.1238 23.9014C68.0202 23.7428 67.9383 23.6096 67.8781 23.4994C67.624 23.1217 67.3747 22.7439 67.1326 22.3661C66.4786 21.3914 65.8475 20.4046 65.2429 19.4057C64.8551 18.7119 64.4613 18.0229 64.0615 17.3412C63.6014 16.5736 63.1522 15.7878 62.7162 14.9838C62.1826 14.1556 61.7045 13.2971 61.2806 12.4072C60.953 11.7618 60.6085 11.1225 60.2448 10.4881C60.0389 10.1708 59.7787 9.72646 59.4632 9.15375C59.2813 8.83651 59.1151 8.54471 58.9634 8.27712C58.8116 8.00953 58.6936 7.8267 58.6093 7.72862C58.5491 11.5657 58.5189 15.3846 58.5189 19.1853V25.0868H60.0088L60.299 25.0686C60.7109 25.0686 60.9108 25.2636 60.8988 25.6535C60.8867 26.0918 60.6868 26.409 60.299 26.604L59.3355 26.5858L55.9729 26.604C55.6827 26.604 55.3936 26.5616 55.1094 26.4756C54.8239 26.3909 54.6818 26.2141 54.6818 25.9453C54.6939 25.7867 54.7782 25.5736 54.9359 25.306C55.0323 25.2212 55.16 25.1631 55.3177 25.1328C55.4755 25.1025 55.6574 25.0868 55.8633 25.0868H56.5173C56.4812 24.2344 56.4631 23.3687 56.4631 22.492C56.4631 21.2255 56.4812 19.9457 56.5173 18.655C56.5655 17.3764 56.5895 16.1086 56.5895 14.8542C56.5775 14.1483 56.5655 13.612 56.5534 13.2463C56.5534 13.0029 56.5498 12.7499 56.5438 12.4883C56.5378 12.2268 56.5341 11.889 56.5341 11.4737C56.5341 10.4868 56.5462 9.50004 56.5703 8.51323C56.5823 8.28196 56.5883 8.04464 56.5883 7.80127L56.5703 6.19331C56.5703 4.98734 56.6004 3.77532 56.6606 2.55725H55.225C54.995 2.55725 54.8071 2.48097 54.6614 2.3284C54.5156 2.17584 54.4434 1.93489 54.4434 1.60676C54.4434 1.47236 54.4614 1.32101 54.4976 1.15028C54.5337 0.97956 54.5999 0.820944 54.6975 0.675647L58.2058 0.693809L61.059 0.675647C61.3131 0.675647 61.507 0.751928 61.6407 0.90449C61.7744 1.05705 61.8406 1.23625 61.8406 1.4433C61.8406 1.71089 61.737 1.96395 61.5311 2.20127C61.3251 2.43859 61.0156 2.55725 60.6037 2.55725H59.8401C59.9365 2.7643 60.022 2.9435 60.0943 3.09606C60.1665 3.24862 60.24 3.40118 60.3123 3.55253C60.3845 3.7051 60.452 3.82981 60.5122 3.92667C61.2878 5.26704 62.0755 6.60014 62.8752 7.9284C63.3714 8.74449 63.8627 9.56058 64.3469 10.3767C64.7588 10.9615 65.1526 11.5645 65.5284 12.1856C65.8066 12.6481 66.098 13.1058 66.4003 13.5563C66.6304 13.9219 66.9182 14.3421 67.2639 14.8167C67.6095 15.2913 67.954 15.7575 68.2996 16.214C68.6453 16.6705 69.0596 17.2032 69.545 17.8135C69.545 15.5844 69.5389 13.727 69.5269 12.2401C69.5149 10.8029 69.5088 9.09684 69.5088 7.12443C69.5209 6.57593 69.5269 5.93662 69.5269 5.20529L69.5088 2.13588C69.2053 2.17221 68.9572 2.19037 68.7633 2.19037C68.5694 2.19037 68.3695 2.17221 68.1635 2.13588L67.9998 2.17221C67.7697 2.17221 67.5879 2.06566 67.4542 1.85256C67.3205 1.63945 67.2542 1.41061 67.2542 1.16724C67.2542 1.04615 67.2723 0.923863 67.3084 0.801572C67.5626 0.68049 67.7685 0.600577 67.9263 0.564253C68.0841 0.527928 68.3141 0.509766 68.6164 0.509766C69.0042 0.509766 69.386 0.527928 69.7617 0.564253C70.064 0.588469 70.3495 0.606631 70.6156 0.618739C70.8336 0.618739 71.0878 0.60663 71.3792 0.582414C71.7068 0.558198 72.0091 0.54609 72.2885 0.54609C72.3126 0.54609 72.3367 0.54609 72.3608 0.54609C72.6631 0.54609 72.8787 0.576361 73.0063 0.636901C73.134 0.697442 73.2942 0.856058 73.4881 1.11154C73.5724 1.30648 73.6157 1.4651 73.6157 1.58618C73.6157 1.82955 73.4977 1.97364 73.2617 2.01601C73.0256 2.05839 72.7558 2.07413 72.4523 2.06203C72.2584 2.06203 72.0765 2.06808 71.9067 2.08019C71.7369 2.0923 71.5972 2.12862 71.4888 2.19037C71.4527 2.9217 71.4346 3.65182 71.4346 4.38315L71.4708 7.65355L71.4611 8.9358C71.4611 10.2641 71.4732 11.5487 71.4972 12.791C71.5093 14.0091 71.5153 15.2332 71.5153 16.4634V17.3957C71.5153 18.9432 71.5213 19.9421 71.5334 20.3925C71.5334 20.7339 71.5334 21.0379 71.5334 21.3067C71.5334 21.5742 71.5334 21.9641 71.5334 22.4763C71.5334 22.9885 71.5334 23.8106 71.5334 24.9427H72.8233C73.0051 24.9427 73.1328 25.0251 73.205 25.1897C73.2773 25.3544 73.3146 25.5457 73.3146 25.7649C73.3146 26.0458 73.2604 26.3194 73.1508 26.587C72.5571 26.587 71.9513 26.5991 71.3335 26.6233C70.7156 26.6354 70.1038 26.6415 69.498 26.6415Z" fill="#3A3028"/>
<path d="M76.7319 27.3909C76.4657 27.3909 76.1959 27.3328 75.9225 27.2177C75.6503 27.1015 75.4348 26.9405 75.277 26.7334C75.0229 26.3193 74.9073 25.8447 74.9313 25.3083C74.9313 24.8942 75.0891 24.4704 75.4034 24.0382C75.7178 23.6059 76.1116 23.3892 76.5849 23.3892C76.8631 23.3892 77.1148 23.4594 77.3389 23.5998C77.5629 23.7403 77.7784 23.9134 77.9844 24.1205C78.2506 24.4123 78.3842 24.7356 78.3842 25.0891C78.3481 25.5892 78.2325 26.0396 78.0386 26.4416C77.7965 26.892 77.4208 27.2032 76.9113 27.3739L76.7319 27.3909Z" fill="#FFB506"/>
<path d="M82.803 26.6416H80.8941C80.5665 26.6416 80.2462 26.6137 79.9306 26.5592C79.6151 26.5048 79.4585 26.3486 79.4585 26.0931C79.4826 25.8013 79.6127 25.6148 79.8487 25.5361C80.0848 25.4574 80.3606 25.4175 80.6761 25.4175H81.076C81.2819 25.4175 81.418 25.3509 81.4854 25.2165C81.5517 25.0821 81.5854 24.9234 81.5854 24.7418C81.5854 24.559 81.5734 24.3762 81.5493 24.1933C81.5252 24.0226 81.5132 23.87 81.5132 23.7368L81.5493 22.8602C81.5493 22.5926 81.5433 22.3238 81.5312 22.0562C81.5192 21.8371 81.5132 21.6421 81.5132 21.4714V14.6194C81.5132 14.2901 81.5071 13.968 81.4951 13.6508C81.483 13.3214 81.477 12.9933 81.477 12.664L81.4951 12.0792V10.964C81.4951 10.8914 81.4493 10.8429 81.359 10.8175C81.2687 10.7933 81.1615 10.7812 81.041 10.7812C80.811 10.7812 80.599 10.7933 80.4051 10.8175C80.2714 10.8296 80.151 10.8357 80.0414 10.8357C79.7379 10.8357 79.544 10.7533 79.4597 10.5886C79.3742 10.424 79.332 10.1346 79.332 9.7205C79.332 9.5861 79.438 9.49529 79.65 9.44685C79.862 9.39842 80.0956 9.3742 80.3497 9.3742L80.7496 9.39237C81.0639 9.39237 81.2915 9.27371 81.4313 9.03639C81.571 8.79907 81.6649 8.51211 81.7131 8.17792C81.7612 7.84253 81.7914 7.51077 81.8034 7.18143C81.8154 6.87751 81.8395 6.63293 81.8757 6.4501C81.9238 6.20672 81.966 5.96335 82.0033 5.71877C82.0876 5.14605 82.2033 4.57939 82.349 4.01879C82.4947 3.45818 82.7368 2.94117 83.0764 2.46532C83.2101 2.18562 83.4522 1.86597 83.8039 1.50635C84.1555 1.14674 84.6758 0.907004 85.3671 0.784712C85.6213 0.748387 85.8694 0.730225 86.1126 0.730225C86.6823 0.730225 87.2086 0.8283 87.694 1.02324C88.2877 1.26661 88.7093 1.6686 88.9574 2.22921C89.2055 2.78981 89.3295 3.28261 89.3295 3.70882C89.3295 4.18346 89.232 4.6472 89.0393 5.09762C88.9417 5.41485 88.7635 5.64612 88.5033 5.79142C88.2432 5.93792 87.9553 6.01057 87.6398 6.01057C87.264 6.01057 86.9063 5.91371 86.5679 5.71877C86.3258 5.60858 86.156 5.47539 86.0584 5.31678C85.9609 5.15816 85.9127 4.9947 85.9127 4.82398C85.9127 4.65325 85.9428 4.47647 86.003 4.29364C86.0633 4.11081 86.1307 3.92798 86.203 3.74514C86.2632 3.59864 86.3186 3.45939 86.3668 3.32499C86.4764 3.16638 86.5306 3.03924 86.5306 2.94117C86.5306 2.85641 86.5004 2.7886 86.4402 2.74017C86.38 2.69174 86.3065 2.66752 86.2222 2.66752C86.0283 2.66752 85.8465 2.78981 85.6767 3.03319C85.0227 3.75241 84.5795 4.49464 84.3494 5.26229C84.3133 5.39669 84.2675 5.69213 84.2133 6.1486C84.1592 6.60508 84.1074 7.09546 84.0592 7.61974C84.011 8.14402 83.9869 8.55206 83.9869 8.84387C83.9869 9.09935 84.017 9.2616 84.0773 9.32819C84.1375 9.39479 84.2772 9.42869 84.4952 9.42869C84.6048 9.42869 84.7132 9.42264 84.8228 9.41053H86.2764C86.4944 9.41053 86.6763 9.48681 86.822 9.63937C86.9677 9.79193 87.04 9.94692 87.04 10.1055C87.04 10.2884 86.9123 10.4773 86.6582 10.6722C85.8344 10.7703 84.9866 10.8187 84.1134 10.8187V12.8468C84.1254 12.9812 84.1315 13.1943 84.1315 13.4861L84.1134 14.7466V25.4175H85.3491C85.6514 25.4175 85.873 25.4877 86.0127 25.6281C86.1524 25.7686 86.2222 25.9175 86.2222 26.0761C86.2222 26.2711 86.1367 26.4418 85.9681 26.5883C84.9227 26.6234 83.8689 26.6416 82.803 26.6416Z" fill="#E14646"/>
<path d="M91.4179 26.6415C90.8001 26.6415 90.1943 26.5349 89.6005 26.3218C89.0068 26.1087 88.5154 25.7648 88.1288 25.289C87.8253 24.9112 87.6386 24.479 87.5652 23.9922C87.529 23.8578 87.4929 23.7307 87.4556 23.6084V23.0781C87.4556 22.3358 87.5254 21.5682 87.6651 20.7763C87.8048 19.9844 88.0927 19.3028 88.5287 18.73C89.1104 18.012 89.8161 17.4841 90.6459 17.1499C91.4757 16.8145 92.7632 16.5506 94.5083 16.3556C94.5324 16.1849 94.5445 15.996 94.5445 15.789C94.5445 15.4717 94.5324 15.1557 94.5083 14.8385C94.4963 14.6799 94.4843 14.5455 94.4722 14.4365L94.5083 14.1072C94.5083 13.9122 94.4903 13.7112 94.4541 13.5042C94.4301 13.2971 94.418 13.0961 94.418 12.9012L94.4361 12.59C94.4361 12.2486 94.2639 11.8623 93.9182 11.4301C93.5726 10.9978 93.1522 10.7569 92.6548 10.7084C92.3393 10.7084 92.0731 10.7847 91.8551 10.9373C91.6371 11.0898 91.4252 11.2751 91.2192 11.4942C91.1951 11.5184 91.171 11.5366 91.147 11.5487C90.8194 11.8405 90.6556 12.0851 90.6556 12.28C90.6556 12.4266 90.7278 12.5476 90.8736 12.6457C91.0193 12.7438 91.1759 12.8285 91.3457 12.9012C91.4553 12.9617 91.5516 13.0174 91.6359 13.0659C92.108 13.4315 92.3453 13.8638 92.3453 14.3626C92.3453 14.801 92.1598 15.1945 91.7913 15.5408C91.4215 15.8883 91.0253 16.0917 90.6014 16.1534C89.9715 16.0687 89.4476 15.7054 89.0297 15.0661C88.6118 14.4268 88.4022 13.7778 88.4022 13.1204C88.4022 12.4144 88.572 11.7412 88.9116 11.1007C89.2513 10.4614 89.7415 9.94076 90.3834 9.53877C90.723 9.34383 91.0554 9.20338 91.383 9.11862C91.7106 9.03387 92.1032 8.97212 92.5645 8.93579C92.8921 8.96001 93.1799 8.99391 93.428 9.03629C93.6761 9.07867 93.9278 9.14042 94.182 9.21912C94.4361 9.29903 94.6601 9.40559 94.854 9.53877C95.52 9.9892 96.0295 10.5232 96.3811 11.1383C96.7328 11.7533 96.9267 12.5246 96.9628 13.4497C97.0351 14.2295 97.0724 15.0032 97.0724 15.7708C97.0724 16.7697 97.0423 17.696 96.9821 18.5484C96.958 19.1696 96.946 19.6878 96.946 20.1019C96.946 20.3574 96.952 20.5656 96.964 20.723C96.964 21.2715 96.946 21.8624 96.9098 22.4957V25.3641H98.2551C98.449 25.3641 98.5972 25.4367 98.7007 25.5832C98.8031 25.7297 98.8549 25.8883 98.8549 26.0579C98.8549 26.1923 98.8128 26.3133 98.7272 26.4235C98.6417 26.5337 98.5093 26.5882 98.3274 26.5882L95.838 26.6064C95.5345 26.6064 95.2864 26.5059 95.0925 26.3049C94.8986 26.1039 94.7528 25.8726 94.6565 25.6111C94.5589 25.3495 94.5108 25.1389 94.5108 24.9802C94.2073 25.4803 93.7749 25.8823 93.2112 26.1862C92.6452 26.4889 92.0478 26.6415 91.4179 26.6415ZM91.1457 24.778C91.5336 24.778 91.9153 24.7175 92.2911 24.5952C92.3031 24.5831 92.3152 24.577 92.3272 24.577C92.7391 24.4802 93.1173 24.2598 93.463 23.9196C93.8086 23.5781 94.1145 23.2258 94.3807 22.8601C94.4289 22.8117 94.471 22.7572 94.5083 22.6954V18.8221C94.5083 18.6271 94.4686 18.4927 94.3903 18.4201C94.3108 18.3474 94.2048 18.3099 94.0724 18.3099C93.9025 18.3099 93.7026 18.3402 93.4726 18.4007C93.4003 18.4128 93.3269 18.4249 93.2546 18.437C92.7933 18.5351 92.3453 18.6743 91.9093 18.8572C91.4733 19.04 91.0976 19.3136 90.782 19.6793C90.5279 19.9965 90.3364 20.2799 90.21 20.5293C90.0823 20.7787 89.9582 21.0863 89.8378 21.4519C89.7776 21.7074 89.7475 21.9944 89.7475 22.3104C89.7475 22.9558 89.8499 23.5588 90.057 24.1194C90.1666 24.3627 90.3171 24.5335 90.511 24.6315C90.7025 24.7296 90.9145 24.778 91.1457 24.778Z" fill="#E14646"/>
<path d="M99.8151 26.6416C99.6332 26.6416 99.4875 26.5592 99.3791 26.3946C99.2707 26.2299 99.2153 26.0568 99.2153 25.8739C99.2153 25.7395 99.2575 25.6184 99.343 25.5083C99.4273 25.3981 99.567 25.3436 99.7609 25.3436C100.439 25.3436 100.803 25.1365 100.851 24.7224L100.815 24.4851C100.875 24.0589 100.905 23.6267 100.905 23.1883C100.893 22.75 100.881 22.3723 100.869 22.055C100.869 21.7257 100.865 21.4036 100.859 21.0864C100.853 20.7691 100.85 20.3865 100.85 19.9349C100.85 18.8137 100.85 18.0412 100.85 17.6138C100.862 17.2844 100.868 16.9442 100.868 16.5906C100.892 16.116 100.904 15.6462 100.904 15.1837C100.904 14.3313 100.886 13.5091 100.85 12.7173C100.838 12.4376 100.826 12.1445 100.814 11.8406C100.814 11.6699 100.82 11.4931 100.832 11.3103C100.844 11.1517 100.85 10.9991 100.85 10.8538V10.7073H99.7778C99.608 10.7073 99.4839 10.6528 99.4056 10.5426C99.3261 10.4325 99.2876 10.3053 99.2876 10.1588C99.2876 10.0123 99.3213 9.87548 99.3876 9.74713C99.4538 9.61879 99.5538 9.55583 99.6874 9.55583C100.753 9.55583 101.869 9.54372 103.032 9.5195C103.25 9.5195 103.384 9.60184 103.432 9.76651C103.48 9.93118 103.504 10.1661 103.504 10.47L103.468 11.6578L103.486 12.8819C103.74 12.4194 104.046 11.9133 104.404 11.3648C104.761 10.8163 105.17 10.3416 105.631 9.93965C106.091 9.53766 106.595 9.33667 107.14 9.33667C107.904 9.37299 108.579 9.7544 109.167 10.4785C109.755 11.2037 110.049 12.0525 110.049 13.0272C110.049 13.5636 109.963 14.1387 109.795 14.7538C109.625 15.3689 109.361 15.8956 109.003 16.3339C108.646 16.7723 108.176 16.9914 107.594 16.9914C107.352 16.9914 107.109 16.943 106.867 16.8449C106.527 16.748 106.279 16.5495 106.121 16.2516C105.963 15.9537 105.885 15.6583 105.885 15.3653C105.885 15.0977 105.967 14.8168 106.131 14.525C106.295 14.232 106.54 14.0261 106.867 13.9038C107.121 13.8554 107.297 13.7246 107.394 13.5103C107.491 13.2972 107.54 13.0684 107.54 12.825C107.54 12.5695 107.506 12.2644 107.44 11.9121C107.374 11.5585 107.23 11.2667 107.012 11.0354L106.849 10.9991C106.679 10.9991 106.527 11.0899 106.395 11.2728C106.261 11.4556 106.14 11.6566 106.031 11.8757C105.933 12.0586 105.843 12.2111 105.759 12.3322C105.649 12.5756 105.547 12.7766 105.449 12.9352C105.352 13.0938 105.249 13.2524 105.14 13.4098C105.042 13.5442 104.934 13.7089 104.812 13.9038C104.654 14.1472 104.478 14.4221 104.285 14.726C104.091 15.0311 103.849 15.4198 103.557 15.8956C103.545 16.2976 103.533 16.6512 103.521 16.9551C103.509 17.2602 103.503 17.5641 103.503 17.868C103.503 18.3427 103.521 18.7447 103.557 19.074L103.575 20.3708L103.557 22.7827L103.593 24.4452L103.557 24.6825C103.557 24.9755 103.693 25.1704 103.967 25.2673C104.239 25.3654 104.521 25.4138 104.812 25.4138C105.03 25.4138 105.184 25.478 105.276 25.6051C105.367 25.7323 105.418 25.8885 105.43 26.0713C105.358 26.3025 105.212 26.4527 104.994 26.5193C104.776 26.5859 104.546 26.6198 104.304 26.6198L103.632 26.6016L101.342 26.5835C100.809 26.5871 100.299 26.6052 99.8151 26.6416Z" fill="#E14646"/>
<path d="M129.459 26.6415C129.169 26.6415 128.865 26.6052 128.551 26.5313C128.247 26.4708 127.963 26.4405 127.697 26.4405C126.849 26.1112 126.425 25.484 126.425 24.5589C126.389 24.0722 126.371 23.5903 126.371 23.1156C126.371 22.6531 126.383 22.1906 126.407 21.7268C126.419 21.2401 126.425 20.74 126.425 20.2278V17.5604L126.443 16.4271L126.407 15.6231C126.407 15.2696 126.395 14.9475 126.371 14.6545C126.335 14.3251 126.317 13.8989 126.317 13.3759L126.335 12.5356C126.311 12.4145 126.293 12.2559 126.281 12.0609C126.281 11.8175 126.253 11.5742 126.199 11.3296C126.144 11.0862 126.008 10.9034 125.789 10.7811H125.68C125.437 10.7811 125.21 10.8634 124.998 11.0281C124.786 11.1928 124.594 11.3877 124.426 11.6129C124.256 11.8381 124.116 12.0428 124.008 12.2256C123.692 12.6518 123.444 13.0538 123.262 13.4316C123.165 13.6386 123.044 13.8638 122.899 14.1072C122.826 14.2658 122.759 14.4244 122.699 14.5818C122.469 15.0565 122.275 15.5444 122.117 16.0433C122.045 16.5676 122.007 17.0604 122.007 17.5229V21.4701C122.007 21.5803 122.013 21.7256 122.026 21.9084C122.05 22.1518 122.062 22.4025 122.062 22.6579C122.062 22.8892 122.044 23.1023 122.007 23.2972L122.026 25.3617L122.589 25.3435C122.723 25.3435 122.837 25.3677 122.935 25.4162C123.007 25.4525 123.065 25.5469 123.107 25.6995C123.149 25.8521 123.171 26.0191 123.171 26.202C123.171 26.2879 123.165 26.363 123.153 26.4308C123.141 26.4974 123.105 26.5434 123.043 26.5676C122.885 26.5919 122.728 26.604 122.571 26.604L121.844 26.5858H120.48L119.663 26.604C119.408 26.604 119.093 26.5919 118.717 26.5676C118.535 26.5555 118.353 26.5495 118.172 26.5495C118.062 26.5495 117.968 26.4768 117.89 26.3303C117.81 26.1838 117.772 26.0325 117.772 25.8739C117.784 25.5203 117.917 25.3435 118.172 25.3435C118.377 25.3677 118.553 25.3798 118.699 25.3798C118.869 25.3798 119.009 25.3677 119.117 25.3435C119.189 25.0142 119.227 24.6921 119.227 24.3749L119.209 23.7719C119.257 22.4933 119.281 21.1771 119.281 19.8246V15.2199C119.305 14.916 119.317 14.6109 119.317 14.3058C119.317 13.819 119.299 13.3311 119.263 12.8443C119.263 12.7596 119.257 12.6736 119.245 12.5888V12.4605C119.245 12.1433 119.141 11.803 118.935 11.4374C118.729 11.0717 118.444 10.8889 118.081 10.8889C117.911 10.8889 117.724 10.9494 117.518 11.0717C117.142 11.4979 116.838 11.9737 116.608 12.4968C116.56 12.5828 116.511 12.6675 116.463 12.7523C116.233 13.1906 116.039 13.6362 115.881 14.0866C115.845 14.1847 115.809 14.2815 115.771 14.3796C115.141 15.5856 114.826 16.6705 114.826 17.6319C114.862 18.2651 114.88 18.9044 114.88 19.551C114.88 19.8319 114.862 20.0995 114.826 20.355C114.802 20.5983 114.79 20.8429 114.79 21.0863C114.79 21.3672 114.802 21.6469 114.826 21.9266C114.85 22.1942 114.862 22.4691 114.862 22.7487L114.844 25.289C114.844 25.3254 114.862 25.3496 114.898 25.3617C114.934 25.3738 114.976 25.3798 115.026 25.3798L115.335 25.398C115.445 25.3617 115.535 25.3435 115.607 25.3435C115.886 25.3435 116.019 25.484 116.007 25.7637C115.983 25.9828 115.91 26.1814 115.789 26.357C115.668 26.5337 115.486 26.6221 115.244 26.6221L115.08 26.604L112.863 26.6221L111.681 26.5858C111.402 26.5858 111.199 26.5713 111.072 26.5398C110.944 26.5095 110.856 26.4514 110.808 26.3667C110.76 26.2819 110.71 26.1717 110.662 26.0373C110.638 25.9404 110.602 25.8303 110.553 25.708L110.535 25.6716C110.535 25.6595 110.541 25.6438 110.553 25.6256C110.565 25.6075 110.577 25.5917 110.589 25.5796C110.601 25.5675 110.609 25.5554 110.617 25.5433C110.623 25.5312 110.626 25.5191 110.626 25.507H110.608C110.656 25.4222 110.726 25.3665 110.818 25.3423C110.908 25.3181 111.008 25.306 111.118 25.306H111.499C111.633 25.306 111.751 25.2781 111.853 25.2236C111.956 25.1692 112.008 25.0384 112.008 24.8301L111.953 15.0177C111.965 14.7138 111.971 14.4874 111.971 14.3421C111.984 14.2319 111.99 14.1169 111.99 13.9946C111.99 13.8735 111.99 13.7028 111.99 13.4824L111.899 10.7048L110.572 10.6867C110.45 10.6382 110.36 10.5462 110.3 10.413C110.24 10.2786 110.209 10.1454 110.209 10.011C110.209 9.86451 110.255 9.72164 110.346 9.58118C110.436 9.44073 110.518 9.3705 110.591 9.3705L113.281 9.33418C113.571 9.33418 113.835 9.34023 114.071 9.35234C114.307 9.36445 114.449 9.38261 114.498 9.40682C114.619 9.40682 114.698 9.56181 114.734 9.87299C114.77 10.1842 114.788 10.5159 114.788 10.8683C114.788 11.1855 114.776 11.5935 114.752 12.0924C115.019 11.5802 115.282 11.1601 115.542 10.8319C115.803 10.5026 116.114 10.2011 116.478 9.92747C116.842 9.65383 117.254 9.48553 117.714 9.42499C117.992 9.29059 118.314 9.22399 118.677 9.22399C119.162 9.22399 119.647 9.32207 120.131 9.51701C120.543 9.66352 120.837 9.89841 121.013 10.2205C121.188 10.5438 121.319 10.8816 121.403 11.2351C121.439 11.3574 121.475 11.4725 121.512 11.5827V11.711C121.512 11.8817 121.527 12.0488 121.558 12.2135C121.588 12.3782 121.634 12.4605 121.694 12.4605C121.912 12.119 122.094 11.8333 122.24 11.602C122.398 11.3465 122.554 11.1032 122.712 10.8707C122.87 10.6394 123.076 10.3585 123.33 10.0304C123.826 9.56786 124.481 9.29301 125.293 9.20825C126.505 9.20825 127.456 9.55212 128.146 10.2411C128.836 10.9288 129.182 11.9798 129.182 13.3928V15.6401C129.206 16.2612 129.218 16.932 129.218 17.65C129.218 18.3571 129.23 19.0267 129.254 19.66C129.218 19.9772 129.2 20.2872 129.2 20.5923L129.218 21.6881V22.4557C129.218 22.894 129.23 23.3263 129.254 23.7525C129.266 24.1182 129.272 24.4354 129.272 24.703C129.308 24.8495 129.382 24.9766 129.49 25.0868C129.6 25.197 129.714 25.2999 129.836 25.398C129.982 25.4961 130.106 25.6026 130.208 25.7177C130.31 25.8339 130.362 25.9586 130.362 26.0918C130.362 26.1778 130.338 26.2746 130.29 26.3848C130.053 26.5567 129.773 26.6415 129.459 26.6415Z" fill="#E14646"/>
</svg>
